<?xml version="1.0" encoding="utf-8"?>
<!-- Generator: Adobe Illustrator 24.0.2, SVG Export Plug-In . SVG Version: 6.00 Build 0)  -->
<svg version="1.1" id="Layer_1" xmlns="http://www.w3.org/2000/svg" xmlns:xlink="http://www.w3.org/1999/xlink" x="0px" y="0px"
	 viewBox="0 0 848.3 499.2" style="enable-background:new 0 0 848.3 499.2;" xml:space="preserve">
<style type="text/css">
	.st0{fill:#F1F1F1;}
	.st1{fill:#FFFFFF;stroke:#B8E6FF;stroke-linejoin:round;}
	.st2{fill:none;stroke:#B8E6FF;stroke-linejoin:round;}
	.st3{fill:none;stroke:#86BFEF;stroke-miterlimit:10;}
	.st4{fill:#86BFEF;}
	.st5{fill:#14B0BF;}
	.st6{fill:#284962;}
	.st7{fill:#FFFFFF;}
	.st8{fill:#52A5FF;stroke:#418BE5;stroke-linejoin:round;}
	.st9{fill:#6EBEFF;}
	.st10{fill:#85CEFF;}
	.st11{fill:#FFFFFF;stroke:#418BE5;stroke-linejoin:round;}
	.st12{clip-path:url(#SVGID_2_);}
	.st13{fill:none;stroke:#DEF2FF;stroke-width:5;stroke-linejoin:round;}
	.st14{fill:#FFFFFF;stroke:#CCEDFF;stroke-miterlimit:10;}
	.st15{fill:none;stroke:#CCEDFF;stroke-miterlimit:10;}
	.st16{fill:none;stroke:#CCEDFF;stroke-width:3;stroke-linecap:round;stroke-miterlimit:10;}
	.st17{fill:#CCEDFF;}
	.st18{fill:#E6F7FF;}
	.st19{fill:none;stroke:#DEF2FF;stroke-width:3;stroke-linejoin:round;}
	.st20{fill-rule:evenodd;clip-rule:evenodd;}
	.st21{fill:#FFB882;}
	.st22{fill:#362D3A;}
	.st23{fill:#61D4F6;}
	.st24{fill:#602540;}
	.st25{fill:#FF735E;}
	.st26{fill:#FFAA00;}
	.st27{fill:#D6C3C5;}
	.st28{fill:none;stroke:#362D3A;stroke-width:1.14;stroke-linecap:round;stroke-linejoin:round;}
	.st29{fill:#7C3552;}
	.st30{fill:#FBEBEC;}
	.st31{fill:#B6ABAC;}
	.st32{fill:#FDD9C5;}
	.st33{fill:#3B80A3;}
	.st34{fill:#3F3F3F;}
</style>
<title>learning</title>
<g>
	<g id="Layer_4">
		<path id="shadow" class="st0" d="M678.3,446.4c3-3-7.1-8.3-10.5-8C650.2,426.7,542.9,426,413.1,426
			c-142.1,0-257.3,10.8-257.3,24.2c0,1.1,0.8,2.2,2.3,3.3c-31.7,4.4-52.2,11.4-52.2,19.2c0,13.4,60,24.2,134.1,24.2
			c71.2,0,129.5-10,133.8-22.7c12.8,0.2,25.9,0.3,39.3,0.3c93,0,174.5,10.9,219.7,4c2.2,7.6,26.1,2.4,49.9,2.4
			c25.3,0,41.4-11.1,41.4-19.4S703.6,446.4,678.3,446.4z"/>
		<path class="st1" d="M202.9,242c-21.5-28.1-63.8-88.9-43.6-221.9c68.6,70.7,76.2,116.9,79.1,205.5"/>
		<path class="st2" d="M159.2,20.1c0,0,11.9,107.4,60.8,210.2"/>
		<path class="st2" d="M159.2,20.1c0,0-7.4,114.7,53.3,218.8"/>
		<path class="st2" d="M224.7,226.2c-2.9-25.3-41.3-149.6-65.5-206.1"/>
		<path class="st2" d="M231.8,220.4c-10-64-18-127.2-72.6-200.3"/>
		<path class="st1" d="M187.2,264.2c-24.4-15.7-73.8-51.1-90.6-165.3c73.2,34.8,90.8,69.7,115.3,140.5"/>
		<path class="st2" d="M96.5,98.9c0,0,36.5,83,101.6,150.2"/>
		<path class="st2" d="M96.5,98.9c0,0,22.6,95.2,97.7,159.6"/>
		<path class="st2" d="M201,244.3c-8.7-19.5-70.7-107.6-104.4-145.4"/>
		<path class="st2" d="M205.3,237.3C181.2,188.8,159,140.2,96.5,98.9"/>
		<path class="st1" d="M169.1,351.8C136.5,349.6,69,341.4,0.5,231.6c92.2-6.3,126.2,20,183.3,79.9"/>
		<path class="st2" d="M0.5,231.6c0,0,75.2,65.7,173.4,98"/>
		<path class="st2" d="M0.5,231.6c0,0,66.1,86.6,173.4,110.2"/>
		<path class="st2" d="M174.7,322.9c-17.8-15.3-122-71.4-174.2-91.4"/>
		<path class="st2" d="M176.1,313.1c-46.8-36.8-91.8-74.7-175.6-81.5"/>
		<path class="st3" d="M161.9,307.3c-15.4-83-77.1-126.2-77.1-126.2"/>
		<path class="st4" d="M86.6,182.5c0,0-12.2-25.7-21.3-18S86.6,182.5,86.6,182.5z"/>
		<path class="st4" d="M97.3,191.5c0,0,5.8-30.2-6.2-31.3S97.3,191.5,97.3,191.5z"/>
		<path class="st4" d="M107.4,201.4c0,0,15.6-25.2,5-31.6S107.4,201.4,107.4,201.4z"/>
		<path class="st4" d="M120.7,216.4c0,0,14.7-23.7,4.7-29.7S120.7,216.4,120.7,216.4z"/>
		<path class="st4" d="M121.5,216.2c0,0-23.8-10.3-26.3,2.3S121.5,216.2,121.5,216.2z"/>
		<path class="st4" d="M131.4,230.8c0,0,14.7-23.7,4.7-29.7S131.4,230.8,131.4,230.8z"/>
		<path class="st4" d="M132.2,230.6c0,0-23.8-10.4-26.3,2.3S132.2,230.6,132.2,230.6z"/>
		<path class="st4" d="M140.2,247.8c0,0,17.3-21.3,8-28.8S140.2,247.8,140.2,247.8z"/>
		<path class="st4" d="M141,247.7c0,0-22.4-13.8-26.4-1.7S141,247.7,141,247.7z"/>
		<path class="st4" d="M148.6,262.9c0,0,17.3-21.3,8-28.8S148.6,262.9,148.6,262.9z"/>
		<path class="st4" d="M149.4,262.8c0,0-22.4-13.8-26.4-1.7S149.4,262.8,149.4,262.8z"/>
		<path class="st4" d="M155.5,283.5c0,0,17.3-21.3,8-28.8S155.5,283.5,155.5,283.5z"/>
		<path class="st4" d="M156.3,283.4c0,0-22.4-13.8-26.4-1.7S156.3,283.4,156.3,283.4z"/>
		<path class="st4" d="M107,201.4c0,0-27-1.7-26,12S107,201.4,107,201.4z"/>
		<path class="st4" d="M96.8,190.4c0,0-25.4-10.3-27.9,3.1S96.8,190.4,96.8,190.4z"/>
		<path class="st3" d="M124.9,370.4c-42.6-50.5-102.6-49.9-102.6-49.9"/>
		<path class="st4" d="M24.1,320.5c0,0-18.4-11.9-21.9-1.9S24.1,320.5,24.1,320.5z"/>
		<path class="st4" d="M35.1,321.5c0,0-7.5-24.1-16.3-18.9S35.1,321.5,35.1,321.5z"/>
		<path class="st4" d="M46,323.3c0,0,1.3-25.6-8.6-24.7S46,323.3,46,323.3z"/>
		<path class="st4" d="M61.1,327.2c0,0,1.3-24.1-8.1-23.3S61.1,327.2,61.1,327.2z"/>
		<path class="st4" d="M61.6,326.6c0,0-20.7,4.7-17.6,14.8S61.6,326.6,61.6,326.6z"/>
		<path class="st4" d="M74.1,331.9c0,0,1.3-24.1-8.1-23.3S74.1,331.9,74.1,331.9z"/>
		<path class="st4" d="M74.6,331.4c0,0-20.7,4.7-17.6,14.8S74.6,331.4,74.6,331.4z"/>
		<path class="st4" d="M86.8,339.4c0,0,4-23.7-5.4-24.3S86.8,339.4,86.8,339.4z"/>
		<path class="st4" d="M87.4,338.9c0,0-21,1.5-19.1,12.1S87.4,338.9,87.4,338.9z"/>
		<path class="st4" d="M98.6,345.8c0,0,4-23.7-5.4-24.3S98.6,345.8,98.6,345.8z"/>
		<path class="st4" d="M99.1,345.4c0,0-21,1.6-19.1,12.1S99.1,345.4,99.1,345.4z"/>
		<path class="st4" d="M111.2,356.9c0,0,4-23.7-5.4-24.3S111.2,356.9,111.2,356.9z"/>
		<path class="st4" d="M111.8,356.4c0,0-21,1.6-19.1,12.1S111.8,356.4,111.8,356.4z"/>
		<path class="st4" d="M45.7,323.5c0,0-19.6,12.4-13.7,21.5S45.7,323.5,45.7,323.5z"/>
		<path class="st4" d="M34.4,320.9c0,0-21.9,5.5-18.4,16.2S34.4,320.9,34.4,320.9z"/>
		<path class="st1" d="M643.9,207.7c26-22.5,78.2-72.3,82-207.2c-79.7,53.4-95.3,96.8-113.8,182.9"/>
		<path class="st2" d="M725.8,0.5c0,0-30.7,102.4-96.7,191.7"/>
		<path class="st2" d="M725.8,0.5c0,0-13,114-90.9,201.9"/>
		<path class="st2" d="M625.2,187.2c7.3-24.1,66.9-137,100.6-186.7"/>
		<path class="st2" d="M619.3,179.9c21.2-60.3,40.1-120.4,106.5-179.4"/>
		<path class="st1" d="M675.3,281.5c31.6-9.3,96.5-32,145.6-154.7c-91.6,13.9-120.6,47.1-166.8,118.3"/>
		<path class="st2" d="M820.9,126.8c0,0-62.9,80.8-154,133.9"/>
		<path class="st2" d="M820.9,126.8c0,0-50.5,99.3-152,145.9"/>
		<path class="st2" d="M665.1,254.3c14.9-18.9,108-96.7,155.8-127.6"/>
		<path class="st2" d="M662.1,244.9c39.9-46.3,77.7-93.3,158.8-118.2"/>
		<path class="st1" d="M662.2,337.9c32.3,5,99.9,11.7,185.6-81c-89.4-26.4-127.2-8.1-193.3,38.1"/>
		<path class="st2" d="M847.8,256.9c0,0-84.8,48-186.6,58.1"/>
		<path class="st2" d="M847.8,256.9c0,0-79.4,70.4-188.7,70.1"/>
		<path class="st2" d="M661.6,308.3c20-11.2,131.7-43.3,186.2-51.4"/>
		<path class="st2" d="M661.9,298.3c52.1-25.8,102.6-53.1,185.9-41.5"/>
		<path class="st1" d="M635.1,373.3c21.3,16.8,66.5,49.2,146.6,15.3c-55.9-55.8-86.2-57.5-142.3-50.2"/>
		<path class="st2" d="M781.7,388.6c0,0-69.4,1.1-142.1-32.6"/>
		<path class="st2" d="M781.7,388.6c0,0-70.7,19.9-146.2-24.7"/>
		<path class="st2" d="M641.3,351.1c16.3-0.1,100.8,21.4,140.4,37.5"/>
		<path class="st2" d="M643.8,343.9c41.8,2,82.9,2.3,137.9,44.7"/>
		<path class="st3" d="M673.7,226.2c15.4-83,77.1-126.2,77.1-126.2"/>
		<path class="st4" d="M749,101.4c0,0,12.2-25.7,21.3-18S749,101.4,749,101.4z"/>
		<path class="st4" d="M738.3,110.4c0,0-5.8-30.2,6.2-31.3S738.3,110.4,738.3,110.4z"/>
		<path class="st4" d="M728.1,120.2c0,0-15.6-25.2-5-31.6S728.1,120.2,728.1,120.2z"/>
		<path class="st4" d="M714.8,135.3c0,0-14.7-23.7-4.7-29.7C720.1,99.5,714.8,135.3,714.8,135.3z"/>
		<path class="st4" d="M714,135c0,0,23.8-10.4,26.3,2.3C742.9,149.9,714,135,714,135z"/>
		<path class="st4" d="M704.2,149.7c0,0-14.7-23.7-4.7-29.7C709.5,113.9,704.2,149.7,704.2,149.7z"/>
		<path class="st4" d="M703.4,149.5c0,0,23.8-10.4,26.3,2.3C732.3,164.3,703.4,149.5,703.4,149.5z"/>
		<path class="st4" d="M695.3,166.6c0,0-17.3-21.3-8-28.8C696.6,130.4,695.3,166.6,695.3,166.6z"/>
		<path class="st4" d="M694.5,166.5c0,0,22.4-13.8,26.3-1.7C724.9,177,694.5,166.5,694.5,166.5z"/>
		<path class="st4" d="M686.9,181.8c0,0-17.3-21.3-8-28.8C688.2,145.5,686.9,181.8,686.9,181.8z"/>
		<path class="st4" d="M686.1,181.7c0,0,22.4-13.8,26.3-1.7S686.1,181.7,686.1,181.7z"/>
		<path class="st4" d="M680.1,202.4c0,0-17.3-21.3-8-28.8S680.1,202.4,680.1,202.4z"/>
		<path class="st4" d="M679.3,202.3c0,0,22.4-13.8,26.3-1.7S679.3,202.3,679.3,202.3z"/>
		<path class="st4" d="M728.5,120.2c0,0,27-1.7,26,12S728.5,120.2,728.5,120.2z"/>
		<path class="st4" d="M738.8,109.3c0,0,25.4-10.3,27.9,3.1C769.1,125.9,738.8,109.3,738.8,109.3z"/>
		<path class="st3" d="M645.2,381.9c45.4-43.6,102.9-36.1,102.9-36.1"/>
		<path class="st4" d="M746.3,345.6c0,0,18.7-9.3,21.2,0.7C770,356.4,746.3,345.6,746.3,345.6z"/>
		<path class="st4" d="M735.8,345.3c0,0,9.3-22.3,17.4-16.3C761.2,335.1,735.8,345.3,735.8,345.3z"/>
		<path class="st4" d="M725.1,345.8c0,0,1-24.7,10.4-22.8C745,325,725.1,345.8,725.1,345.8z"/>
		<path class="st4" d="M710.3,347.8c0,0,0.9-23.3,9.8-21.4S710.3,347.8,710.3,347.8z"/>
		<path class="st4" d="M709.8,347.2c0,0,19.4,6.9,15.6,16.3C721.7,372.9,709.8,347.2,709.8,347.2z"/>
		<path class="st4" d="M697.3,350.9c0,0,0.9-23.3,9.8-21.4S697.3,350.9,697.3,350.9z"/>
		<path class="st4" d="M696.9,350.3c0,0,19.4,6.9,15.6,16.3C708.8,376,696.9,350.3,696.9,350.3z"/>
		<path class="st4" d="M684.4,356.6c0,0-1.7-23.2,7.3-22.7C700.8,334.4,684.4,356.6,684.4,356.6z"/>
		<path class="st4" d="M684,356.1c0,0,20.1,3.9,17.3,13.8S684,356.1,684,356.1z"/>
		<path class="st4" d="M672.6,361.4c0,0-1.7-23.2,7.3-22.7C689,339.2,672.6,361.4,672.6,361.4z"/>
		<path class="st4" d="M672.2,360.9c0,0,20,3.9,17.3,13.8S672.2,360.9,672.2,360.9z"/>
		<path class="st4" d="M659.5,370.5c0,0-1.7-23.2,7.3-22.7C675.8,348.3,659.5,370.5,659.5,370.5z"/>
		<path class="st4" d="M659,370c0,0,20.1,3.9,17.3,13.8C673.7,393.6,659,370,659,370z"/>
		<path class="st4" d="M725.3,346c0,0,17.7,14.1,11.2,22.3S725.3,346,725.3,346z"/>
		<path class="st4" d="M736.5,344.9c0,0,20.5,7.8,16.3,17.7S736.5,344.9,736.5,344.9z"/>
		<path class="st5" d="M803.1,410l-9.8-1.1c0.9-7.4,1.3-28.9-7.6-38.6c-3.1-3.4-7.5-5.2-12.1-5.1c-23.9-0.4-36.6-3.5-42.6-10.4
			c-5.3-6.1-4.1-13.5-2.8-20.7c1.1-6.5,2.3-13.2-1.3-19.4c-7.4-18.8-47.3-13.5-62-9.9l-2.5-9.1c2.5-0.6,61.7-14.7,73.4,15.1
			c4.9,8.4,3.3,17.5,2.1,24.8c-1.1,6.4-1.7,10.5,0.7,13.2c3.8,4.3,15.6,6.7,35.3,7c7.8,0.1,14.3,2.9,19.3,8.3
			C806.7,379,803.3,408.8,803.1,410z"/>
		<path class="st6" d="M827.7,471.5c0,10.3-8.8,18.8-19.6,18.8h-19.6c-10.8,0-19.7-8.4-19.7-18.8v-47.8c0-10.4,8.8-18.8,19.7-18.8
			h19.6c10.8,0,19.6,8.4,19.6,18.8L827.7,471.5z"/>
		<path class="st7" d="M805.6,428.6c0,7.6-3.3,13.8-7.4,13.8s-7.4-6.2-7.4-13.8s3.3-13.8,7.4-13.8
			C802.3,414.8,805.6,421,805.6,428.6z"/>
		<path class="st8" d="M671.9,440.6H176.5c-2.9,0-5.3-2.4-5.3-5.3l0,0v-349c0-2.9,2.4-5.3,5.3-5.3h495.5c2.9,0,5.3,2.4,5.3,5.3v349
			C677.2,438.2,674.8,440.6,671.9,440.6L671.9,440.6L671.9,440.6z"/>
		<rect x="424.2" y="89.8" class="st9" width="244.1" height="341.4"/>
		<rect x="180.1" y="89.8" class="st9" width="244.1" height="341.4"/>
		<path class="st10" d="M662.3,87.1v340.7c-158.6-12.4-238.2,2.7-238.2,2.7V89.8C424.1,89.8,483,56.5,662.3,87.1z"/>
		<path class="st11" d="M662.3,87.1v340.7c-179.4-30.6-238.2,2.7-238.2,2.7V89.8C424.1,89.8,483,56.5,662.3,87.1z"/>
		<path class="st10" d="M186,87.1v340.7c158.6-12.4,238.2,2.7,238.2,2.7V89.8C424.2,89.8,365.4,56.5,186,87.1z"/>
		<g>
			<defs>
				<rect id="SVGID_1_" x="200.6" y="84" width="208.9" height="319.2"/>
			</defs>
			<clipPath id="SVGID_2_">
				<use xlink:href="#SVGID_1_"  style="overflow:visible;"/>
			</clipPath>
			<g class="st12">
				<path class="st13" d="M414.5,327c0,0-54-30.6-218.9-2.4"/>
				<path class="st13" d="M414.5,350.1c0,0-54-30.6-218.9-2.5"/>
				<path class="st13" d="M414.5,373.2c0,0-54-30.6-218.9-2.4"/>
				<path class="st13" d="M414.5,396.3c0,0-54-30.6-218.9-2.5"/>
				<path class="st14" d="M348.5,192.6c0-26.4-22-47.8-49.1-47.8s-49.2,21.4-49.2,47.8c0,10.2,3.3,20.1,9.4,28.2l0,0
					c7,10.3,25.2,18.8,25.2,32.8v7.9c0,1.6,1.4,2.9,3,2.9c0,0,0,0,0,0h23c1.6,0,2.9-1.2,3-2.8c0,0,0,0,0-0.1v-8
					c0-14.1,18.2-22.6,25.2-32.8l0,0C345.3,212.6,348.6,202.7,348.5,192.6z"/>
				<path class="st15" d="M292.9,262.2c0.3-6.6,1.8-48.5-5.3-62c-3.5-6.6-10-9.5-14.2-7c-2.8,1.6-4.1,6-3.5,10.1
					c1.2,7.9,8.7,17.7,29,17.7s27.8-9.8,29-17.7c0.6-4-0.7-8.4-3.5-10.1c-4.2-2.5-10.7,0.4-14.2,7c-7.1,13.5-5.5,55.4-5.3,62"/>
				<path class="st16" d="M288.9,152.6c-17.8,4.4-30.9,20-30.9,38.6"/>
				<path class="st17" d="M299.9,151.3c0,1.6-1.2,2.9-2.7,2.9s-2.9-1.2-2.9-2.7c0-1.6,1.2-2.9,2.7-2.9c0,0,0.1,0,0.1,0
					C298.6,148.6,299.9,149.8,299.9,151.3C299.9,151.3,299.9,151.3,299.9,151.3z"/>
				<path class="st17" d="M283.4,255.6h31.3v14.5c0,2.4-0.7,4.7-2,6.7l0,0c-2.5,3.8-6.8,6.1-11.4,6.1h-4.6c-4.6,0-8.8-2.3-11.4-6.1
					l0,0c-1.3-2-2-4.3-2-6.7V255.6z"/>
				<path class="st18" d="M283.4,266.3h0.3l31.3-4.2c1.1-0.1,1.8-1.1,1.7-2.1c-0.2-1.1-1.1-1.8-2.2-1.6l-31.3,4.2
					c-1,0.1-1.8,1.1-1.7,2.1c0,0,0,0,0,0C281.6,265.6,282.4,266.3,283.4,266.3z"/>
				<path class="st18" d="M283.4,272.9h0.3l31.3-4.2c1-0.1,1.8-1.1,1.7-2.1c0,0,0,0,0,0c-0.2-1-1.2-1.7-2.2-1.6l-31.3,4.2
					c-1,0.1-1.8,1.1-1.7,2.1c0,0,0,0,0,0C281.6,272.2,282.4,272.9,283.4,272.9z"/>
				<path class="st18" d="M284.6,279.4h0.3l29.6-4c1-0.1,1.8-1.1,1.7-2.1c0,0,0,0,0,0c-0.2-1-1.2-1.7-2.2-1.6l-29.7,4
					c-1,0.1-1.8,1.1-1.7,2.1c0,0,0,0,0,0C282.8,278.8,283.6,279.5,284.6,279.4z"/>
				<path class="st15" d="M320,169.3V93.8c0,0-5-0.2-13.8-0.1"/>
				<path class="st19" d="M300.1,103c-20.2,0.5-43.5,2-70.1,5.2"/>
				<path class="st19" d="M300.1,111.3c-20.2,0.5-43.5,2-70.1,5.2"/>
				<path class="st19" d="M300.1,94.6c-20.2,0.5-43.5,2-70.1,5.2"/>
				<path class="st19" d="M300.1,120.5c-7.9,0.2-16.4,0.5-25.3,1.1"/>
				<path class="st17" d="M304,93.8c0,1.2,0.9,2.3,2.2,2.3c1.2,0,2.3-0.9,2.3-2.2c0-1.2-0.9-2.3-2.2-2.3c0,0,0,0-0.1,0
					C305,91.6,304,92.6,304,93.8z"/>
				<path class="st15" d="M400.4,160.4v49c-11.7-2.8-28-5.5-49.9-6.8"/>
				<path class="st19" d="M400.5,132.8c-12.2-2.9-29.5-5.8-52.9-7"/>
				<path class="st19" d="M400.5,142.7c-12.2-2.9-29.5-5.8-52.9-7"/>
				<path class="st19" d="M400.5,152.6c-13.3-3-26.7-5.1-40.3-6.1"/>
				<path class="st17" d="M398.1,160.4c0,1.2,0.9,2.3,2.2,2.3c1.2,0,2.3-0.9,2.3-2.2c0-1.2-0.9-2.3-2.2-2.3c0,0,0,0-0.1,0
					C399.1,158.2,398.1,159.1,398.1,160.4C398.1,160.4,398.1,160.4,398.1,160.4z"/>
				<polyline class="st15" points="277.3,272.6 277.3,297 255.9,297 				"/>
				<path class="st19" d="M251.4,270.6c0,0-25.2,1.3-54.6,5.9"/>
				<path class="st19" d="M251.4,279c0,0-25.2,1.3-54.6,5.9"/>
				<path class="st19" d="M251.4,287.3c0,0-25.2,1.3-54.6,6"/>
				<path class="st19" d="M251.4,295.7c0,0-12.8,0.7-30.9,2.7"/>
				<path class="st17" d="M253.7,297c0,1.2,0.9,2.3,2.2,2.3c1.2,0,2.3-0.9,2.3-2.2c0-1.2-0.9-2.3-2.2-2.3c0,0,0,0-0.1,0
					C254.7,294.8,253.7,295.8,253.7,297C253.7,297,253.7,297,253.7,297z"/>
			</g>
		</g>
		<path class="st20" d="M156.1,223.9c-0.1,1.6-3.3,6.9-5.7,5c-1.1-0.8-0.9,13.3,9.3,11.3c0.7-0.1,3.2-0.3,3.2-1.2
			c0-2-2.5-5.5-2.4-10c0-1.2-0.5-6.7-2.5-5.9c-0.6,0.2-1.3,0.4-1.8,0.8C156.2,223.8,156.1,223.8,156.1,223.9L156.1,223.9z"/>
		<path class="st21" d="M199.1,436.3c-4.5,0.2-9,0.9-13.4,1.9c0.8,3.2,4.6,18.5,5.4,21.7c3.2-0.2,6.4-0.4,9.6-0.9
			c0.2-0.9,0.2-1.9,0-2.8C200.4,453.8,198.9,438.8,199.1,436.3z"/>
		<path class="st21" d="M165.4,458.2c-3.4,0.4-6.9,0.3-10.3-0.2c-0.1-3.1-1.7-10-2.1-13.1c3.6,0.1,7.8-6.5,11.4-6.6
			C165.1,441.5,165.7,454.8,165.4,458.2z"/>
		<path class="st22" d="M201,371.7c-0.4-12.4-1.2-24.8-2.4-37.2c-0.9,0.1-1.8,0.3-2.8,0.5c-2.1,0.6-4.3,0.3-6.2-0.8
			c-3.4-1.7-6.3-4.2-8.5-7.3c-1.5-2-3-4.2-4.4-6.3c-0.4-0.9-1.3-1.4-2.3-1.2c-2.5,0.3-4.9,0.4-7.4,0.6c-4.1,0.2-8.2-0.1-12.3-0.1
			c-0.7-0.1-1.4-0.3-2.1-0.6c-1.8-0.5-2.1-0.4-3.3,1c-2.2,2.7-4,5.8-5.1,9.1c-4.6,11-2.7,24.8-2.1,36.4c0.6,13.3,1.6,26.5,3,39.8
			c0.9,8.2,1.9,16.4,3.1,24.6c0.5,3.4,0.4,13.8,3.3,17.4c1.3-0.2,2.6-0.5,3.9-0.9c5.2-1.5,10.3-3.7,15.5-5.3
			c-0.1-23.3,0.4-46.8,0.4-69.9c-0.2-0.8,0-1.6,0.3-2.3c0.6,0.3,0.6,0.7,0.7,1.2c0.8,3.9,1.6,7.9,2.4,11.8
			c3.8,19.9,6.3,40.4,8.4,60.4c6,1.3,12.2,1.9,18.3,1.6C201.4,419.9,201.8,395.8,201,371.7z"/>
		<path class="st21" d="M199,311.7c-2.5,1-4.9,1.7-7.6,0.8c-2-0.8-3.8-2.1-5.1-3.8c-5.6-6.2-9.8-13.5-12.5-21.5
			c-0.2-0.8-0.8-1.4-1.6-1.4c-1.1-0.2-2.1-0.5-3.1-0.7c-1.7-0.3-3.3-1.3-4.4-2.7c-0.4-0.4-0.9-0.7-1.5-0.8c-1.7-0.5-2.6-1.3-2.5-2.4
			s1.1-1.8,2.9-2c1.9-0.2,3.7-0.3,5.6-0.2c-0.3-1-1.2-1.1-1.8-1.6s-1.5-0.8-1.9-1.7c-0.1-0.2-0.1-0.4,0-0.6c0.2-0.3,0.4-0.2,0.7-0.1
			c4.4,1.9,8.5,4.6,11.9,7.9c2.7,2.8,5.1,5.9,8.2,8.3c1.6,1.2,3,2.4,4.4,3.8c0.4,0.4,0.9,0.6,1.4,0.7c2,0.7,4,1.5,6.1,2.2
			c2.5,0.8,3.7,2.6,4.1,5c0.4,2.4,0.3,4.8-0.3,7.2l-0.3,1.2C200.8,310.2,200,311.1,199,311.7z"/>
		<path class="st22" d="M200.7,459c0.1,0.3,0.1,0.7,0.1,1c-0.4,2.5,0.8,4.5,2.2,6.5c1.5,1.9,2.7,4,3.7,6.2c0.4,1.1,0.6,2.2,0.5,3.3
			c-0.1,1.2-0.5,1.8-1.7,1.9c-3.4,0.3-6.7-0.4-9.7-2.1c-0.9-0.5-1.5-1.4-1.8-2.3c-0.2-0.7-0.7-1.3-1.4-1.7c-1.5-0.7-2.2-2.4-1.7-3.9
			c0.4-2.6,0.5-5.3,0.1-8C194.4,459.6,197.5,459.4,200.7,459z"/>
		<path class="st23" d="M143,332.6"/>
		<path class="st24" d="M208,286.1c-0.2-4.6-0.3-9.3-0.5-13.9c-0.1-3.8-0.7-7.6-1.8-11.3c-1.5-5-4.3-8.9-9.1-11.2
			c-2.9-1.3-6-2.4-9.1-3.3c-2-0.6-4-1-6.1-1.2c-1.2,2.2-3.2,3.6-5.2,4.8c-3.1,2.1-6.8,3.3-10.5,3.5c-3.8,0.1-7.6-0.5-10.8-2.9
			l-1.8-1.3l-1.4,0.7c-7.6,3.7-13.3,9.2-15.8,17.5c0.7,0.1,1.5,0.3,2.1,0.7c1.6,1,2.1,2.1,1.4,3.9c-0.7,1.7-0.8,3.6-0.3,5.3
			c0.2,0.5,0.2,1.1,0.1,1.6c-0.9,2.4-0.1,4.6,0.3,6.9c0.6,2.5,1.4,4.9,2.3,7.3c0.9,2.4,1.5,4.9,1.8,7.4c0.7,3.6-1.7,7-5.3,7.7
			c-0.7,0.1-1.4,0.1-2.1,0c0,1.1-0.1,2.3-0.3,3.4c-0.7,3.4-1,6.9-1,10.3c-0.1,3.3,1.1,6.5,3.3,9l4.1,4.6c0.2-1.1,0.5-2.1,0.7-3.2
			l0,0c0.4-1,0.9-2.1,1.3-3.2c1.1-3.3,2.9-6.4,5.1-9.1l0.4-0.5l0.6,0.4c2.1,1.1,4.4,1.6,6.8,1.7c5.4,0.4,10.8,0,16-1.1
			c2.8,6.2,9,10.6,15.2,13.3c1.8,0.8,3.7,1.4,5.6,1.5c5.5,0.3,10.1-3.9,10.5-9.3c0.2-3.4-1.4-6.7-4.2-8.7c-0.4-2-0.9-4-1.4-6
			c-2.5,1-4.9,1.7-7.6,0.8c-2-0.8-3.8-2.1-5.1-3.8c-5.6-6.2-9.8-13.5-12.5-21.5c-0.2-0.8-0.8-1.4-1.6-1.4c-1.1-0.2-2.1-0.5-3.1-0.7
			c-1.7-0.3-3.3-1.3-4.4-2.7c-0.4-0.4-0.9-0.7-1.5-0.8c-1.7-0.5-2.6-1.3-2.5-2.4s1.1-1.8,2.9-2c1.9-0.2,3.7-0.3,5.6-0.2
			c-0.3-1-1.2-1.1-1.8-1.6s-1.5-0.8-1.9-1.7c-0.1-0.2-0.1-0.4,0-0.6c0.1-0.3,0.4-0.2,0.7-0.1c4.4,1.9,8.5,4.6,11.9,7.9
			c2.7,2.8,5.1,5.9,8.2,8.3c1.6,1.2,3,2.4,4.4,3.8c0.4,0.4,0.9,0.6,1.4,0.7c2,0.7,4,1.5,6.1,2.2c2.5,0.8,3.7,2.6,4.1,5
			c0.4,2.4,0.3,4.8-0.3,7.2l-0.3,1.2c2.3,0.1,4.4-1.2,5.4-3.2c1.2-2.3,1.8-4.9,1.7-7.6C208.6,294.4,208.2,290.3,208,286.1z"/>
		<path class="st25" d="M174.4,230.4c0,2.3-1.2,4.1-2.6,4.1s-2.6-1.8-2.6-4.1s1.2-4.1,2.6-4.1S174.4,228.1,174.4,230.4z"/>
		<path class="st21" d="M165.1,224.2c-0.3-0.4-0.5-1.1-1.5-1c-2,0.1-3.9,0.8-5.5,1.8c0,0-2.2,2.3-2.2,3.2c0,2.1,0.1,4.1,0.3,6.2
			c0.1,0.5,0.3,0.9,0.4,1.3c1.1,2.8,3.3,4.3,6,5.3c0.6,0.2,1.2,0.3,1.1,1.1c0.2,3-0.2,3.5-3.1,4.4c-2,0.6-4,1.4-6,2.1
			c-0.5,0.2-1.1,0.4-1.6,0.7l1.8,1.3c3.2,2.3,7,3,10.8,2.9c3.8-0.2,7.4-1.4,10.5-3.5c2-1.3,4.1-2.6,5.2-4.8
			c-0.6-0.1-1.2-0.2-1.8-0.3c-2-0.2-0.7-0.1-3.7-0.2c-0.3,0-1.9,0.1-2.1,0c-1.1-3.3-1.1-3.9-2.2-7c0.6-1,1.4-3.7,0.8-5.3
			c0.2-0.3,0.4-0.5,0.7-0.8c1-0.8,1.3-2.1,0.8-3.3c-0.3-0.7-0.7-1.3-1.3-1.8c-1.1-0.1-1.7,0.5-2.2,1.4"/>
		<path class="st26" d="M134.9,271c2.6-1.1,12-5.7,15.8-7.6c0.6-0.3,1.3-0.1,1.6,0.5c0.1,0.1,0.1,0.3,0.1,0.5l0.6,22.6
			c0,0.5-0.3,1-0.8,1.1l-16,6.3c-0.4,0.1-0.8,0.1-1.1-0.2l-10.4-7.8c-0.3-0.2-0.5-0.5-0.5-0.9l-0.6-20.4c0-0.7,0.5-1.2,1.1-1.3
			c0.3,0,0.6,0.1,0.8,0.3l8.1,6.6C134,271,134.4,271.1,134.9,271z"/>
		<path class="st21" d="M135.9,267.6c0.7,0.1,1.5,0.3,2.1,0.7c1.6,1,2.1,2.1,1.4,3.9c-0.7,1.7-0.8,3.6-0.3,5.3
			c0.2,0.5,0.2,1.1,0.1,1.6c-0.9,2.4-0.1,4.6,0.3,6.9c0.6,2.5,1.4,4.9,2.3,7.3c0.9,2.4,1.5,4.9,1.8,7.4c0.7,3.6-1.7,7-5.3,7.7
			c-0.7,0.1-1.4,0.1-2.1,0c-0.1-0.1-0.2-0.2-0.3-0.3c-4.1-1.9-5.2-5.7-5.6-9.7c-0.4-3.5-0.3-7.1,0.3-10.6c0.2-2.2,0.3-4.4,0.2-6.6
			c-0.1-1.3-0.5-2.5-1.3-3.5c-0.6-1-1.2-2.1-1.6-3.2c-0.6-1.7,0-3.3,0.4-4.9c0.1-0.6,0.7-1.1,1.4-1c0.4,0,0.8,0.1,1.2-0.2
			c1.3-1.2,3.1-1.4,4.7-0.6C135.6,267.7,135.7,267.6,135.9,267.6z"/>
		<polygon class="st27" points="141.2,272.5 150.3,268.4 150.3,271.2 141.2,275.3 		"/>
		<line class="st28" x1="143" y1="284.5" x2="149.4" y2="281.5"/>
		<line class="st28" x1="143" y1="287" x2="149.4" y2="284"/>
		<path class="st22" d="M165.5,457.7h-11.1c-0.4,0.9-1,1.7-1.7,2.3c-1,0.8-2,1.6-3,2.3c-1.3,1.2-2.8,2.2-4.4,3
			c-1.3,0.5-2.8,0.7-4,1.6c-1.5,1.2-1.9,3.2-2.3,5.1c5.2,1,10.6,0.9,15.7-0.4c0.8-0.2,1.6-0.5,2.4-0.6c1.4-0.3,2.8-0.4,4.2-0.5
			l4.6-0.3c0.3-2.1,0.3-4.3,0.1-6.4C165.7,461.7,165.5,459.7,165.5,457.7z"/>
		<path class="st29" d="M190.4,259.3c-5.9,8.4-5.5,20-2.1,29.3c0.3,0.8,1.7,0.5,1.4-0.4c-3.3-8.9-3.7-20.1,2-28.2
			C192.2,259.3,191,258.6,190.4,259.3L190.4,259.3z"/>
		<path class="st30" d="M586.4,240l-8.5-9.1c0,0-4.2,4.6-3.7,4.8l10.6,5L586.4,240z"/>
		<path class="st31" d="M594.4,231c-0.2-0.5-3.7-5.6-3.7-5.6l-5.7,14.2L594.4,231z"/>
		<polygon class="st27" points="597.9,230.8 594.4,225.9 585,239.6 		"/>
		<path class="st30" d="M600.5,232.3c-0.1-0.4-2.5-4.6-2.5-4.6l-13,11.9l3.5,1.7L600.5,232.3z"/>
		<polygon class="st22" points="573.5,235 585,239.4 593.9,261.5 584,258.7 		"/>
		<polygon class="st22" points="600.5,230.3 608.6,251.9 593.9,261.5 585,239.4 		"/>
		<path class="st22" d="M677.3,447.1c2.7-3.3,5.8-6.2,9.3-8.7c1.9,3.6,4,7,6.3,10.4c0.6,0.9,1.9,1.6,1.6,2.7c-0.4,1-1,1.8-1.7,2.6
			c-4.5,5.6-8.9,11.3-13.4,16.9c-1.5,1.9-2.9,1.6-3.8-0.7c-0.3-0.8-0.3-1.7,0-2.5c0.6-1.5,1.3-2.9,2.1-4.2c3.1-4.5,2.5-9.1,0.7-13.8
			C678.2,448.8,677.8,448,677.3,447.1z"/>
		<path class="st21" d="M629.8,458.1c0.1-4.5,0.5-9,0.2-13.5c-0.3-3.6-0.7-7.2-1-10.7c-0.9-8.8-2.4-17.5-2.8-26.3
			c-0.4-6.9-1.2-13.7-2.4-20.5c-0.9-5.5-1.5-11.1-2.3-16.7c-0.8-4.9-1.3-9.9-1.5-14.8c-0.3-6.7-0.3-13.3,1.1-19.9
			c0.2-0.9,0.8-1.5,1-2.3c1,0.2,2,0.4,3.1,0.6c3.8,0.7,7.7,1,11.4-0.6c3.5-1.4,6.7-3.3,9.5-5.8c1.5-1.6,3.4-2.8,5.4-3.3
			c0.8-0.1,1.5-0.8,1.5-1.7c0.7-3.6,1.8-7.1,3.4-10.4l17,2.2c-1.7,2.2-3.2,4.1-4.5,6s-3.1,3.6-4.1,5.8c3.9,2.2,6.7,5.9,7.9,10.2
			c0,0.1,0,0.3,0,0.4c1.8,6.2,1.1,12.6,0.7,18.9c-0.4,4.3-1.1,8.6-2,12.8c-2.1,10.6,0.6,20.2,5.5,29.5c2.2,4.1,4.7,8,6.3,12.4
			c0.9,2.4,1.6,4.8,2.2,7.3c0.7,2.6-0.1,5.4-2,7.2c-2.8,2.8-2.7,2.8-0.9,6.2c1,2.1,2.2,4,3.5,5.9c0.4,0.4,0.7,1,0.8,1.5
			c-3.5,2.5-6.6,5.4-9.3,8.7c-1.6-1.9-3-4-4.1-6.2c-1.4-2.5-2.9-4.8-4.7-7c-1.5-2-3-4.1-4.3-6.3c-2.8-4.3-5.9-8.5-9.3-12.4
			c-0.2-0.2-0.3-0.4-0.5-0.5c-0.5-0.3-0.9-0.2-1,0.4c0,0.3,0,0.7,0,1c0.2,4.7-0.2,9.4-0.5,14.1c-0.2,2.8-0.3,5.6-0.5,8.4
			c-0.1,1.2-0.3,2.5-0.6,3.7c-0.4,1.4-0.9,1.8-2.4,1.9l-4.7,0.3c-1.6,0.1-1.7,0.2-2,1.8c-0.2,2.1-0.3,4.3-0.2,6.5c0,1.7,0,3.4,0,5.1
			c-3.9-0.6-7.8-0.4-11.7,0.5C630.6,458.3,630.2,458.3,629.8,458.1z"/>
		<path class="st32" d="M654.1,317.8c-0.3,1.1-0.6,2.2-0.9,3.3C653.5,320,653.8,318.9,654.1,317.8z"/>
		<path class="st30" d="M656.3,312.1c-1.6,3.3-2.7,6.8-3.4,10.4c0,0.9-0.7,1.6-1.5,1.7c-2.1,0.6-4,1.8-5.4,3.3
			c-2.8,2.5-6,4.5-9.5,5.8c-3.7,1.6-7.5,1.3-11.4,0.6c-1-0.2-2-0.4-3.1-0.6l-0.6-0.5c1.6-4.3,2-8.8,2.3-13.3c1-12.5,2-25,3.2-37.5
			c0.3-4,1-7.9,2-11.8c1.1-4,2.3-7.9,3.4-11.9c1.4-5.5,4.2-10.5,8-14.7l1.1-0.4c0.8,1.6,2.1,2.8,3.2,4.2c0.7,0.7,1.6,1.2,2.5,1.4
			c2.8,0.5,5.7,0,8.1-1.5c3.2-1.6,6-4,8.2-6.9c-0.6,5.4-0.1,10.8,1.6,15.9c1.2,4.2,1.9,8.4,2.1,12.7c0.3,2.4-0.1,4.9-1,7.1
			c-1.6,4.1-4,7.8-7.1,11c-0.9,0.9-1.7,1.8-2.6,2.7c-3.8,4-5.2,8.8-5,14.2c0.1,2.6,1.2,5,3.2,6.7
			C655.3,311.3,655.8,311.7,656.3,312.1z"/>
		<path class="st33" d="M656.3,312.1c-0.5-0.4-1-0.8-1.5-1.3c-2-1.7-3.1-4.1-3.2-6.7c-0.2-5.4,1.2-10.2,5-14.2
			c0.8-0.9,1.7-1.9,2.6-2.7c3.1-3.2,5.5-6.9,7.1-11c0.9-2.3,1.3-4.7,1-7.1c-0.2-4.3-0.9-8.6-2.1-12.7c-1.7-5.1-2.2-10.5-1.6-15.9
			c0.4-1,0.7-2,0.9-3c0.6-0.3,1.3-0.4,1.9-0.4c4.4,0.4,8.7,0.7,12.9,2.1c3.5,1.2,6.4,3.8,7.9,7.2c1.5,3.4,2.4,6.9,2.7,10.6
			c0.4,3.4,0.5,6.8,0.3,10.2c-0.2,5.2-0.6,10.3-1.3,15.4c-0.6,4.8-2.2,9.4-3.2,14.1c-0.3,1.7-0.6,3.3-1,5c-0.5,2.3-1.5,4.5-2.8,6.4
			c-0.2,0.5-0.4,1-0.4,1.5c-0.1,1-0.5,1.9-1.1,2.7c-0.6,0.7-0.7,1.7-0.3,2.6c0.5,1.7,0.8,3.5,0.8,5.2c0,1,0.2,2.1,0.2,3.1
			c0.3,6.5-1.8,10.7-8.4,13.1c-1.1-4.3-4-8-7.9-10.2c1-2.2,2.8-3.9,4.1-5.8s2.9-3.8,4.5-6L656.3,312.1z"/>
		<path class="st33" d="M640.3,243.7c-3.8,4.2-6.6,9.3-8,14.8c-1.1,4-2.3,8-3.4,12c-1,3.9-1.7,7.9-2,11.9
			c-1.2,12.6-2.2,25.3-3.2,37.9c-0.4,4.5-0.8,9.1-2.3,13.4c-0.7,0-1.3-0.1-1.9-0.3c-1.1-0.1-2-0.9-2.3-1.9c-0.5-1.3-0.8-2.8-0.9-4.2
			c-0.3-4.5-0.3-9-0.5-13.4c-0.2-2.5-0.2-5,0.1-7.5c0.3-1.9-0.5-3.3-1.6-4.7c-1.9-2.6-4.2-4.9-6-7.6c-0.4-0.6-0.8-1.2-1-1.9
			c0.1-1,0.2-2.1,0.4-3.1c0.7-5.4,1.3-10.8,2.9-16.1c1.7,1.2,3.2,2.7,4.5,4.4c1.4,1.4,2.6,2.9,3.8,4.4c0.3-0.9,0.5-1.7,0.6-2.6
			c0-2.4,0.4-4.7,0.5-7.1c0.1-5,1.3-10,3.5-14.5c1.5-2.9,3.7-5.5,6.2-7.6c2.7-2.4,5.7-4.5,9-6C639.1,243.8,639.6,243.1,640.3,243.7z
			"/>
		<path class="st21" d="M609.5,271.3l-10.2-9.8c-0.5-0.5-1.2-0.8-1.2-1.5c0-1.9-1.2-3.7-3-4.5c-0.7-0.2-1-0.9-0.8-1.6
			c0-0.1,0.1-0.2,0.2-0.3c0.5-1,1-2,1.4-3c0.3-0.7,0.4-1.4-0.4-1.9c-0.8-0.4-1.2,0.1-1.7,0.6c-0.5,0.5-0.7,1.3-1.4,1.5
			c-0.5-0.6-0.3-1.2-0.1-1.7c0.3-0.8,0.5-1.6,0.7-2.4c0.1-0.7,0.4-1.5-0.5-1.9s-1.4,0.3-1.8,1c-0.3,0.9-0.8,1.7-1.5,2.5
			c-0.5-1.2,0.1-2.6-0.9-3.5c-1,2.2-1.8,4.5-2.5,6.9c-0.3,1.2-0.6,2.4-0.9,3.7c2.7,4.3,4.1,9.3,6.2,13.9c1.6,2.1,3.1,4.2,4.4,6.4
			c2.3,4,4.8,7.8,7.7,11.3c1.3,1.6,2.2,3.4,3.9,4.7c0.1-1,0.2-2.1,0.4-3.1c0.7-5.4,1.3-10.7,2.9-15.9
			C610.3,272.2,610,271.7,609.5,271.3z"/>
		<path class="st21" d="M661.9,237.5c-1.1,0.1-2.1-0.3-2.7-1.2c-1.2-1.3-2.2-2.7-3.1-4.3c-2.9-2.9-1.7-6.4-1.7-11.6
			c-0.1-0.2-1.8,3.8-1.9,3.6s0-0.1,0-0.1c-1-0.4-1.9-1-2.6-1.8c-0.4-0.5-0.8-1.1-1.1-1.7c-0.1,0.1-0.1,0.1-0.2,0.2
			c-0.9,0.4-1.8-0.5-2.5-1.1c-1.4-1.2-2.8-2.4-4-3.8c-0.3-0.6-1-0.7-1.6-0.4c-0.2,0.1-0.3,0.2-0.4,0.4c-1.2,1.3-2.5,2.5-3.7,3.8
			c-0.5,0.4-0.7,1-0.4,1.6c1.2,2.3,0.8,4.7,0.6,7.1c1.6,2.3,3.9,4.1,6.4,5.2c1.3,0.5,2.4,1.5,2.9,2.8c0.4,0.9,0.7,1.8,0.8,2.8
			c0.3,1.3,0.1,1.6-1.2,2.3c-1.5,0.5-2.9,1.2-4.2,2c0.8,1.6,2.1,2.8,3.2,4.2c0.7,0.7,1.6,1.2,2.5,1.4c2.8,0.5,5.7,0,8.1-1.5
			c3.2-1.6,6-4,8.2-6.9c0.4-1,0.7-2,0.9-3C663.6,237.4,662.7,237.5,661.9,237.5z"/>
		<path class="st22" d="M629.8,458.1c0.4,0.2,0.8,0.2,1.1,0.1c3.8-0.9,7.8-1.1,11.7-0.5c0,3.5,0,7.1,0,10.6c0,1.5,0,3,0,4.7
			c-2.3,0.2-4.7,0.3-7,0.5c-6.9,0.6-13.9,0.1-20.8,0.5c-0.8,0-1.6,0-2.3-0.1c-1.3-0.2-1.7-1.2-1.1-2.3c0.5-0.8,1.1-1.4,1.9-1.9
			c2.5-1.6,5.3-2.5,8-3.5c0.9-0.4,1.9-0.6,2.8-1C627.1,464,629.3,461.3,629.8,458.1z"/>
		<path class="st29" d="M686.3,417.5c-0.6-2.5-1.4-4.9-2.3-7.3c-1.7-4.4-4.4-8.3-6.6-12.4c-5.2-9.3-7.9-18.9-5.8-29.5
			c1-4.2,1.7-8.5,2.2-12.8c0.4-6.3,1.1-12.7-0.7-18.9c0-0.1,0-0.3,0-0.4c-1.3-4.4-4.2-8.1-8.3-10.2c-2.7,5.8-4.7,12.3-4.8,18.5
			c0,0.7-0.7,1.3-1.4,1.2c-0.2,0-0.4-0.1-0.6-0.2c-5.3-3.7-8.1-7.8-7.4-14.2c0.3-2.8,0.8-5.5,1.5-8.2c-0.3,0.5-0.8,0.9-1.4,0.9
			c-2.2,0.6-4.1,1.7-5.7,3.3c-2.9,2.5-6.3,4.5-9.9,5.8c-3.9,1.6-7.9,1.3-11.9,0.6c-1.1-0.2-2.2-0.4-3.2-0.6c-0.2,0.8-0.8,1.4-1,2.3
			c-1.5,6.6-1.4,13.3-1.2,19.9c0.3,5,0.8,9.9,1.6,14.8c0.8,5.6,1.5,11.2,2.4,16.7c1.2,6.8,2.1,13.6,2.5,20.5
			c0.4,8.8,2,17.5,2.9,26.3c0.3,3.1,0.7,6.2,0.9,9.2h0l0.1,1.5c0,0,24.4,1.2,25.3,1.8c1,0.6,0.9-31.2,0.9-31.2
			c3.5,3.9,6.8,8.1,9.7,12.4c1.4,2.2,3,4.3,4.5,6.3c0.8,1,1.6,2,2.3,3c3.8-2.8,7.4-5.8,10.8-9c0-0.9,0.7-1.6,2.3-3.1
			C686.3,423,687.1,420.1,686.3,417.5z"/>
		<path class="st24" d="M648.2,331.3c-0.2,1.9,0.2,3.8,1.2,5.4c0.9,1.7,2,3.3,3.2,4.8c1,1.4,2.3,2.7,3.7,3.8c1.7,1.1,3.4,2,5.3,2.7
			c0.8,0.3,1.2-1,0.4-1.3c-1.7-0.6-3.2-1.4-4.7-2.3c-1.3-1-2.5-2.2-3.5-3.5c-1-1.3-1.9-2.6-2.7-4c-1.1-1.5-1.6-3.3-1.5-5.2
			C649.7,330.7,648.4,330.4,648.2,331.3L648.2,331.3z"/>
		<path class="st24" d="M656.5,415.8c-4.2-5.7-8.4-11.4-11.7-17.7c-3.4-6.6-5.3-13.8-7.2-21c-0.1-0.4-0.5-0.6-0.9-0.4
			c-0.3,0.1-0.5,0.5-0.5,0.8c1.8,7.2,3.7,14.3,7.1,20.9c3.3,6.4,7.6,12.3,11.9,18.1C655.8,417.2,657,416.5,656.5,415.8L656.5,415.8z
			"/>
		<path class="st24" d="M638,377.9c-2.8-3.1-5.6-6.3-8.2-9.6c-0.3-0.3-0.7-0.3-1,0c0,0,0,0,0,0c-0.3,0.3-0.3,0.7,0,1
			c2.6,3.3,5.3,6.5,8.2,9.6C637.6,379.5,638.6,378.5,638,377.9z"/>
		<path class="st21" d="M645.8,213.2c-2.8,0.1-5.6,1.1-7.8,2.8c-2.2,1.8-3.4,4.5-3.3,7.3c0.1,1.1,0.4,2.1,0.8,3.1
			c1,2.5,2.8,4.5,5.1,5.7c2.4,1.2,5.2,1,7.4-0.6c1-0.9,1.7-2,2.2-3.2c1.3-3.4,0.8-7.6-2-10.1"/>
		<path class="st21" d="M655.6,219.6c0,3.2-1.8,5.7-4,5.7c-2.2,0-4-2.6-4-5.7s1.8-5.7,4-5.7S655.6,216.4,655.6,219.6z"/>
		<path class="st34" d="M653.8,211.6c-1.2-2.2-3.5-3.7-6.1-3.8c-1.2,0.1-2.4,0.5-3.5,1.1l0,0c-1.9,0.7-5.8,0.7-5.6,1.2
			s1.2,0.4,1.2,0.4c-1.8,0.5-4.4,0.5-4.1,1s1.2,0.5,1.2,0.5c-1.2,0.3-4.1,0.1-3.9,0.7c0.1,0.2,0.3,0.4,0.7,0.6
			c-3.5-0.2-1.8,1.2-1.8,1.2c4.2,3.6,10.3,4,14.9,0.9c-0.5,1.4-0.5,2.9,0,4.3c0.8,1.8,1.8,2.9,2,4.1l0.9-0.4c0,0,0.3-2.9,2.8-2.4
			c2.5,0.5,1.2,7,1.8,7s2.9-3.8,3.5-8.3C658.6,215.2,658.1,211.9,653.8,211.6z"/>
		<path class="st20" d="M158,218.4c-2.6,2-3.2,6.1-0.5,7.9c0.1,0,11.5-1.4,11.5,4.2c0,2.2-0.9,2.1,0.4,0.8c1-1,2.4-1.1,2.9,0.4
			c2,6.1-4.5,6.7-5.4,3.9c-9.5,10.3,17.4,17.2,14-4.9C179.1,219.8,163.6,214,158,218.4L158,218.4z"/>
	</g>
</g>
</svg>
