<?xml version="1.0" encoding="utf-8"?>
<!-- Generator: Adobe Illustrator 24.0.2, SVG Export Plug-In . SVG Version: 6.00 Build 0)  -->
<svg version="1.1" id="Layer_1" xmlns="http://www.w3.org/2000/svg" xmlns:xlink="http://www.w3.org/1999/xlink" x="0px" y="0px"
	 viewBox="0 0 868.6 500.6" style="enable-background:new 0 0 868.6 500.6;" xml:space="preserve">
<style type="text/css">
	.st0{fill:url(#SVGID_1_);}
	.st1{fill:#108594;}
	.st2{fill:url(#SVGID_2_);}
	.st3{fill:url(#SVGID_3_);}
	.st4{fill:url(#SVGID_4_);}
	.st5{fill:url(#SVGID_5_);}
	.st6{fill:url(#SVGID_6_);}
	.st7{fill:url(#SVGID_7_);}
	.st8{fill:url(#SVGID_8_);}
	.st9{fill:#F1F1F1;}
	.st10{fill:url(#SVGID_9_);}
	.st11{fill:url(#SVGID_10_);}
	.st12{fill:url(#SVGID_11_);}
	.st13{fill:url(#SVGID_12_);}
	.st14{fill:url(#SVGID_13_);}
	.st15{fill:url(#SVGID_14_);}
	.st16{fill:#5B5B5B;}
	.st17{fill:#EE9849;}
	.st18{fill:#C1C1C1;}
	.st19{fill:#D86713;}
	.st20{fill:#F1A34F;}
	.st21{opacity:0.4;fill:#D86713;enable-background:new    ;}
	.st22{fill:#E9F3FE;}
	.st23{fill:#AFCDFB;}
	.st24{fill:#ED7423;}
	.st25{fill:#65BC56;}
	.st26{fill:#85C455;}
	.st27{fill:#8D9194;}
	.st28{fill:#ADAFAE;}
	.st29{fill:#213364;}
	.st30{fill:#354E84;}
	.st31{fill:#F58632;}
	.st32{fill:#FAB47E;}
	.st33{fill:#0EAAE1;}
	.st34{fill:#46BDE7;}
	.st35{fill:#F05545;}
	.st36{fill:#D43928;}
	.st37{fill:#652D90;}
	.st38{fill:#7651A0;}
	.st39{fill:#FCB833;}
	.st40{fill:#FFC85F;}
	.st41{fill:#148BAE;}
	.st42{fill:#4FC5DE;}
	.st43{fill:#0080A2;}
	.st44{fill:#0EABDF;}
	.st45{fill:#D4CECC;}
	.st46{fill:#BBB7B1;}
	.st47{fill:#9A9393;}
	.st48{fill:#006A32;}
	.st49{fill:#1CAC4B;}
	.st50{fill:#C44F1C;}
	.st51{fill:#FAAF5D;}
	.st52{fill:#3F8941;}
	.st53{fill:#2D2D2D;}
	.st54{fill:#11393D;}
	.st55{fill:#499B4D;}
	.st56{fill:#EF6E4B;}
	.st57{fill:#346B34;}
	.st58{fill:#E3E4E5;}
	.st59{fill:#6097B2;}
	.st60{fill:#8BBDDB;}
	.st61{fill:#FF8B66;}
	.st62{fill:#2B2B2B;}
	.st63{fill:#FFB27D;}
	.st64{fill:#838689;}
	.st65{fill:#0E3133;}
	.st66{fill:#FCA56B;}
	.st67{fill:#1E1E1E;}
</style>
<title>people studying online</title>
<g>
	<g id="Layer_1_1_">
		
			<linearGradient id="SVGID_1_" gradientUnits="userSpaceOnUse" x1="851.4387" y1="-70.4631" x2="939.1646" y2="-70.4631" gradientTransform="matrix(1 0 0 -1 -166.97 157.9)">
			<stop  offset="1.000000e-02" style="stop-color:#1B92A4"/>
			<stop  offset="0.4" style="stop-color:#45AEA7"/>
			<stop  offset="1" style="stop-color:#83D6AB"/>
		</linearGradient>
		<path class="st0" d="M684.5,227.6c0.2-6.8,3.2-14,9.9-17.8c8.1-4.6,16.7-0.4,24.8,2.8c-2.4-5.3-9.5-6.8-14.5-9.7
			c21.7-12.3,49.8-9.5,49.8-9.5s16.6,16.9,17.4,24.8c-4.7-1-9.3-2.3-14.2-2.8c4.7,1.5,11.8,7.6,14,13.2c1.9,4.7-2.1,13-4.7,17.5
			c-5.1,8.8-22,25.3-33.7,13.7c-9.8-9.7-5.4-23.1-25.2-18.9C693.3,243.9,684.1,243.6,684.5,227.6z"/>
		<path class="st1" d="M698.4,326.6c-0.9-23.2-1.6-47,6.2-69.5c3.1-8.8,7.1-17.2,12-25.1c-2.2-1.2-4.1-3.1-6.2-4.2
			c-3.6-1.8-7.5-3.1-11.5-3.7c-1.3-0.2-0.7-2,0.6-1.7c3.5,0.6,6.9,1.6,10.2,3c1.5,0.7,3,1.5,4.5,2.4c1.1,0.7,2.3,1.8,3.6,2.6
			c0.9-1.3,1.8-2.7,2.7-4c0.3-0.5,0.7-0.9,1.1-1.3c-3-3.9-6.8-7.2-11-9.8c-1.1-0.7,0-2.2,1.1-1.5c4.3,2.6,8,5.9,11.2,9.7
			c2.5-2.9,5.2-5.6,8.1-8.2c-1.6-4.2-3.8-8.2-6.7-11.7c-0.8-1,1.1-1.8,1.8-0.9c2.7,3.4,4.8,7.2,6.4,11.2c3-2.6,6.1-5.1,9.1-7.5
			c-1.4-2.5-2.8-5.1-4-7.7c-0.5-1.1,1.3-2,1.8-0.9c1.2,2.5,2.4,4.9,3.8,7.3c1.8-1.5,3.6-2.9,5.3-4.4c1-0.8,2.4,0.5,1.5,1.3
			c-1.6,1.4-3.2,2.7-4.9,4.1l12,0.6c0.5,0,0.9,0.3,1,0.8c0,0.5-0.3,0.9-0.8,1c-0.1,0-0.1,0-0.2,0l-13-0.7c-0.3,0-0.5-0.1-0.7-0.3
			c-3,2.4-6,4.8-8.9,7.3c3.8,0.2,7.6,0.7,11.4,1.5c3.4,0.7,6.8,1.2,9.4,3.2c1,0.8-0.5,2-1.5,1.3c-2.5-2-6.6-2.4-9.8-3
			c-3.7-0.7-7.4-1.1-11.1-1.2c-0.1,0-0.2,0-0.3,0c-2.5,2.2-5,4.6-7.2,7.2c10.4,0.9,20.8,2.6,28.8,9c1,0.8-0.5,2-1.5,1.3
			c-7.9-6.3-18.4-7.7-28.7-8.5c-0.8,1-1.7,2.1-2.4,3.2c-0.6,0.8-1.1,1.6-1.6,2.5c5,1,10.4,1.7,14.9,4.1c3.7,2,6.9,4.8,9.5,8.2
			c0.8,0.9-1,1.8-1.8,0.9c-2.6-3.4-6-6.1-9.9-8c-4.2-1.9-9.2-2.5-13.8-3.4l0,0c-5.5,8.7-9.8,18-13,27.8c-6.8,21.5-6,44.1-5.2,66.2
			C700.5,327.8,698.4,327.7,698.4,326.6z"/>
		
			<linearGradient id="SVGID_2_" gradientUnits="userSpaceOnUse" x1="801.6417" y1="-93.9126" x2="872.2988" y2="-93.9126" gradientTransform="matrix(1 0 0 -1 -166.97 157.9)">
			<stop  offset="1.000000e-02" style="stop-color:#1B92A4"/>
			<stop  offset="0.4" style="stop-color:#45AEA7"/>
			<stop  offset="1" style="stop-color:#83D6AB"/>
		</linearGradient>
		<path class="st2" d="M705.3,251.2c-0.1-5.5-2.6-11.3-8-14.3c-6.5-3.7-13.4-0.3-19.9,2.3c1.9-4.3,7.7-5.5,11.7-7.8
			c-17.5-9.9-40.1-7.7-40.1-7.7s-13.4,13.6-14,20c3.8-0.8,7.5-1.9,11.4-2.3c-3.8,1.2-9.5,6.1-11.3,10.6c-1.5,3.8,1.7,10.5,3.8,14.1
			c4.1,7.1,17.7,20.4,27.1,11c7.8-7.8,4.4-18.6,20.3-15.2C698.2,264.3,705.6,264.1,705.3,251.2z"/>
		<path class="st1" d="M694.1,330.8c0.7-18.7,1.3-37.9-5-56c-2.5-7.1-5.7-13.9-9.7-20.2c1.8-0.9,3.3-2.5,5-3.3c2.9-1.5,6-2.5,9.3-3
			c1.1-0.2,0.6-1.6-0.5-1.4c-2.8,0.5-5.6,1.3-8.2,2.4c-1.2,0.6-2.4,1.2-3.6,1.9c-0.9,0.5-1.8,1.5-2.9,2.1c-0.7-1.1-1.4-2.2-2.2-3.2
			c-0.3-0.4-0.6-0.7-0.8-1.1c2.4-3.1,5.5-5.8,8.9-7.8c0.9-0.5,0-1.8-0.9-1.3c-3.4,2.1-6.5,4.7-9,7.8c-2-2.3-4.2-4.5-6.5-6.6
			c1.3-3.4,3.1-6.6,5.4-9.4c0.6-0.8-0.9-1.5-1.5-0.7c-2.2,2.7-3.9,5.8-5.2,9c-2.4-2.1-4.9-4.1-7.3-6.1c1.2-2,2.3-4.1,3.3-6.2
			c0.4-0.9-1.1-1.6-1.5-0.7c-0.9,2-2,3.9-3.1,5.8c-1.4-1.2-2.9-2.4-4.2-3.5c-0.8-0.7-1.9,0.4-1.2,1.1c1.3,1.1,2.6,2.2,3.9,3.3
			l-9.7,0.5c-0.4,0-0.7,0.3-0.7,0.7c0,0.4,0.3,0.7,0.7,0.7l10.5-0.6c0.2,0,0.4-0.1,0.6-0.3c2.4,1.9,4.8,3.9,7.1,5.9
			c-3.1,0.2-6.1,0.5-9.2,1.2c-2.7,0.5-5.5,0.9-7.6,2.6c-0.8,0.6,0.4,1.7,1.2,1c2-1.6,5.3-1.9,7.9-2.4c2.9-0.6,5.9-0.9,8.9-1
			c0.1,0,0.1,0,0.2,0c2,1.8,4,3.7,5.8,5.8c-8.4,0.7-16.7,2.1-23.2,7.2c-0.8,0.6,0.4,1.6,1.2,1c6.4-5.1,14.8-6.2,23.1-6.9
			c0.7,0.8,1.3,1.7,1.9,2.6c0.4,0.7,0.9,1.3,1.3,2c-4.1,0.8-8.4,1.4-12,3.3c-3,1.6-5.6,3.9-7.7,6.6c-0.6,0.8,0.8,1.5,1.5,0.7
			c2.1-2.7,4.9-5,8-6.5c3.4-1.5,7.4-2,11.1-2.8l0,0c4.4,7,7.9,14.5,10.5,22.4c5.5,17.3,4.8,35.5,4.2,53.3
			C692.4,331.8,694.1,331.8,694.1,330.8z"/>
		
			<linearGradient id="SVGID_3_" gradientUnits="userSpaceOnUse" x1="874.5261" y1="-104.362" x2="949.3378" y2="-104.362" gradientTransform="matrix(1 0 0 -1 -166.97 157.9)">
			<stop  offset="1.000000e-02" style="stop-color:#1B92A4"/>
			<stop  offset="0.4" style="stop-color:#45AEA7"/>
			<stop  offset="1" style="stop-color:#83D6AB"/>
		</linearGradient>
		<path class="st3" d="M708.6,252c1.7-5.5,5.8-10.9,12.2-12.9c7.7-2.3,13.7,2.5,19.6,6.6c-0.7-4.8-6.3-7.2-9.6-10.5
			c20.6-6.3,42.9,0.8,42.9,0.8s9.7,16.7,8.5,23.3c-3.6-1.6-7.1-3.5-10.9-4.8c3.5,2,7.9,8.3,8.4,13.2c0.5,4.2-4.7,10.3-7.8,13.5
			c-6.2,6.3-23.8,16.9-30.7,5.4c-5.8-9.6,0.8-19.8-16.3-19.8C712.1,266.9,704.7,265.1,708.6,252z"/>
		<path class="st1" d="M697.4,335.4c4.6-19.2,9.4-38.8,20.9-55.8c4.5-6.7,9.8-12.9,15.6-18.5c-1.5-1.3-2.7-3.2-4.2-4.5
			c-2.6-2.1-5.5-3.8-8.6-5c-1-0.4-0.1-1.7,0.9-1.3c2.7,1.1,5.3,2.5,7.6,4.2c1.1,0.8,2.1,1.7,3.1,2.7c0.7,0.7,1.5,1.9,2.3,2.7
			c1-1,2.1-1.9,3.1-2.8c0.4-0.3,0.8-0.6,1.2-0.9c-1.6-3.7-3.9-7.1-6.8-9.9c-0.8-0.7,0.5-1.8,1.2-1.1c2.9,2.8,5.2,6.2,6.9,9.9
			c2.7-1.9,5.5-3.7,8.5-5.3c-0.3-3.7-1.3-7.3-2.8-10.7c-0.4-0.9,1.3-1.3,1.7-0.4c1.4,3.3,2.3,6.7,2.7,10.3c3-1.6,6.1-3.1,9.2-4.6
			c-0.6-2.3-1.1-4.6-1.5-7c-0.2-1,1.5-1.4,1.7-0.4c0.4,2.2,0.9,4.4,1.5,6.6c1.8-0.9,3.6-1.8,5.3-2.7c1-0.5,1.8,0.8,0.9,1.3
			c-1.6,0.8-3.3,1.7-4.9,2.5l9.7,2.6c0.4,0.1,0.6,0.6,0.5,1s-0.6,0.6-1,0.5l0,0l-10.5-2.8c-0.2,0-0.4-0.2-0.5-0.4
			c-3,1.5-6,2.9-8.9,4.5c3.1,0.8,6.1,1.9,9,3.2c2.6,1.1,5.3,2.1,6.9,4.3c0.6,0.8-0.9,1.6-1.5,0.8c-1.6-2.1-4.8-3.1-7.3-4.2
			c-2.8-1.2-5.8-2.2-8.8-2.9c-0.1,0-0.1,0-0.2-0.1c-2.6,1.4-5.1,2.9-7.5,4.6c8.3,2.6,16.4,5.7,21.5,12.3c0.6,0.8-0.9,1.6-1.5,0.8
			c-5-6.5-13.3-9.5-21.6-12c-0.9,0.7-1.8,1.5-2.7,2.2c-0.6,0.6-1.2,1.2-1.9,1.7c3.9,1.7,8.1,3.2,11.3,5.9c2.6,2.3,4.6,5.1,5.9,8.3
			c0.4,0.9-1.3,1.3-1.7,0.4c-1.4-3.2-3.5-6.1-6.3-8.3c-3-2.3-6.9-3.6-10.5-5.2l0,0c-6.4,6.2-12.1,13-17,20.5
			c-10.5,16.4-15,35-19.3,53.2C698.9,336.8,697.2,336.4,697.4,335.4z"/>
		
			<linearGradient id="SVGID_4_" gradientUnits="userSpaceOnUse" x1="855.1339" y1="-117.7834" x2="905.2346" y2="-117.7834" gradientTransform="matrix(1 0 0 -1 -166.97 157.9)">
			<stop  offset="1.000000e-02" style="stop-color:#1B92A4"/>
			<stop  offset="0.4" style="stop-color:#45AEA7"/>
			<stop  offset="1" style="stop-color:#83D6AB"/>
		</linearGradient>
		<path class="st4" d="M688.2,275.2c0-4.1,2.1-8,5.7-10.2c4.6-2.6,9.5-0.3,14.2,1.6c-1.4-3-5.5-3.9-8.3-5.6
			c12.4-7,28.4-5.4,28.4-5.4s9.5,9.6,9.9,14.2c-2.7-0.5-5.3-1.3-8.1-1.6c3.5,1.5,6.3,4.1,8,7.5c1.1,2.7-1.2,7.5-2.7,10
			c-2.9,5-12.6,14.5-19.2,7.8c-5.6-5.5-3.1-13.2-14.4-10.8C693.2,284.6,688,284.4,688.2,275.2z"/>
		<path class="st1" d="M696.1,331.7c-0.5-13.3-0.9-26.9,3.5-39.7c1.8-5,4.1-9.8,6.9-14.4c-1.3-0.7-2.3-1.7-3.6-2.4
			c-2.1-1-4.3-1.8-6.6-2.1c-0.8-0.1-0.4-1.1,0.3-1c2,0.3,3.9,0.9,5.8,1.7c0.9,0.4,1.7,0.8,2.6,1.4c0.6,0.4,1.3,1,2,1.5
			c0.5-0.8,1-1.5,1.6-2.3c0.2-0.3,0.4-0.5,0.6-0.8c-1.7-2.2-3.9-4.1-6.3-5.6c-0.6-0.4,0-1.3,0.6-0.9c2.4,1.5,4.6,3.3,6.4,5.5
			c1.4-1.7,3-3.2,4.6-4.7c-0.9-2.4-2.2-4.7-3.8-6.7c-0.4-0.5,0.6-1,1-0.5c1.5,1.9,2.8,4.1,3.7,6.4c1.7-1.5,3.5-2.9,5.2-4.3
			c-0.8-1.4-1.6-2.9-2.3-4.4c-0.3-0.6,0.8-1.1,1-0.5c0.7,1.4,1.4,2.8,2.2,4.1c1-0.8,2-1.7,3-2.5c0.5-0.5,1.4,0.3,0.8,0.7
			c-0.9,0.8-1.8,1.6-2.8,2.3l6.9,0.4c0.3-0.1,0.6,0.1,0.6,0.4c0.1,0.3-0.1,0.6-0.4,0.6c-0.1,0-0.2,0-0.3,0l-7.4-0.4
			c-0.2,0-0.3-0.1-0.4-0.2c-1.7,1.4-3.4,2.8-5.1,4.2c2.2,0.1,4.4,0.4,6.5,0.8c1.9,0.4,3.9,0.7,5.4,1.8c0.6,0.5-0.3,1.2-0.9,0.7
			c-1.4-1.2-3.8-1.4-5.6-1.7c-2.1-0.4-4.2-0.7-6.3-0.7c0,0-0.1,0-0.2,0c-1.5,1.3-2.8,2.7-4.1,4.1c6,0.5,11.9,1.5,16.4,5.1
			c0.6,0.5-0.3,1.2-0.8,0.7c-4.5-3.6-10.5-4.4-16.4-4.9c-0.5,0.6-0.9,1.2-1.4,1.8c-0.3,0.5-0.6,0.9-0.9,1.4c2.9,0.6,6,1,8.5,2.3
			c2.1,1.2,3.9,2.7,5.4,4.7c0.5,0.5-0.6,1-1,0.5c-1.5-1.9-3.4-3.5-5.6-4.6c-2.4-1.1-5.2-1.4-7.8-2l0,0c-3.1,5-5.6,10.3-7.4,15.9
			c-3.9,12.3-3.4,25.2-2.9,37.8C697.3,332.4,696.2,332.4,696.1,331.7z"/>
		
			<linearGradient id="SVGID_5_" gradientUnits="userSpaceOnUse" x1="826.7101" y1="-131.1395" x2="867.0549" y2="-131.1395" gradientTransform="matrix(1 0 0 -1 -166.97 157.9)">
			<stop  offset="1.000000e-02" style="stop-color:#1B92A4"/>
			<stop  offset="0.4" style="stop-color:#45AEA7"/>
			<stop  offset="1" style="stop-color:#83D6AB"/>
		</linearGradient>
		<path class="st5" d="M700.1,288.7c0-3.3-1.7-6.5-4.6-8.2c-3.7-2.1-7.7-0.2-11.4,1.3c1.1-2.4,4.4-3.1,6.7-4.5
			c-10-5.7-22.9-4.4-22.9-4.4s-7.6,7.8-8,11.4c2.1-0.5,4.3-1,6.5-1.3c-2.8,1.2-5.1,3.3-6.4,6.1c-0.9,2.2,1,6,2.2,8
			c2.3,4,10.1,11.6,15.5,6.3c4.5-4.5,2.5-10.6,11.6-8.7C696,296.2,700.3,296.1,700.1,288.7z"/>
		<path class="st1" d="M693.7,334.2c0.4-10.7,0.8-21.6-2.9-32c-1.4-4-3.3-7.9-5.5-11.5c1-0.5,1.9-1.4,2.9-1.9
			c1.7-0.8,3.5-1.4,5.3-1.7c0.6-0.1,0.3-0.9-0.3-0.8c-1.6,0.3-3.2,0.7-4.7,1.4c-0.7,0.3-1.4,0.7-2.1,1.1c-0.5,0.3-1.1,0.8-1.6,1.2
			c-0.4-0.6-0.8-1.2-1.3-1.8c-0.2-0.2-0.3-0.4-0.5-0.6c1.4-1.8,3.1-3.3,5.1-4.5c0.5-0.3,0-1-0.5-0.7c-2,1.2-3.7,2.7-5.1,4.5
			c-1.2-1.3-2.4-2.6-3.7-3.8c0.7-1.9,1.8-3.8,3.1-5.4c0.3-0.4-0.5-0.8-0.8-0.4c-1.2,1.6-2.3,3.3-3,5.1c-1.4-1.2-2.8-2.3-4.2-3.5
			c0.7-1.2,1.3-2.3,1.9-3.5c0.2-0.5-0.6-0.9-0.8-0.4c-0.5,1.1-1.1,2.2-1.8,3.3c-0.8-0.7-1.6-1.3-2.4-2c-0.4-0.4-1.1,0.2-0.7,0.6
			c0.7,0.6,1.5,1.3,2.2,1.9l-5.5,0.3c-0.2,0-0.4,0.1-0.5,0.4s0.1,0.4,0.4,0.5c0,0,0.1,0,0.1,0l6-0.3c0.1,0,0.3,0,0.3-0.1
			c1.3,1.1,2.7,2.2,4.1,3.4c-1.8,0.1-3.5,0.3-5.2,0.7c-1.5,0.1-3,0.7-4.3,1.5c-0.5,0.4,0.2,0.9,0.7,0.6c1.2-0.9,3-1.1,4.5-1.4
			c1.7-0.3,3.4-0.5,5.1-0.5h0.1c1.2,1,2.3,2.1,3.3,3.3c-4.8,0.4-9.5,1.2-13.2,4.1c-0.5,0.4,0.2,0.9,0.7,0.6
			c3.6-2.9,8.5-3.5,13.2-3.9c0.4,0.5,0.8,1,1.1,1.5s0.5,0.8,0.7,1.1c-2.3,0.5-4.8,0.8-6.9,1.9c-1.7,0.9-3.2,2.2-4.4,3.7
			c-0.4,0.4,0.5,0.8,0.8,0.4c1.2-1.6,2.8-2.8,4.5-3.7c2-0.8,4.2-1.3,6.3-1.6l0,0c2.5,4,4.5,8.3,6,12.8c3.1,9.9,2.8,20.3,2.4,30.4
			C692.7,334.7,693.7,334.7,693.7,334.2z"/>
		
			<linearGradient id="SVGID_6_" gradientUnits="userSpaceOnUse" x1="868.3234" y1="-137.1039" x2="911.0861" y2="-137.1039" gradientTransform="matrix(1 0 0 -1 -166.97 157.9)">
			<stop  offset="1.000000e-02" style="stop-color:#1B92A4"/>
			<stop  offset="0.4" style="stop-color:#45AEA7"/>
			<stop  offset="1" style="stop-color:#83D6AB"/>
		</linearGradient>
		<path class="st6" d="M702,289.2c1-3.5,3.6-6.2,7-7.3c4.4-1.3,7.8,1.4,11.2,3.8c-0.4-2.7-3.6-4.1-5.5-6c11.8-3.6,24.5,0.5,24.5,0.5
			s5.6,9.5,4.9,13.3c-2-1-4.1-1.9-6.2-2.7c2.5,1.8,4.2,4.5,4.8,7.5c0.3,2.4-2.7,5.9-4.5,7.7c-3.5,3.6-13.6,9.7-17.5,3.1
			c-3.3-5.5,0.5-11.3-9.3-11.3C704,297.7,699.7,296.7,702,289.2z"/>
		<path class="st1" d="M695.6,336.8c2.6-10.9,5.4-22.1,12-31.9c2.6-3.8,5.6-7.4,8.9-10.6c-0.9-0.8-1.5-1.8-2.4-2.6
			c-1.5-1.2-3.1-2.2-4.9-2.9c-0.6-0.2-0.1-1,0.5-0.8c1.6,0.6,3,1.4,4.3,2.4c0.6,0.5,1.2,1,1.8,1.5c0.4,0.4,0.8,1.1,1.3,1.6
			c0.6-0.5,1.2-1.1,1.8-1.6l0.7-0.5c-0.9-2.1-2.2-4-3.9-5.6c-0.4-0.4,0.3-1,0.7-0.6c1.7,1.6,3,3.5,4,5.7c1.5-1.1,3.2-2.1,4.8-3
			c-0.2-2.1-0.7-4.2-1.6-6.1c-0.2-0.5,0.7-0.8,1-0.2c0.8,1.9,1.3,3.8,1.5,5.9c1.7-0.9,3.5-1.8,5.2-2.6c-0.3-1.3-0.7-2.7-0.9-4
			c-0.1-0.5,0.9-0.8,1-0.2c0.2,1.3,0.5,2.5,0.8,3.8c1-0.5,2-1,3-1.5c0.5-0.3,1,0.5,0.5,0.8c-0.9,0.5-1.8,1-2.8,1.4l5.5,1.5
			c0.2,0.1,0.4,0.3,0.3,0.6c-0.1,0.2-0.3,0.4-0.6,0.3l0,0l-6-1.6c-0.1,0-0.2-0.1-0.3-0.2c-1.7,0.8-3.4,1.7-5.1,2.6
			c1.7,0.5,3.4,1.1,5,1.8c1.5,0.7,3,1.2,4,2.4c0.4,0.5-0.5,0.9-0.9,0.4c-0.9-1.2-2.8-1.8-4.2-2.4c-1.6-0.7-3.3-1.3-5-1.7h-0.1
			c-1.5,0.8-2.9,1.7-4.3,2.6c4.8,1.5,9.4,3.3,12.3,7c0.4,0.5-0.5,0.9-0.9,0.4c-2.9-3.7-7.6-5.4-12.3-6.8c-0.5,0.4-1.1,0.8-1.5,1.3
			l-1.1,1c2.2,1,4.7,1.8,6.5,3.4c1.5,1.3,2.6,2.9,3.4,4.8c0.3,0.5-0.7,0.7-1,0.2c-0.8-1.8-2-3.5-3.6-4.7c-1.9-1.2-3.9-2.2-6-3l0,0
			c-3.7,3.5-6.9,7.4-9.7,11.7c-6,9.4-8.5,20-11,30.4C696.4,337.6,695.4,337.3,695.6,336.8z"/>
		
			<linearGradient id="SVGID_7_" gradientUnits="userSpaceOnUse" x1="831.5163" y1="-152.108" x2="858.2424" y2="-152.108" gradientTransform="matrix(1 0 0 -1 -166.97 157.9)">
			<stop  offset="1.000000e-02" style="stop-color:#1B92A4"/>
			<stop  offset="0.4" style="stop-color:#45AEA7"/>
			<stop  offset="1" style="stop-color:#83D6AB"/>
		</linearGradient>
		<path class="st7" d="M690.9,306.4c-0.6-2.2-2.2-3.9-4.3-4.6c-2.8-0.8-4.9,0.9-7,2.3c0.3-1.7,2.2-2.6,3.4-3.7
			c-7.4-2.3-15.3,0.3-15.3,0.3s-3.5,6-3.1,8.3c1.3-0.6,2.6-1.2,3.9-1.7c-1.6,1.1-2.6,2.8-3,4.7c-0.2,1.5,1.7,3.7,2.8,4.8
			c2.2,2.3,8.5,6,11,1.9c2.1-3.4-0.3-7.1,5.8-7.1C689.6,311.7,692.3,311,690.9,306.4z"/>
		<path class="st1" d="M694.9,336.2c-1.6-6.8-3.4-13.9-7.5-20c-1.6-2.4-3.5-4.6-5.6-6.6c0.6-0.5,1-1.2,1.5-1.6
			c0.9-0.8,1.9-1.4,3.1-1.8c0.4-0.2,0-0.6-0.3-0.5c-1,0.4-1.9,0.9-2.7,1.5c-0.4,0.3-0.8,0.6-1.1,1c-0.3,0.3-0.5,0.7-0.8,1
			c-0.4-0.3-0.7-0.7-1.1-1c-0.1-0.1-0.3-0.2-0.4-0.3c0.6-1.3,1.4-2.5,2.4-3.5c0.3-0.3-0.2-0.7-0.5-0.4c-1,1-1.9,2.2-2.5,3.5
			c-1-0.7-2-1.3-3-1.9c0.1-1.3,0.5-2.6,1-3.8c0.1-0.3-0.5-0.5-0.6-0.1c-0.5,1.2-0.9,2.4-1,3.7c-1.1-0.6-2.2-1.1-3.3-1.6
			c0.2-0.8,0.4-1.7,0.6-2.5c0.1-0.3-0.5-0.5-0.6-0.1c-0.1,0.8-0.3,1.6-0.5,2.4c-0.7-0.3-1.3-0.6-1.9-1c-0.3-0.2-0.7,0.3-0.3,0.5
			c0.6,0.3,1.2,0.6,1.8,0.9l-3.5,0.9c-0.2,0-0.2,0.2-0.2,0.3c0,0.2,0.2,0.2,0.3,0.2c0,0,0,0,0.1,0l3.7-1c0.1,0,0.2-0.1,0.2-0.1
			c1.1,0.5,2.1,1,3.2,1.6c-1.1,0.3-2.2,0.7-3.2,1.1c-0.9,0.3-1.8,0.8-2.5,1.5c-0.2,0.3,0.3,0.6,0.5,0.3c0.7-0.7,1.6-1.2,2.6-1.5
			c1-0.4,2.1-0.8,3.2-1h0.1c0.9,0.5,1.8,1.1,2.7,1.7c-3,0.9-5.9,2-7.7,4.4c-0.2,0.3,0.3,0.6,0.5,0.3c1.8-2.3,4.8-3.4,7.7-4.3
			c0.3,0.3,0.7,0.5,1,0.8l0.7,0.6c-1.4,0.5-2.8,1.2-4,2.1c-0.9,0.8-1.6,1.9-2.1,3c-0.2,0.3,0.5,0.5,0.6,0.2c0.5-1.2,1.2-2.2,2.2-3
			c1.2-0.8,2.4-1.4,3.7-1.8l0,0c2.3,2.2,4.3,4.7,6.1,7.3c3.7,5.9,5.3,12.5,6.9,19C694.4,336.7,695,336.5,694.9,336.2z"/>
		
			<linearGradient id="SVGID_8_" gradientUnits="userSpaceOnUse" x1="837.06" y1="-245.04" x2="889.6" y2="-245.04" gradientTransform="matrix(1 0 0 -1 -166.97 157.9)">
			<stop  offset="0.36" style="stop-color:#D4DFF2"/>
			<stop  offset="0.45" style="stop-color:#C4DAF0"/>
			<stop  offset="0.62" style="stop-color:#9BCDEC"/>
			<stop  offset="0.85" style="stop-color:#5AB7E5"/>
			<stop  offset="1" style="stop-color:#2EA9E0"/>
		</linearGradient>
		<path class="st8" d="M723,415.7c0-18.7-3.9-35.4-10-46.2c-6.7-12-10.1-25.5-10-39.3h-12.5c0.1,13.7-3.4,27.3-10.1,39.3
			c-6.1,10.8-10,27.5-10,46.2c0,25.9,7.5,47.9,17.8,55.8v4.2h16.8v-4.2C715.6,463.6,723,441.6,723,415.7z"/>
		<path id="shadow" class="st9" d="M810.5,473.6c-4.6,0-9.1,0.1-13.3,0.2c-22.3-6.3-158.6-11.2-323.5-11.2
			c-180.4,0-326.7,5.8-326.7,13c0,0.6,1,1.2,3,1.7c-40.3,2.4-66.2,6.1-66.2,10.3c0,7.2,76.2,13,170.2,13
			c90.4,0,164.4-5.4,169.9-12.2c16.3,0.1,32.9,0.2,49.8,0.2c118.1,0,221.6-2.5,279-6.2c2.7,4.1,27.6,7.3,57.8,7.3
			c32.1,0,58.1-3.6,58.1-8S842.6,473.6,810.5,473.6z"/>
		
			<linearGradient id="SVGID_9_" gradientUnits="userSpaceOnUse" x1="887.5007" y1="-166.8741" x2="1067.9307" y2="-187.4941" gradientTransform="matrix(1 0 0 -1 -166.97 157.9)">
			<stop  offset="1.000000e-02" style="stop-color:#1B92A4"/>
			<stop  offset="0.4" style="stop-color:#45AEA7"/>
			<stop  offset="1" style="stop-color:#83D6AB"/>
		</linearGradient>
		<path class="st10" d="M860.8,298.6c-3.3-1.5-21.8-1.1-30.1-0.9c-2.6,0.1-5,1.3-6.5,3.4c-2.6,3.3-5.3,6.5-8.3,9.5
			c0.6-4.7,1.5-9.5,1.8-14.4c-4.2-0.8-8.9-0.5-13.1-1.1c-4.4-0.6-8.9-1-13.3-0.9c-4,0.1-9.9-0.7-12.6,2.1c-2.7,2.8-5.7,8.1-7.9,11.5
			c-0.1-3,0.8-6.3,1.4-9.3c1.1-5.5,0.2-5-5.1-6.1c-6.3-1.4-12.8-2.1-19.3-2.1c-7.9,0.1-15.8,0.8-23.5,2.3c-4.6,0.8-4.4,0.4-6.1,5.2
			c-1.1,3.2-2.7,6.6-4.2,9.7c-4.1-2.1-4.3-10.6-4.5-14.8c-10-0.1-20.5,11.5-27.3,18.5c-1.3,1.4-14.2,15.7-14.9,16.4
			c-7.2,8-4.5,21.3,5.1,25.4c5,2.2,11.3,4.5,19.2,7.1c6.9,2.2,39.2,9.2,48.9,6.3c-1.3-5.1-3.8-10.4-4.5-15.8c4.2,2.5,7.2,8,9.4,12.5
			c0.3,0.5,0.9,1.7,1.6,3.1c1.7,3.3,5.2,5.2,8.9,4.7c9.6-1.5,27.3-6.5,35.5-9.7c-2.4-4.7-5-7.7-7.5-12.6c4.6,1.7,7.9,7.3,12,10
			c2.9,1.9,1.8,2.3,5.1,0.3c1.9-1.1,3.4-2.4,5.3-3.5c-4.6-4.7-8.1-10.9-12.5-16c3.1,3.5,7.9,6,11.6,8.7c5,3.7,5.7,3.7,11,0.6
			c9.1-5.4,19-11.6,27.2-18.4c6.5-5.4,16.4-12.8,19.9-21C865.5,304.4,866.3,301.1,860.8,298.6z"/>
		<path class="st1" d="M842.6,313c-10.5,3.4-21,6.5-31.7,9.3c10,1.2,20.2,1,30.1-0.7c1.4-0.2,2.1,2.1,0.6,2.4c-12,2-24.2,2-36.2,0
			c-0.2,0-0.3-0.1-0.5-0.2c-4.1,1-8.3,2-12.4,2.9c7.1,4.7,14.8,8.3,22.9,10.8c1.4,0.4,0.9,2.8-0.5,2.4c-9-2.7-17.5-6.8-25.3-12.2
			c-0.1-0.1-0.2-0.2-0.3-0.3c-4,0.8-7.9,1.6-11.9,2.3c2.5,2.4,5.2,4.6,7.5,7.2c2.8,3.1,5.3,6.5,7.8,9.9c0.9,1.2-1,2.5-2,1.3
			c-5-6.7-10.5-12-16.2-17.8c-4.8,0.8-9.6,1.5-14.4,2.1c2.9,2.8,6.1,5.3,8.8,8.3c2.9,3.2,5.5,6.6,7.8,10.3c0.4,0.5,0.2,1.3-0.3,1.6
			c-0.5,0.4-1.3,0.2-1.6-0.3c-2.5-4-5.4-7.7-8.7-11.1c-2.8-2.9-6.2-5.3-8.9-8.3c-4.4,0.5-8.8,0.9-13.2,1.3
			c6.1,6.7,10.9,14.5,15.6,22.3c0.8,1.3-1.2,2.6-2,1.3c-5-8.3-10-16.5-16.7-23.4c-7.7,0.5-15.3,0.7-23,0.5c4.3,7.3,8,14.9,11,22.8
			c0.5,1.5-1.7,2.1-2.2,0.7c-3.1-8.2-6.9-16.1-11.5-23.5c-4.4-0.1-8.9-0.4-13.3-0.8c4.9,5.9,8.6,12.8,10.8,20.2
			c0.2,0.6-0.1,1.3-0.7,1.5c-0.6,0.2-1.3-0.1-1.5-0.7c0,0,0-0.1,0-0.1c-2.2-7.9-6.3-14.6-11.4-20.7c-0.1-0.1-0.2-0.3-0.3-0.5
			c-4.5-0.4-8.9-1-13.4-1.8c4.2,3.6,7.6,8,10.1,13c0.7,1.4-1.3,2.7-2,1.3c-2.9-6.2-7.5-11.4-13.2-15.2c-3.7-0.7-7.4-1.4-11.1-2.3
			c-1.4-0.3-0.9-2.7,0.5-2.4c3.6,0.9,7.2,1.6,10.8,2.3c0.2,0,0.4,0,0.5,0.1l0.3,0.1c7.7-5.9,13.6-13.9,17-23c0.6-1.5,2.6-0.3,2,1.2
			c-3.3,8.7-8.8,16.4-15.9,22.4c4.7,0.8,9.3,1.4,14,1.9c0-0.4,0.2-0.8,0.5-1c9-7,17.8-14.2,24.2-24c0.8-1.3,2.8-0.1,2,1.2
			c-6.4,9.8-15,17.1-23.9,24.1c7,0.7,14.1,1,21.2,1c8.2-11.3,16.2-22.8,20-36.8c0.2-0.6,0.8-1,1.4-0.8c0.6,0.2,1,0.8,0.8,1.4l0,0
			c-3.7,13.7-11.4,25.1-19.3,36.2c4.7,0,9.3-0.2,14-0.5c7.2-9.3,15.4-18.5,18.8-30.3c0.1-0.6,0.7-1,1.4-0.9c0.6,0.1,1,0.7,0.9,1.4
			c0,0,0,0.1,0,0.1c-3.3,11.5-10.8,20.5-17.9,29.5c4.1-0.3,8.2-0.7,12.2-1.1c0.1-0.3,0.2-0.5,0.5-0.7c9.2-5.4,16.6-13.1,23.9-21
			c1-1.1,2.7,0.6,1.7,1.7c-6.6,7.1-13.3,14-21.2,19.3c4.5-0.6,9-1.2,13.5-2c0.4-2.3,4-4.8,5.2-5.9c4.3-4.4,8.7-8.8,13.2-13
			c1.1-1,2.8,0.7,1.7,1.7c-3.1,2.9-6.1,5.8-9.1,8.8c-0.7,0.7-6.2,5.7-8.1,7.9c4.2-0.7,8.4-1.5,12.6-2.4l0,0
			c5.7-6.4,12.3-12.1,19.5-16.9c1.3-0.8,2.4,1.3,1.2,2.1c-6.1,4-11.7,8.7-16.7,14c8-1.7,15.9-3.7,23.7-5.9c0.1-0.2,0.2-0.3,0.4-0.4
			l18.4-9.8c1.3-0.7,2.5,1.4,1.2,2.1l-9.7,5.2c5.2-1.5,10.3-3.1,15.4-4.8C843.4,310.2,844,312.6,842.6,313z"/>
		
			<linearGradient id="SVGID_10_" gradientUnits="userSpaceOnUse" x1="995.6151" y1="-142.4205" x2="1078.2451" y2="-56.6105" gradientTransform="matrix(0.972 0.2348 0.2348 -0.972 -182.7201 -100.2589)">
			<stop  offset="1.000000e-02" style="stop-color:#1B92A4"/>
			<stop  offset="0.4" style="stop-color:#45AEA7"/>
			<stop  offset="1" style="stop-color:#83D6AB"/>
		</linearGradient>
		<path class="st11" d="M825,195.4c-3.6,0.3-19.8,9.8-27,14.2c-2.3,1.4-3.8,3.7-4.3,6.3c-0.8,4.2-1.9,8.4-3.2,12.6
			c-1.5-4.5-2.7-9.2-4.6-13.6c-4,1.3-8.1,3.9-12.1,5.5c-4.2,1.6-8.3,3.6-12.2,5.8c-3.5,2.1-9.1,4.3-10.3,8.1
			c-1.2,3.8-1.6,10-2.1,14.1c-1.3-2.6-2-6-2.7-9c-1.3-5.4-2-4.5-7.2-2.9c-6.3,1.9-12.3,4.5-18,7.7c-7,4-13.7,8.6-19.9,13.8
			c-3.7,3-3.8,2.6-3.2,7.7c0.4,3.4,0.5,7.2,0.5,10.7c-4.6,0.2-8.3-7.3-10.3-10.8c-8.9,4.9-13.2,20.4-16.2,30c-0.6,1.9-5.9,21-6.1,22
			c-2.9,10.7,5.2,21.2,15.4,20c5.4-0.6,12-1.6,20-3.3c7.1-1.5,38.7-11.4,46-18.7c-3.4-3.9-7.9-7.3-10.7-11.8
			c4.8,0.2,9.8,3.6,13.7,6.4c0.4,0.3,1.5,1.1,2.7,1.9c3,2.2,7.1,2.1,9.9-0.2c7.8-6.1,21.4-19.3,27.3-26.3c-4.1-3-7.7-4.4-12-7.4
			c4.8-0.8,10.2,2.6,14.9,2.9c3.4,0.3,2.6,1.1,4.7-2.3c1.2-1.9,2-3.9,3.2-5.8c-6.1-1.9-11.8-5.7-17.9-7.9c4.3,1.6,9.5,1.4,14,2
			c6,0.8,6.7,0.5,10-5c5.8-9.4,11.9-19.8,16.2-29.9c3.5-8.1,9.1-19.5,8.6-28.5C831.7,198.2,831,194.8,825,195.4z"/>
		<path class="st1" d="M815.2,217.2c-7.8,8.2-15.8,16.3-24.1,24.1c9.5-3.9,18.4-9.2,26.4-15.6c1.2-0.9,2.8,0.9,1.6,1.8
			c-9.6,7.7-20.4,13.8-32,18c-0.2,0.1-0.3,0.1-0.5,0c-3.2,3-6.5,5.9-9.7,8.8c8.3,0.6,16.7,0,24.9-1.8c1.4-0.3,2,2.1,0.5,2.4
			c-9.1,2.1-18.4,2.6-27.6,1.7c-0.1,0-0.2-0.1-0.3-0.1c-3.2,2.7-6.3,5.3-9.6,8c3.3,0.7,6.5,1.6,9.7,2.7c3.8,1.4,7.5,3.2,11.2,4.9
			c1.3,0.6,0.1,2.7-1.2,2.1c-7.3-3.5-14.4-5.5-22-7.7c-3.9,3.1-7.8,6.1-11.8,9c3.8,1.1,7.7,1.6,11.4,2.9c3.9,1.4,7.7,3.1,11.3,5.2
			c0.6,0.4,0.7,1.1,0.3,1.7c-0.3,0.5-1,0.7-1.5,0.4c-3.9-2.3-8.1-4.2-12.5-5.6c-3.8-1.2-7.7-1.6-11.5-2.9c-3.7,2.7-7.4,5.2-11.2,7.7
			c8.3,2.9,15.9,7.4,23.4,12.1c1.3,0.8,0.1,2.9-1.2,2.1c-8-4.9-16-9.7-24.8-12.5c-6.6,4.2-13.3,8.2-20.1,11.9
			c6.9,4.3,13.4,9.3,19.4,14.8c1.1,1-0.6,2.7-1.7,1.7c-6.2-5.7-13-10.8-20.3-15.2c-4,2.1-8.1,4.1-12.2,5.9
			c6.9,2.8,13.1,7.1,18.2,12.6c1,1.1-0.6,2.8-1.7,1.7c-5.3-5.9-11.8-9.8-18.9-12.7c-0.2-0.1-0.3-0.2-0.4-0.3
			c-4.2,1.8-8.4,3.5-12.6,5.1c5.3,1.1,10.2,3.3,14.5,6.6c1.2,0.9,0,3-1.2,2.1c-5.3-4-11.7-6.4-18.4-6.9c-3.6,1.2-7.2,2.4-10.8,3.5
			c-1.4,0.4-2-2-0.5-2.4c3.5-1,7-2.2,10.5-3.3c0.2-0.1,0.3-0.2,0.5-0.2l0.3-0.1c4.3-9,6.1-19,5.2-28.9c-0.1-1.6,2.2-1.5,2.3,0
			c0.8,9.5-0.7,19-4.5,27.8c4.5-1.6,8.9-3.4,13.2-5.3c-0.2-0.3-0.2-0.7,0-1.1c4.9-10.7,9.7-21.4,11.1-33.4c0.2-1.6,2.5-1.5,2.3,0
			c-1.4,11.9-6,22.7-10.8,33.3c6.5-2.9,12.9-6.1,19.2-9.6c2.4-14.1,4.6-28.3,2-42.6c-0.3-1.5,1.9-2.1,2.2-0.6
			c2.5,14,0.7,27.9-1.6,41.7c4.1-2.4,8.2-4.8,12.2-7.4c2.4-11.9,5.7-24.1,3.7-36.3c-0.3-1.5,2-2.1,2.2-0.6c2,11.8-0.8,23.6-3.2,35.1
			c3.5-2.3,7-4.6,10.4-7c0-0.3,0-0.6,0.2-0.8c5.8-9.3,9.1-19.8,12.2-30.5c0.2-0.6,0.8-0.9,1.4-0.8s0.9,0.8,0.8,1.4l0,0
			c-2.8,9.6-5.7,19.1-10.5,27.7c3.7-2.7,7.4-5.6,11.1-8.5c-0.6-2.3,1.5-6.2,2.1-7.8c1.9-6.1,3.9-12.1,6.1-18.1
			c0.5-1.5,2.7-0.8,2.2,0.7c-1.5,4.1-2.9,8.2-4.3,12.3c-0.3,0.9-3,8.2-3.8,11c3.4-2.7,6.8-5.5,10.1-8.4l0,0
			c2.3-8.6,5.7-16.9,10-24.7c0.8-1.4,2.7-0.1,2,1.3c-3.6,6.6-6.6,13.5-8.8,20.7c6.3-5.5,12.5-11.2,18.5-17c0-0.2,0.1-0.4,0.2-0.6
			c4-6,8-11.9,12.1-17.8c0.4-0.6,1.1-0.7,1.6-0.4c0.6,0.4,0.7,1.1,0.4,1.6c-2.1,3.2-4.3,6.3-6.4,9.4c3.9-3.9,7.8-7.9,11.6-11.9
			C814.6,214.3,816.2,216.1,815.2,217.2z"/>
		
			<linearGradient id="SVGID_11_" gradientUnits="userSpaceOnUse" x1="859.8395" y1="-95.629" x2="934.4995" y2="-19.879" gradientTransform="matrix(1 0 0 -1 -166.97 157.9)">
			<stop  offset="1.000000e-02" style="stop-color:#1B92A4"/>
			<stop  offset="0.4" style="stop-color:#45AEA7"/>
			<stop  offset="1" style="stop-color:#83D6AB"/>
		</linearGradient>
		<path class="st12" d="M780.9,110.2c-3.3,1.6-15.7,16.3-21.2,23c-1.7,2.1-2.5,4.8-2.2,7.4c0.5,4.3,0.8,8.7,0.8,13
			c-2.8-3.7-5.4-7.7-8.5-11.2c-3.4,2.7-6.4,6.6-9.7,9.5c-3.5,3-6.7,6.3-9.8,9.8c-2.7,3.2-7.2,7.3-7.2,11.3c0,4,1.6,10,2.4,14.1
			c-2.1-2-3.7-4.9-5.3-7.5c-2.9-4.6-3.3-3.6-7.7-0.2c-5.3,4.1-10.2,8.7-14.5,13.7c-5.4,6.3-10.2,13-14.5,20.1
			c-2.6,4.2-2.8,3.8-0.7,8.4c1.4,3.1,2.6,6.7,3.7,9.9c-4.3,1.8-10.1-3.9-13.1-6.5c-6.9,7.8-6.2,24-6.1,34.1c0,2,0.9,21.9,1,22.9
			c0.5,11.1,11.3,18.2,20.7,13.4c4.9-2.5,10.8-5.8,17.9-10.2c6.2-3.9,33-24.5,37.7-34c-4.4-2.5-9.7-4.1-13.7-7.3
			c4.6-1.5,10.4-0.1,14.9,1.2c0.5,0.2,1.8,0.5,3.2,0.8c3.6,0.9,7.3-0.6,9.2-3.8c5.5-8.5,14.2-25.8,17.7-34.5
			c-4.8-1.4-8.6-1.4-13.6-2.7c4.3-2.4,10.4-1.2,15-2.5c3.3-1,2.8,0.2,3.7-3.8c0.6-2.2,0.7-4.4,1.2-6.6c-6.3,0.4-12.9-1.1-19.4-1.1
			c4.5,0,9.4-2.1,13.8-3.1c5.9-1.4,6.4-1.9,7.9-8.3c2.6-10.9,5.1-22.9,6.1-34c0.8-8.8,2.6-21.7-0.6-30
			C788.1,110.5,786.4,107.5,780.9,110.2z"/>
		<path class="st1" d="M778.3,134.3c-4.8,10.5-9.9,21-15.3,31.3c7.7-7.1,14.5-15.2,20.1-24.1c0.8-1.3,2.8-0.2,2,1.1
			c-6.7,10.7-15.1,20.3-24.7,28.4c-0.1,0.1-0.3,0.2-0.4,0.2c-2.1,3.9-4.3,7.8-6.5,11.7c8.1-2.4,15.8-5.9,22.9-10.6
			c1.3-0.8,2.5,1.2,1.2,2.1c-7.8,5.1-16.4,9-25.5,11.5c-0.1,0-0.2,0-0.3,0c-2.1,3.7-4.3,7.3-6.6,10.9c3.3-0.5,6.7-0.8,10-1
			c4,0,8,0.3,12,0.7c1.5,0.1,1,2.5-0.5,2.4c-8-0.7-15.3,0-23.2,0.5c-2.7,4.3-5.5,8.6-8.4,12.8c3.9-0.3,7.7-1.2,11.6-1.3
			c4.1-0.1,8.3,0.2,12.3,1c1.4,0.2,1,2.6-0.5,2.4c-4.4-0.8-9-1-13.5-0.8c-3.9,0.2-7.8,1.2-11.7,1.3c-2.7,3.8-5.4,7.6-8.2,11.3
			c8.7-0.2,17.2,1.3,25.8,3c1.5,0.3,1,2.7-0.5,2.4c-9-1.8-18-3.5-27.2-3c-4.9,6.3-10,12.5-15.3,18.4c7.8,1.6,15.5,3.9,22.9,7
			c1.4,0.6,0.3,2.8-1,2.2c-7.6-3.2-15.6-5.6-23.8-7.1c-3.1,3.4-6.4,6.7-9.7,9.9c7.3,0.2,14.5,2,21,5.4c1.3,0.7,0.3,2.9-1,2.2
			c-6.8-3.7-14.2-5.1-21.8-5.2c-0.2,0-0.4-0.1-0.5-0.1c-3.3,3.2-6.8,6.3-10.3,9.3c5.2-0.9,10.6-0.5,15.7,1c1.4,0.4,0.9,2.8-0.5,2.4
			c-6.3-1.9-13.1-1.9-19.4,0c-3,2.4-6,4.8-9.1,7.1c-1.2,0.9-2.5-1.2-1.3-2.1c3-2.2,6-4.5,8.9-6.9c0.1-0.2,0.3-0.3,0.4-0.4l0.3-0.2
			c1.3-9.9-0.1-19.9-4-29.1c-0.6-1.5,1.6-2.2,2.2-0.8c3.7,8.8,5.1,18.3,4.3,27.8c3.7-3.1,7.3-6.4,10.8-9.7c-0.2-0.3-0.4-0.6-0.3-1
			c1.4-11.8,2.6-23.7,0.3-35.5c-0.3-1.5,1.9-2.3,2.2-0.8c2.3,11.8,1.3,23.5,0,35.3c5.3-5.1,10.3-10.4,15.1-15.9
			c-2.1-14.2-4.4-28.4-11.2-40.9c-0.7-1.4,1.2-2.7,1.9-1.3c6.7,12.3,9.2,26.1,11.3,40c3.2-3.7,6.3-7.5,9.3-11.3
			c-1.4-12-2-24.8-7.7-35.6c-0.7-1.4,1.2-2.7,1.9-1.3c5.5,10.5,6.5,22.6,7.8,34.3c2.6-3.4,5.1-6.8,7.6-10.3
			c-0.1-0.3-0.2-0.6-0.1-0.8c2.7-10.9,2.5-22,2.2-33.2c0-0.6,0.4-1.2,1.1-1.2s1.2,0.4,1.2,1.1c0.3,10,0.4,20-1.4,29.9
			c2.7-3.9,5.3-7.9,7.9-11.9c-1.3-1.9-0.5-6.4-0.5-8.2c-0.1-6.4,0-12.8,0.2-19.3c0-1.6,2.3-1.7,2.3-0.1c-0.1,4.4-0.2,8.8-0.3,13.2
			c0,1-0.3,8.8-0.2,11.8c2.4-3.8,4.7-7.6,6.9-11.5l0,0c-0.4-9,0.2-18,1.9-26.9c0.1-0.6,0.7-1,1.4-0.9c0.6,0.1,1,0.7,0.9,1.4
			c0,0,0,0,0,0c-1.4,7.5-2.1,15.1-2,22.7c4.3-7.4,8.3-15,12.2-22.7c-0.1-0.2-0.1-0.4,0-0.6c2-7,4-14.1,5.9-21.1
			c0.4-1.5,2.7-1,2.2,0.5c-1,3.7-2.1,7.5-3.1,11.2c2.5-5.1,4.9-10.2,7.3-15.4C776.9,131.8,778.9,132.9,778.3,134.3z"/>
		
			<linearGradient id="SVGID_12_" gradientUnits="userSpaceOnUse" x1="1425.752" y1="42.7001" x2="1615.0719" y2="42.7001" gradientTransform="matrix(-0.93 0.38 -0.38 -0.93 1527.1 -187.61)">
			<stop  offset="1.000000e-02" style="stop-color:#1B92A4"/>
			<stop  offset="0.4" style="stop-color:#45AEA7"/>
			<stop  offset="1" style="stop-color:#83D6AB"/>
		</linearGradient>
		<path class="st13" d="M3.5,335.9c3.1-2,21.4-4.7,29.6-5.8c2.5-0.3,5.1,0.5,6.9,2.3c3,2.9,6.2,5.6,9.5,8.1
			c-1.2-4.6-2.8-9.1-3.8-13.9c4-1.5,8.7-2,12.8-3.3c4.3-1.4,8.6-2.4,13.1-3.1c4-0.6,9.7-2.3,12.7,0s6.7,7.1,9.4,10.1
			c-0.3-2.9-1.7-6.1-2.7-9c-1.9-5.2-0.9-4.9,4.2-6.9c6-2.4,12.3-4.1,18.7-5.2c7.8-1.2,15.7-1.7,23.6-1.5c4.7,0.1,4.5-0.3,6.8,4.1
			c1.6,3,3.6,6.1,5.5,9c3.8-2.8,2.8-11.2,2.4-15.3c9.9-1.7,21.9,8,29.5,13.9c1.5,1.1,16.2,13.2,17,13.8c8.2,6.8,7.4,20.3-1.5,26
			c-4.7,3-10.6,6.3-18,10.1c-6.5,3.3-37.5,15.5-47.4,14.2c0.6-5.3,2.4-10.9,2.2-16.3c-3.8,3.2-6,9.1-7.5,13.9
			c-0.2,0.5-0.6,1.8-1.2,3.3c-1.2,3.5-4.4,6-8.1,6.1c-9.7,0.1-27.8-2-36.4-3.8c1.7-5.1,3.8-8.5,5.6-13.7c-4.3,2.5-6.8,8.5-10.5,11.9
			c-2.6,2.4-1.4,2.5-5,1.2c-2-0.8-3.8-1.8-5.7-2.6c3.9-5.4,6.4-12.1,10.2-17.8c-2.6,4-6.9,7.2-10.2,10.5c-4.4,4.5-5.1,4.6-10.8,2.4
			c-9.8-3.9-20.4-8.4-29.5-13.8c-7.2-4.3-18-10-22.6-17.5C-0.4,342.4-1.6,339.3,3.5,335.9z"/>
		<path class="st1" d="M23.4,347.2c10.8,1.7,21.7,3,32.6,4.1c-9.7,2.8-19.8,4.3-29.9,4.2c-1.4,0-1.8,2.4-0.3,2.4
			c12.2,0,24.2-1.9,35.7-5.9c0.2-0.1,0.3-0.1,0.4-0.3c4.2,0.3,8.4,0.6,12.7,0.8c-6.3,5.8-13.4,10.6-21.1,14.4
			c-1.3,0.7-0.5,2.9,0.9,2.3c8.5-4.2,16.4-9.6,23.3-16.2c0.1-0.1,0.2-0.2,0.2-0.3c4,0.2,8.1,0.3,12.1,0.3c-2.2,2.7-4.5,5.3-6.4,8.3
			c-2.3,3.5-4.3,7.3-6.3,11c-0.7,1.4,1.4,2.3,2.1,0.9c4-7.5,8.7-13.6,13.6-20.3c4.9,0,9.7-0.1,14.5-0.2c-2.5,3.3-5.3,6.2-7.6,9.6
			c-2.4,3.6-4.5,7.4-6.2,11.4c-0.3,0.6-0.1,1.3,0.4,1.6c0.6,0.3,1.3,0.1,1.6-0.4c0-0.1,0.1-0.1,0.1-0.2c1.9-4.4,4.3-8.5,7-12.4
			c2.4-3.4,5.3-6.2,7.7-9.7c4.4-0.2,8.8-0.5,13.3-0.9c-5.1,7.6-8.8,16.1-12.3,24.7c-0.3,0.6,0,1.3,0.6,1.5c0.6,0.3,1.3,0,1.5-0.6
			l0,0c3.7-9,7.6-18,13.2-25.8c7.6-0.8,15.2-1.8,22.8-3.2c-3.2,7.9-5.8,16-7.6,24.3c-0.3,1.5,1.9,1.8,2.3,0.3
			c1.9-8.6,4.6-17,8.1-25.1c4.4-0.9,8.7-1.9,13.1-3c-4,6.6-6.7,14-7.8,21.7c-0.1,0.6,0.3,1.2,1,1.3s1.2-0.3,1.3-1c0,0,0,0,0,0
			c1-8.1,4.2-15.5,8.4-22.3c0.1-0.2,0.2-0.3,0.2-0.5c4.3-1.2,8.7-2.5,13-3.9c-3.7,4.2-6.4,9.2-8.1,14.5c-0.5,1.5,1.6,2.4,2.1,0.9
			c2.1-6.6,5.9-12.6,11-17.2c3.5-1.3,7.1-2.6,10.6-4.1c1.4-0.6,0.5-2.8-0.9-2.3c-3.4,1.4-6.9,2.7-10.3,4c-0.2,0-0.4,0.1-0.5,0.2
			l-0.3,0.1c-8.4-4.6-15.4-11.6-20-20c-0.8-1.3-2.6,0.2-1.8,1.5c4.5,8,10.9,14.8,18.8,19.5c-4.5,1.5-9,2.9-13.6,4.1
			c-0.1-0.4-0.3-0.7-0.6-0.9c-9.8-5.5-19.6-11.1-27.3-19.8c-1-1.1-2.8,0.3-1.8,1.5c7.7,8.7,17.2,14.5,27,19.9
			c-6.9,1.8-13.8,3.3-20.8,4.4c-9.6-9.8-19.2-19.9-24.9-33.1c-0.2-0.6-0.9-0.9-1.5-0.7c-0.6,0.2-0.9,0.9-0.7,1.5
			c0,0.1,0.1,0.1,0.1,0.2c5.6,12.9,14.8,22.9,24.2,32.6c-4.6,0.7-9.3,1.3-13.9,1.8c-8.4-8.1-17.8-15.8-22.8-26.9
			c-0.3-0.6-1-0.8-1.6-0.6s-0.8,1-0.6,1.6c4.9,10.8,13.6,18.5,21.8,26.3c-4.1,0.4-8.1,0.7-12.2,0.9c-0.1-0.3-0.3-0.5-0.6-0.6
			c-9.8-3.8-18.2-10.2-26.6-16.8c-1.2-0.9-2.6,1-1.4,2c7.5,5.9,15.1,11.7,23.6,15.7c-4.5,0.2-9.1,0.3-13.6,0.2c-0.8-2.2-4.6-4-5.9-5
			c-4.9-3.7-9.8-7.2-14.9-10.7c-1.2-0.8-2.6,1.1-1.4,1.9c3.4,2.4,6.8,4.8,10.2,7.2c0.7,0.5,6.9,4.7,9.1,6.5c-4.3,0-8.5-0.1-12.8-0.3
			l0,0c-6.6-5.4-13.9-10-21.6-13.5c-1.4-0.6-2.2,1.7-0.9,2.3c6.5,3,12.7,6.7,18.4,11.1c-8.1-0.4-16.2-1.1-24.3-2
			c-0.1-0.2-0.3-0.3-0.5-0.3l-19.5-6.7c-1.4-0.5-2.3,1.8-0.9,2.3l10.3,3.5c-5.3-0.7-10.6-1.4-15.9-2.2
			C22.3,344.5,22,346.9,23.4,347.2z"/>
		
			<linearGradient id="SVGID_13_" gradientUnits="userSpaceOnUse" x1="1498.8726" y1="110.7415" x2="1571.4625" y2="201.7415" gradientTransform="matrix(-0.93 0.38 -0.38 -0.93 1527.1 -187.61)">
			<stop  offset="1.000000e-02" style="stop-color:#1B92A4"/>
			<stop  offset="0.4" style="stop-color:#45AEA7"/>
			<stop  offset="1" style="stop-color:#83D6AB"/>
		</linearGradient>
		<path class="st14" d="M24.4,228c3.6-0.3,21,6.5,28.7,9.6c2.4,1,4.3,3,5.2,5.5c1.4,4.1,3.1,8,4.9,11.9c0.9-4.7,1.4-9.5,2.6-14.2
			c4.2,0.7,8.6,2.6,12.8,3.5c4.4,0.9,8.7,2.2,12.9,3.8c3.8,1.5,9.6,2.8,11.3,6.3s2.9,9.6,4,13.6c1-2.8,1.1-6.2,1.5-9.3
			c0.6-5.5,1.3-4.8,6.7-4c6.4,0.9,12.7,2.5,18.8,4.7c7.5,2.8,14.7,6.3,21.6,10.4c4.1,2.4,4.1,1.9,4.3,7c0.1,3.5,0.6,7.2,1,10.7
			c4.6-0.6,7.2-8.6,8.7-12.4c9.5,3.4,15.9,18,20.2,27c0.9,1.8,8.7,19.8,9.1,20.7c4.4,10.1-2.1,21.8-12.5,22.3
			c-5.4,0.3-12.1,0.4-20.3,0c-7.2-0.3-39.9-5-48.1-11c2.8-4.4,6.8-8.5,9-13.4c-4.7,1-9.2,5.1-12.6,8.6c-0.4,0.4-1.4,1.3-2.4,2.3
			c-2.6,2.6-6.6,3.1-9.8,1.3c-8.6-4.7-23.8-15.6-30.6-21.5c3.7-3.7,7-5.6,10.9-9.3c-4.9,0-9.7,4.2-14.4,5.3c-3.4,0.8-2.4,1.5-5-1.5
			c-1.4-1.7-2.5-3.5-3.9-5.2c5.7-2.8,10.9-7.5,16.6-10.8c-4,2.2-9.2,2.9-13.5,4.2c-5.8,1.8-6.5,1.5-10.6-3.3
			c-7-8.3-14.5-17.6-20.2-26.9c-4.6-7.4-11.7-17.8-12.5-26.8C18.2,231.9,18.4,228.5,24.4,228z"/>
		<path class="st1" d="M37.2,248c8.9,6.8,17.9,13.5,27.1,19.9c-9.9-2.3-19.4-6.1-28.3-11.1c-1.3-0.7-2.6,1.3-1.3,2
			C45.5,264.8,57,269,69,271.3c0.2,0,0.3,0,0.5,0c3.6,2.4,7.2,4.7,10.9,7c-8.1,2-16.5,2.8-24.9,2.3c-1.5-0.1-1.7,2.4-0.2,2.5
			c9.3,0.6,18.6-0.4,27.6-2.8c0.1,0,0.2-0.1,0.3-0.2c3.5,2.2,7,4.3,10.6,6.3c-3.1,1.2-6.2,2.7-9.2,4.2c-3.6,2-7,4.3-10.3,6.7
			c-1.2,0.8,0.2,2.7,1.5,1.9c6.8-4.6,13.5-7.8,20.7-11.3c4.3,2.4,8.6,4.8,13,7c-3.6,1.7-7.3,2.9-10.8,4.8c-3.7,2-7.2,4.4-10.4,7
			c-1.2,1,0.3,2.8,1.5,1.9c3.6-2.9,7.4-5.4,11.5-7.5c3.6-1.8,7.4-2.9,10.9-4.8c4,2,8,3.9,12.1,5.8c-7.8,4.2-14.6,9.9-21.5,15.8
			c-1.1,1,0.3,2.9,1.5,1.9c7.2-6.2,14.4-12.2,22.8-16.4c7.1,3.1,14.3,5.9,21.6,8.5c-6.3,5.4-12,11.3-17.2,17.8
			c-1,1.2,0.9,2.6,1.9,1.4c5.3-6.7,11.3-12.8,17.9-18.3c4.2,1.4,8.5,2.7,12.9,3.9c-6.4,3.9-12,9.2-16.2,15.4c-0.8,1.3,1,2.7,1.9,1.4
			c4.4-6.7,10.3-11.7,17-15.6c0.2-0.1,0.3-0.2,0.4-0.4c4.4,1.1,8.8,2.1,13.2,3c-5.1,2-9.6,5-13.4,8.8c-1.1,1.1,0.4,3,1.5,1.9
			c4.7-4.8,10.6-8.2,17.1-9.8c3.7,0.6,7.4,1.2,11.1,1.7c1.5,0.2,1.7-2.3,0.2-2.5c-3.6-0.4-7.3-1-10.9-1.6c-0.2-0.1-0.4-0.1-0.5-0.1
			h-0.3c-5.5-8.2-8.7-17.8-9.2-27.7c-0.1-1.6-2.3-1.2-2.3,0.4c0.5,9.4,3.4,18.6,8.3,26.7c-4.7-0.9-9.3-1.9-13.8-3.1
			c0.1-0.4,0-0.8-0.2-1.1c-6.4-9.8-12.6-19.6-15.7-31.2c-0.4-1.5-2.7-1.1-2.3,0.4c3.1,11.5,9.1,21.4,15.4,31.1
			c-6.9-1.8-13.6-4-20.3-6.4c-4.3-13.6-8.5-27.3-7.9-41.8c0.1-0.6-0.4-1.2-1-1.3s-1.2,0.4-1.3,1c0,0,0,0,0,0
			c-0.6,14.2,3.2,27.7,7.4,41c-4.4-1.7-8.8-3.4-13.1-5.3c-4-11.3-9-22.9-8.7-35.3c0-1.6-2.2-1.8-2.3-0.2c-0.3,12,4.1,23.2,8.1,34.2
			c-3.8-1.7-7.5-3.4-11.2-5.3c0-0.3-0.1-0.6-0.3-0.8c-7.1-8.3-11.8-18.1-16.4-28.2c-0.3-0.6-0.9-0.8-1.5-0.6
			c-0.6,0.3-0.8,0.9-0.6,1.5c0,0,0,0,0,0.1c4.1,9,8.3,17.9,14.2,25.7c-4.1-2.1-8.1-4.3-12.1-6.6c0.3-2.3-2.4-5.9-3.1-7.4
			c-2.7-5.7-5.6-11.3-8.6-16.9c-0.2-0.6-0.9-0.9-1.5-0.7c-0.6,0.2-0.9,0.9-0.7,1.5c0,0.1,0.1,0.1,0.1,0.2c2,3.8,4,7.6,6,11.5
			c0.4,0.8,4.1,7.6,5.3,10.3c-3.7-2.2-7.5-4.3-11.1-6.6l0,0c-3.5-8.1-8-15.8-13.4-22.8c-0.9-1.2-2.7,0.4-1.7,1.6
			c4.5,5.9,8.4,12.3,11.6,19c-7-4.4-13.9-9-20.7-13.8c0-0.2-0.1-0.4-0.3-0.6l-14.5-15.7c-1-1.1-2.8,0.5-1.8,1.6l7.6,8.3
			c-4.4-3.2-8.8-6.5-13.1-9.9C37.3,245,36,247,37.2,248z"/>
		
			<linearGradient id="SVGID_14_" gradientUnits="userSpaceOnUse" x1="1406.412" y1="154.9272" x2="1507.012" y2="154.9272" gradientTransform="matrix(-0.93 0.38 -0.38 -0.93 1527.1 -187.61)">
			<stop  offset="1.000000e-02" style="stop-color:#1B92A4"/>
			<stop  offset="0.4" style="stop-color:#45AEA7"/>
			<stop  offset="1" style="stop-color:#83D6AB"/>
		</linearGradient>
		<path class="st15" d="M56.1,136.6c3.4,1,17.8,13.6,24.1,19.3c2,1.8,3.1,4.3,3.2,7c0.1,4.3,0.4,8.7,1,13c2.3-4.1,4.3-8.5,6.8-12.5
			c3.8,2.1,7.3,5.5,11,7.9c3.9,2.4,7.5,5.2,11,8.1c3.1,2.8,8.2,6,8.7,10s-0.2,10.2-0.4,14.3c1.8-2.3,3-5.5,4.2-8.3
			c2.3-5,2.7-4.1,7.5-1.4c5.8,3.1,11.3,6.9,16.3,11.2c6.2,5.3,11.9,11.2,17.1,17.5c3.1,3.7,3.3,3.3,1.9,8.2c-1,3.3-1.7,7-2.3,10.4
			c4.5,1.1,9.4-5.5,12-8.6c8,6.6,9.5,22.7,10.8,32.7c0.3,2,2.2,21.8,2.3,22.8c1,11.1-8.7,19.8-18.6,16.7c-5.2-1.6-11.5-4-19.1-7.2
			c-6.7-2.8-36.1-18.9-42-27.5c4-3.1,9-5.6,12.5-9.5c-4.7-0.8-10.3,1.6-14.5,3.6c-0.5,0.2-1.7,0.8-3,1.3c-3.4,1.5-7.3,0.6-9.7-2.2
			c-6.6-7.5-17.7-23.2-22.3-31.2c4.6-2.2,8.3-2.8,13.1-4.9c-4.6-1.7-10.4,0.5-15.2-0.1c-3.4-0.4-2.7,0.6-4.2-3.2
			c-0.9-2.1-1.3-4.2-2.1-6.3c6.3-0.7,12.6-3.2,19-4.2c-4.5,0.7-9.6-0.5-14.1-0.8c-6-0.4-6.6-0.9-9-6.9c-4.1-10.4-8.3-21.8-10.8-32.6
			c-2-8.6-5.6-21-3.6-29.7C49.1,138,50.3,134.9,56.1,136.6z"/>
		<path class="st1" d="M62.1,160c6.3,9.6,12.8,19.1,19.5,28.4c-8.6-5.8-16.5-12.7-23.3-20.5c-1-1.1-2.9,0.3-1.9,1.5
			c8.1,9.4,17.7,17.6,28.4,24c0.1,0.1,0.3,0.1,0.5,0.2c2.7,3.5,5.4,7.1,8.1,10.5c-8.3-1-16.5-3.3-24.1-6.7c-1.4-0.6-2.3,1.6-0.9,2.2
			c8.5,3.8,17.6,6.2,26.8,7.2c0.1,0,0.2,0,0.4,0c2.6,3.3,5.3,6.5,8,9.7c-3.3,0.1-6.7,0.3-10,0.7c-4,0.6-7.9,1.6-11.8,2.6
			c-1.4,0.4-0.6,2.7,0.8,2.3c7.8-2,15.1-2.5,23-3.3c3.3,3.8,6.7,7.6,10.1,11.3c-3.9,0.3-7.8,0.1-11.7,0.6c-4.1,0.6-8.1,1.6-12,2.9
			c-1.4,0.5-0.6,2.8,0.8,2.3c4.3-1.5,8.7-2.5,13.2-3c3.9-0.4,7.9-0.1,11.8-0.6c3.2,3.3,6.4,6.6,9.7,9.8c-8.6,1.2-16.9,4.1-25.1,7.2
			c-1.4,0.5-0.6,2.8,0.8,2.3c8.7-3.3,17.3-6.4,26.5-7.3c5.7,5.5,11.6,10.7,17.7,15.7c-7.5,2.9-14.8,6.4-21.6,10.7
			c-1.3,0.8,0.1,2.8,1.3,2c7.1-4.4,14.6-8.1,22.5-10.9c3.6,2.8,7.2,5.5,10.9,8.2c-7.2,1.4-14.1,4.4-20,8.8c-1.2,0.9,0.1,2.9,1.3,2
			c6.2-4.8,13.3-7.3,20.8-8.7c0.2,0,0.4-0.1,0.5-0.2c3.8,2.6,7.6,5.1,11.5,7.5c-5.3,0-10.6,1.2-15.4,3.6c-1.3,0.6-0.5,2.9,0.8,2.3
			c5.9-2.9,12.6-4,19.2-3.1c3.3,1.9,6.6,3.8,10,5.5c1.3,0.7,2.3-1.6,0.9-2.3c-3.3-1.7-6.5-3.5-9.7-5.4c-0.1-0.1-0.3-0.2-0.5-0.3
			l-0.3-0.2c-2.6-9.6-2.7-19.8-0.2-29.4c0.4-1.5-1.9-1.9-2.3-0.4c-2.4,9.2-2.5,18.9-0.4,28.2c-4.1-2.5-8.1-5.1-12.1-7.8
			c0.2-0.3,0.3-0.7,0.1-1.1c-3-11.5-5.9-23-5.2-35c0.1-1.6-2.2-2-2.3-0.4c-0.6,12,2,23.5,5,34.9c-5.9-4.2-11.6-8.6-17.2-13.3
			c0.1-14.3,0.4-28.8,5.4-42.3c0.5-1.5-1.5-2.5-2.1-1c-4.9,13.2-5.4,27.3-5.5,41.4c-3.6-3.1-7.2-6.4-10.8-9.7
			c-0.3-12.1-1.5-24.8,2.6-36.4c0.5-1.5-1.5-2.5-2.1-1c-4,11.2-3.2,23.3-2.9,35.2c-3-2.9-6-5.9-9-9c0.1-0.3,0.1-0.6,0-0.8
			c-4.1-10.3-5.5-21.3-6.8-32.4c-0.1-0.6-0.6-1.1-1.2-1c-0.6,0.1-1.1,0.6-1,1.3c1.1,10,2.4,19.9,5.5,29.3c-3.2-3.4-6.4-6.9-9.5-10.5
			c1-2.1-0.4-6.4-0.7-8.1c-0.8-6.3-1.8-12.7-2.9-19c-0.3-1.5-2.5-1.3-2.3,0.2c0.7,4.3,1.5,8.6,2.1,13c0.1,0.9,1.6,8.6,1.8,11.6
			c-2.9-3.4-5.7-6.8-8.5-10.2l0,0c-0.8-9-2.7-17.8-5.6-26.3c-0.5-1.5-2.6-0.6-2.1,0.9c2.5,7.2,4.2,14.6,5.1,22.1
			c-5.2-6.7-10.3-13.5-15.3-20.4c0-0.2,0-0.4-0.1-0.6l-8.8-19.9c-0.2-0.6-0.9-0.9-1.5-0.6s-0.9,0.9-0.6,1.5l0,0
			c1.6,3.5,3.1,7,4.7,10.5c-3.2-4.6-6.3-9.3-9.3-14C63.1,157.3,61.3,158.7,62.1,160z"/>
		<path class="st16" d="M365,157.6l-22.4,289.6c0,0-2.4,17.5,9.7,17.6c19.8,0,98.4,0,98.4,0s-14.9-3.7-14.7-11.9
			c0.2-9.7,26.2-298.1,26.2-298.1L365,157.6z"/>
		<path class="st17" d="M457,459.6c-3.9,0-79,0.3-98.3,0c-8.4-0.1-9.9-8.1-9.9-13.3c0-1.4,0.1-2.9,0.3-4.3l0.6-7.5l1.5-19.2l1.3-17
			l1.7-21.8l1.4-18.4l15.9-205.8l97.2-2.7c0,0-11,120.7-18.7,208.6c-0.9,9.8-1.7,19.2-2.5,27.9c-0.2,2.8-0.5,5.5-0.7,8.2
			c-0.7,8.3-1.4,16-2,22.7c-0.3,3.5-0.6,6.8-0.8,9.9c-1,11.8-1.6,19.4-1.6,20.8c0,0.8,0.1,1.6,0.2,2.3
			C444.2,459.3,455.6,459.6,457,459.6z"/>
		<polygon class="st18" points="590.3,2.7 123.8,2.7 178.4,241 185.9,273.6 211.3,384.6 684.1,384.6 		"/>
		<polygon class="st17" points="129,0 121.4,2.7 206.5,390.3 216.5,382 		"/>
		<polygon class="st19" points="206.5,390.3 676.3,390.3 689.3,382 216.5,382 		"/>
		<rect x="371.5" y="459.7" class="st20" width="101.7" height="5.3"/>
		<polygon class="st19" points="447.3,390.3 446.8,394.3 351.1,415.3 352.5,398.3 353.1,390.3 		"/>
		<path class="st21" d="M457,459.6c-3.9,0-79,0.3-98.3,0c-8.4-0.1-9.9-8.1-9.9-13.3l95.2-19.5c-1,11.8-1.6,19.4-1.6,20.8
			c0,0.8,0.1,1.6,0.2,2.3C444.2,459.3,455.6,459.6,457,459.6z"/>
		<polygon class="st18" points="595.5,0 129,0 199.3,306.9 671.2,307 		"/>
		<path class="st19" d="M465.5,345.8c-1.3-7.5-8.1-13.6-15-13.6s-11.5,6.1-10.1,13.6s8.1,13.6,15,13.6S466.8,353.3,465.5,345.8z"/>
		<polygon class="st22" points="649.2,293.7 212.4,293.7 162.9,79.7 159.1,63.3 155.9,49.3 148.3,16.4 578.8,16.4 587.2,49.3 
			590.7,63.3 594.9,79.7 		"/>
		<polygon class="st23" points="578.8,16.4 148.3,16.4 155.9,49.3 587.2,49.3 		"/>
		<path class="st22" d="M168.9,27.2c-2.1,0-3.4,1.8-2.8,4.1c0.5,2.3,2.4,3.9,4.7,4.1c2.1,0,3.4-1.8,2.8-4.1
			C173.2,29,171.2,27.4,168.9,27.2z"/>
		<path class="st22" d="M181.5,27.2c-2.1,0-3.4,1.8-2.8,4.1c0.5,2.3,2.4,3.9,4.7,4.1c2.1,0,3.4-1.8,2.8-4.1
			C185.7,29,183.8,27.4,181.5,27.2z"/>
		<path class="st22" d="M199.7,31.3c-0.5-2.3-2.4-3.9-4.7-4.1c-2.1,0-3.4,1.8-2.8,4.1c0.5,2.3,2.4,3.9,4.7,4.1
			C199,35.4,200.3,33.5,199.7,31.3z"/>
		<rect x="258.6" y="118.6" class="st24" width="38.5" height="13.3"/>
		<rect x="258.6" y="195.1" class="st24" width="38.5" height="13.3"/>
		<rect x="258.6" y="271.5" class="st24" width="38.5" height="13.3"/>
		<path class="st25" d="M537.3,118.4c3.9,1.7,8.3,1.7,12.2,0V76.2c0,0-1.5-0.7-6.1-0.7s-6.1,0.7-6.1,0.7L537.3,118.4z"/>
		<path class="st26" d="M540.4,84.8c0,1.7,1.3,3,3,3s3-1.3,3-3s-1.3-3-3-3S540.4,83.2,540.4,84.8z"/>
		<path class="st26" d="M543.4,77.5c4.6,0,6.1,0.7,6.1,0.7v2.9c0,0-1.5-0.7-6.1-0.7s-6.1,0.7-6.1,0.7v-2.9
			C537.3,78.2,538.7,77.5,543.4,77.5z"/>
		<path class="st26" d="M543.4,115.2c4.6,0,6.1-0.7,6.1-0.7v-2.9c0,0-1.5,0.7-6.1,0.7s-6.1-0.7-6.1-0.7v2.9
			C537.3,114.5,538.7,115.2,543.4,115.2z"/>
		<path class="st26" d="M543.4,117.8c4.6,0,6.1-0.7,6.1-0.7v-1.4c0,0-1.5,0.7-6.1,0.7s-6.1-0.7-6.1-0.7v1.4
			C537.3,117.1,538.7,117.8,543.4,117.8z"/>
		<path class="st27" d="M486.4,118.1c4.6,2.1,9.8,2.1,14.3,0V68.5c0,0-1.7-0.9-7.2-0.9s-7.2,0.9-7.2,0.9V118.1z"/>
		<path class="st28" d="M486.4,74.5c0.6-0.2,1.2-0.4,1.8-0.5c0.8-1.3,2.9-2.2,5.4-2.2s4.6,0.9,5.4,2.2c0.6,0.1,1.2,0.2,1.8,0.5v3.4
			c-0.9-0.3-1.8-0.6-2.8-0.6c-2.7,1.6-6,1.6-8.7,0c-1,0.1-1.9,0.3-2.8,0.6L486.4,74.5z"/>
		<path class="st28" d="M493.6,114.4c5.5,0,7.2-0.9,7.2-0.9v-3.4c0,0-1.7,0.9-7.2,0.9s-7.2-0.9-7.2-0.9v3.4
			C486.4,113.5,488.2,114.4,493.6,114.4z"/>
		<path class="st28" d="M493.6,117.5c5.5,0,7.2-0.9,7.2-0.9v-1.7c0,0-1.7,0.9-7.2,0.9s-7.2-0.9-7.2-0.9v1.7
			C486.4,116.6,488.2,117.5,493.6,117.5z"/>
		<path class="st29" d="M525.1,118.4c3.9,1.7,8.3,1.7,12.2,0V56.6c0,0-1.5-0.7-6.1-0.7c-4.6,0-6.1,0.7-6.1,0.7V118.4z"/>
		<path class="st30" d="M531.2,57.8c4.6,0,6.1,0.7,6.1,0.7v2.9c0,0-1.5-0.7-6.1-0.7c-4.6,0-6.1,0.7-6.1,0.7v-2.9
			C525.1,58.6,526.6,57.8,531.2,57.8z"/>
		<path class="st30" d="M531.2,115.2c4.6,0,6.1-0.7,6.1-0.7v-2.9c0,0-1.5,0.7-6.1,0.7c-4.6,0-6.1-0.7-6.1-0.7v2.9
			C525.1,114.5,526.6,115.2,531.2,115.2z"/>
		<path class="st30" d="M531.2,117.8c4.6,0,6.1-0.7,6.1-0.7v-1.4c0,0-1.5,0.7-6.1,0.7c-4.6,0-6.1-0.7-6.1-0.7v1.4
			C525.1,117.1,526.6,117.8,531.2,117.8z"/>
		<path class="st31" d="M500.8,118.4c3.9,1.7,8.3,1.7,12.2,0V76.2c0,0-1.5-0.7-6.1-0.7s-6.1,0.7-6.1,0.7L500.8,118.4z"/>
		<path class="st32" d="M506.9,80.6c4.6,0,6.1,0.7,6.1,0.7v2.9c0,0-1.5-0.7-6.1-0.7s-6.1,0.7-6.1,0.7v-2.9
			C500.8,81.3,502.2,80.6,506.9,80.6z"/>
		<path class="st32" d="M506.9,91.6c4.6,0,6.1,0.7,6.1,0.7v13.5c0,0-1.5,0.5-6.1,0.5s-6.1-0.5-6.1-0.5V92.3
			C500.8,92.3,502.2,91.6,506.9,91.6z"/>
		<path class="st32" d="M506.9,78c4.6,0,6.1,0.7,6.1,0.7v1.4c0,0-1.5-0.7-6.1-0.7s-6.1,0.7-6.1,0.7v-1.4
			C500.8,78.7,502.2,78,506.9,78z"/>
		<path class="st33" d="M512.9,118.4c3.9,1.7,8.3,1.7,12.2,0V62.2c0,0-1.5-0.7-6.1-0.7c-4.6,0-6.1,0.7-6.1,0.7V118.4z"/>
		<path class="st34" d="M519,63.4c4.6,0,6.1,0.7,6.1,0.7V67c0,0-1.5-0.7-6.1-0.7c-4.6,0-6.1,0.7-6.1,0.7v-2.9
			C512.9,64.1,514.4,63.4,519,63.4z"/>
		<path class="st35" d="M428.2,58.8c-1.3,2.9-1.3,6.2,0,9.1h31.3c0,0,0.5-1.1,0.5-4.5s-0.5-4.5-0.5-4.5H428.2z"/>
		<path class="st36" d="M453.2,61.1c-1.2,0-2.2,1-2.2,2.2c0,1.2,1,2.2,2.2,2.2s2.2-1,2.2-2.2c0,0,0,0,0,0
			C455.4,62.1,454.4,61.1,453.2,61.1z"/>
		<path class="st36" d="M458.6,63.3c0,3.4-0.5,4.5-0.5,4.5H456c0,0,0.5-1.1,0.5-4.5s-0.5-4.5-0.5-4.5h2.1
			C458.1,58.8,458.6,59.8,458.6,63.3z"/>
		<path class="st36" d="M430.6,63.3c0,3.4,0.5,4.5,0.5,4.5h2.1c0,0-0.5-1.1-0.5-4.5s0.5-4.5,0.5-4.5h-2.1
			C431.1,58.8,430.6,59.8,430.6,63.3z"/>
		<path class="st36" d="M428.6,63.3c0,3.4,0.5,4.5,0.5,4.5h1.1c0,0-0.5-1.1-0.5-4.5s0.5-4.5,0.5-4.5h-1.1
			C429.2,58.8,428.6,59.8,428.6,63.3z"/>
		<path class="st37" d="M419.2,67.8c-2,4.6-2,9.8,0,14.3h49.6c0,0,0.8-1.7,0.8-7.2s-0.8-7.2-0.8-7.2L419.2,67.8z"/>
		<path class="st38" d="M462.9,67.8c0.2,0.6,0.4,1.2,0.5,1.8c1.3,0.8,2.2,2.9,2.2,5.4s-0.9,4.6-2.2,5.4c-0.1,0.6-0.2,1.2-0.5,1.8
			h-3.4c0.3-0.9,0.5-1.8,0.6-2.8c-1.6-2.7-1.6-6,0-8.7c-0.1-1-0.3-1.9-0.6-2.8H462.9z"/>
		<path class="st38" d="M422.9,75c0,5.5,0.8,7.2,0.8,7.2h3.4c0,0-0.8-1.7-0.8-7.2s0.8-7.2,0.8-7.2h-3.4
			C423.8,67.8,422.9,69.5,422.9,75z"/>
		<path class="st38" d="M419.9,75c0,5.5,0.8,7.2,0.8,7.2h1.7c0,0-0.8-1.7-0.8-7.2s0.8-7.2,0.8-7.2h-1.7
			C420.7,67.8,419.9,69.5,419.9,75z"/>
		<path class="st39" d="M413,106.5c-1.7,3.9-1.7,8.3,0,12.2h61.8c0,0,0.7-1.5,0.7-6.1s-0.7-6.1-0.7-6.1H413z"/>
		<path class="st40" d="M473.6,112.6c0,4.6-0.7,6.1-0.7,6.1H470c0,0,0.7-1.5,0.7-6.1s-0.7-6.1-0.7-6.1h2.9
			C472.9,106.5,473.6,107.9,473.6,112.6z"/>
		<path class="st40" d="M416.2,112.6c0,4.6,0.7,6.1,0.7,6.1h2.9c0,0-0.7-1.5-0.7-6.1s0.7-6.1,0.7-6.1H417
			C417,106.5,416.2,107.9,416.2,112.6z"/>
		<path class="st40" d="M413.6,112.6c0,4.6,0.7,6.1,0.7,6.1h1.4c0,0-0.7-1.5-0.7-6.1s0.7-6.1,0.7-6.1h-1.4
			C414.3,106.5,413.6,107.9,413.6,112.6z"/>
		<path class="st31" d="M422.9,82.1c-1.7,3.9-1.7,8.3,0,12.2H465c0,0,0.7-1.5,0.7-6.1s-0.7-6.1-0.7-6.1L422.9,82.1z"/>
		<path class="st32" d="M460.7,88.2c0,4.6-0.7,6.1-0.7,6.1H457c0,0,0.7-1.5,0.7-6.1s-0.7-6.1-0.7-6.1h2.9
			C459.9,82.1,460.7,83.6,460.7,88.2z"/>
		<path class="st32" d="M449.7,88.2c0,4.6-0.7,6.1-0.7,6.1h-13.5c0,0-0.5-1.5-0.5-6.1s0.5-6.1,0.5-6.1H449
			C449,82.1,449.7,83.6,449.7,88.2z"/>
		<path class="st32" d="M463.3,88.2c0,4.6-0.7,6.1-0.7,6.1h-1.5c0,0,0.7-1.5,0.7-6.1s-0.7-6.1-0.7-6.1h1.5
			C462.6,82.1,463.3,83.6,463.3,88.2z"/>
		<path class="st41" d="M415.9,94.3c-1.7,3.9-1.7,8.3,0,12.2H472c0,0,0.7-1.5,0.7-6.1s-0.7-6.1-0.7-6.1H415.9z"/>
		<path class="st42" d="M470.8,100.4c0,4.6-0.7,6.1-0.7,6.1h-2.9c0,0,0.7-1.5,0.7-6.1s-0.7-6.1-0.7-6.1h2.9
			C470.1,94.3,470.8,95.8,470.8,100.4z"/>
		<path class="st43" d="M347.9,82.3h0.4V66.4h-0.4c-0.5,0-0.9-0.4-0.9-0.9c0-0.5-4.9-0.9-4.4-0.9h37.3c5.3,0,9.6,4.3,9.6,9.6
			c0,5.3-4.3,9.6-9.6,9.6c0,0,0,0,0,0h-36.7c-0.5,0,3.8-0.4,3.8-0.9C347,82.6,347.4,82.3,347.9,82.3
			C347.9,82.3,347.9,82.3,347.9,82.3z"/>
		<path class="st44" d="M311.1,82.3h35.2c4.4-0.2,7.8-3.8,7.6-8.2c-0.1-4.2-3.5-7.5-7.6-7.6h-35.2c-0.5,0-0.9-0.4-0.9-0.9
			c0-0.5,0.4-0.9,0.9-0.9l0,0h35.2c5.3,0,9.6,4.3,9.6,9.6c0,5.3-4.3,9.6-9.6,9.6h-35.2c-0.5,0.1-0.9-0.3-0.9-0.8
			c-0.1-0.5,0.3-0.9,0.8-0.9C311,82.3,311,82.3,311.1,82.3z"/>
		<path class="st45" d="M311.5,66.4h32.6c4.4-0.2,8.1,3.3,8.2,7.6s-3.3,8.1-7.6,8.2c-0.2,0-0.4,0-0.6,0h-32.6V66.4z"/>
		<path class="st46" d="M311.5,80.3h33.8c3.5,0.2,6.6-2.5,6.8-6c0-4.4-3.5-7.9-7.9-7.9c0,0,0,0,0,0h2.1c4.4-0.2,8.1,3.3,8.2,7.6
			s-3.3,8.1-7.6,8.2c-0.2,0-0.4,0-0.6,0h-34.7V80.3z"/>
		<path class="st47" d="M341.6,69.5c-7.5,0.2-15.1,0.2-22.6,0C326.5,69.3,334.1,69.3,341.6,69.5z"/>
		<polygon class="st47" points="349.9,74.3 338.4,74.4 326.9,74.3 338.4,74.2 		"/>
		<polygon class="st47" points="334,78.6 322.8,78.7 311.5,78.6 322.8,78.5 		"/>
		<polygon class="st47" points="336.5,76.1 324,76.2 311.5,76.1 324,76 		"/>
		<path class="st47" d="M336.5,71.6c-8.3,0.2-16.7,0.2-25,0C319.9,71.4,328.2,71.4,336.5,71.6z"/>
		<polygon class="st47" points="318.2,67.9 314.9,68.1 311.5,67.9 314.9,67.8 		"/>
		<polygon class="st47" points="342.4,80.8 328.4,80.9 314.4,80.8 328.4,80.7 		"/>
		<path class="st47" d="M343.8,72.6c-3.2,0.2-6.4,0.2-9.5,0C337.5,72.4,340.7,72.4,343.8,72.6z"/>
		<path class="st48" d="M339.7,115.6h0.5v-12h-0.5c-0.8-0.1-1.5-0.8-1.4-1.6c0.1-0.7,0.7-1.3,1.4-1.4h60.2c5,0.5,8.7,4.9,8.2,9.9
			c-0.4,4.3-3.8,7.8-8.2,8.2h-60.2c-0.8,0-1.5-0.7-1.5-1.5C338.2,116.2,338.9,115.6,339.7,115.6L339.7,115.6z"/>
		<path class="st45" d="M303.4,103.6h41.6c3.3,0,6,2.7,6,6s-2.7,6-6,6l0,0h-41.6V103.6z"/>
		<path class="st49" d="M302.9,115.6h43.6c3.3,0,6-2.7,6-6s-2.7-6-6-6h-43.6c-0.8-0.1-1.5-0.8-1.4-1.6c0.1-0.7,0.7-1.3,1.4-1.4h44.3
			c5,0.5,8.7,4.9,8.2,9.9c-0.4,4.3-3.8,7.8-8.2,8.2h-44.3c-0.8,0-1.5-0.7-1.5-1.5C301.4,116.2,302.1,115.6,302.9,115.6L302.9,115.6z
			"/>
		<polygon class="st47" points="337.8,105.8 323.8,106 309.8,105.8 323.8,105.7 		"/>
		<path class="st47" d="M344.9,109.6c-8.2,0.1-16.4,0.1-24.6,0C328.5,109.5,336.7,109.5,344.9,109.6z"/>
		<path class="st47" d="M337.4,112.3c-11.3,0.1-22.7,0.1-34,0C314.8,112.2,326.1,112.2,337.4,112.3z"/>
		<path class="st47" d="M333.5,110.7c-10,0.1-20,0.1-30.1,0C313.4,110.6,323.5,110.6,333.5,110.7z"/>
		<path class="st47" d="M333.5,107.7c-10,0.2-20,0.2-30.1,0C313.4,107.5,323.5,107.5,333.5,107.7z"/>
		<path class="st47" d="M317.1,104.5c-4.6,0.1-9.2,0.1-13.7,0C308,104.4,312.5,104.4,317.1,104.5z"/>
		<path class="st47" d="M338.5,113.3c-10.9,0.1-21.8,0.1-32.7,0C316.7,113.1,327.6,113.1,338.5,113.3z"/>
		<path class="st47" d="M339.7,108.5c-4.4,0.2-8.8,0.2-13.2,0C330.9,108.3,335.3,108.3,339.7,108.5z"/>
		<path class="st46" d="M345.2,113.9c4.4,0,5.7-3.1,5.7-4.3c0-3.3-2.7-6-6-6h1.5c3.3,0,6,2.7,6,6s-2.7,6-6,6h-43.1v-1.7H345.2z"/>
		<path class="st50" d="M342.6,85.5c-0.5-0.1-0.9-0.7-0.7-1.2c0.1-0.4,0.4-0.6,0.7-0.7h34.3c4.7,0.3,8.2,4.4,7.9,9.1
			c-0.3,4.2-3.7,7.6-7.9,7.9h-34.3c-0.5-0.1-0.8-0.7-0.7-1.2c0.1-0.3,0.4-0.6,0.7-0.7h0.2V85.5H342.6z"/>
		<path class="st45" d="M317.2,85.5h23.6c3.6,0,6.6,2.9,6.6,6.6c0,3.6-2.9,6.6-6.6,6.6h-23.6V85.5z"/>
		<path class="st24" d="M317,98.6h25.5c3.6-0.1,6.4-3.2,6.3-6.8c-0.1-3.4-2.9-6.2-6.3-6.3H317c-0.5,0.1-1.1-0.2-1.2-0.7
			c-0.1-0.5,0.2-1.1,0.7-1.2c0.2,0,0.3,0,0.5,0h26.2c4.7,0.3,8.2,4.4,7.9,9.1c-0.3,4.2-3.7,7.6-7.9,7.9H317
			c-0.5,0.1-1.1-0.2-1.2-0.7s0.2-1.1,0.7-1.2C316.7,98.6,316.9,98.6,317,98.6L317,98.6z"/>
		<path class="st47" d="M335.9,88c-4.9,0.2-9.9,0.2-14.8,0C326,87.8,331,87.8,335.9,88z"/>
		<polygon class="st47" points="340.7,92.1 334.2,92.2 327.8,92.1 334.2,92 		"/>
		<polygon class="st47" points="328.8,95.1 323,95.2 317.2,95.1 323,94.9 		"/>
		<polygon class="st47" points="331.2,93.3 324.2,93.4 317.2,93.3 324.2,93.2 		"/>
		<path class="st47" d="M331.2,90c-4.7,0.2-9.3,0.2-14,0C321.9,89.8,326.5,89.8,331.2,90z"/>
		<polygon class="st47" points="329.2,86.5 323.2,86.6 317.2,86.5 323.2,86.4 		"/>
		<polygon class="st47" points="336.7,96.1 328.5,96.2 320.2,96.1 328.5,96 		"/>
		<path class="st47" d="M338,90.9c-4.9,0.2-9.7,0.2-14.6,0C328.3,90.7,333.1,90.7,338,90.9z"/>
		<path class="st46" d="M341.1,96.8c4.8,0,6.2-3.4,6.2-4.7c0-3.6-2.9-6.5-6.5-6.6c0,0,0,0,0,0h1.7c3.6,0,6.6,2.9,6.6,6.6
			c0,3.6-2.9,6.6-6.6,6.6h-25.3v-1.8H341.1z"/>
		<path class="st51" d="M278.6,131.9v-8.3c0-2.7,2.2-4.9,4.9-4.9l0,0H562c2.7,0,4.9,2.2,4.9,4.9l0,0v8.3H278.6z"/>
		<path class="st44" d="M514.1,194.4v-40.7l0,0c0.1-3.5-2.6-6.5-6.1-6.6c-3.5-0.1-6.5,2.6-6.6,6.1c0,0.2,0,0.3,0,0.5l0,0v40.7
			c0,0.4-0.3,0.7-0.7,0.7s-0.7-0.3-0.7-0.7l0,0v-40.7c0.2-4.3,3.7-7.6,8-7.5c4.1,0.1,7.3,3.4,7.5,7.5l0,0v40.7
			c0,0.4-0.3,0.7-0.7,0.7S514.1,194.8,514.1,194.4L514.1,194.4z"/>
		<path class="st45" d="M501.4,194v-38.6c0.1-3.5,3.1-6.3,6.6-6.1c3.3,0.1,6,2.8,6.1,6.1V194H501.4z"/>
		<path class="st46" d="M512.5,194v-39.6c0.2-2.8-2-5.2-4.8-5.4c-3.5,0-6.4,2.8-6.4,6.4v-1.7c-0.1-3.5,2.6-6.5,6.1-6.6
			c3.5-0.1,6.5,2.6,6.6,6.1c0,0.2,0,0.3,0,0.5V194H512.5z"/>
		<polygon class="st47" points="503.9,157.5 504,172.8 503.9,188 503.7,172.8 		"/>
		<path class="st47" d="M507.7,150.8c0.1,7.8,0.1,15.5,0,23.3C507.6,166.4,507.6,158.6,507.7,150.8z"/>
		<path class="st47" d="M511.1,163.5c0.1,10.2,0.1,20.3,0,30.5C511.1,183.9,511.1,173.7,511.1,163.5z"/>
		<path class="st47" d="M509.1,161.5c0.1,10.8,0.1,21.7,0,32.5C509.1,183.2,509.1,172.3,509.1,161.5z"/>
		<path class="st47" d="M505.6,161.5c0.2,10.8,0.2,21.7,0,32.5C505.4,183.2,505.4,172.3,505.6,161.5z"/>
		<path class="st47" d="M502.6,181.1c0.1,4.3,0.1,8.6,0,12.9C502.5,189.7,502.5,185.4,502.6,181.1z"/>
		<path class="st47" d="M513,156.8c0.1,11.7,0.1,23.3,0,35C512.9,180.1,512.9,168.4,513,156.8z"/>
		<path class="st47" d="M506.4,155.7c0.2,4.2,0.2,8.4,0,12.6C506.2,164,506.2,159.9,506.4,155.7z"/>
		<path class="st45" d="M517.9,193.5v-45.8c0.1-2.7,2.4-4.7,5-4.6c2.5,0.1,4.5,2.1,4.6,4.6v45.8H517.9z"/>
		<path class="st49" d="M527.5,193.8v-47.4c-0.1-2.7-2.4-4.7-5-4.6c-2.5,0.1-4.5,2.1-4.6,4.6v47.4c0.1,0.7-0.4,1.3-1.1,1.3
			c-0.7,0.1-1.3-0.4-1.3-1.1c0-0.1,0-0.1,0-0.2v-48c0.4-4,4-6.9,8-6.5c3.5,0.3,6.2,3.1,6.5,6.5v48c0.1,0.7-0.4,1.3-1.1,1.3
			s-1.3-0.4-1.3-1.1C527.5,194,527.5,193.9,527.5,193.8z"/>
		<path class="st47" d="M519.7,153.4c0.1,11.7,0.1,23.3,0,34.9C519.6,176.7,519.6,165.1,519.7,153.4z"/>
		<path class="st47" d="M522.7,147.7c0.1,8.2,0.1,16.5,0,24.7C522.7,164.2,522.7,156,522.7,147.7z"/>
		<path class="st47" d="M524.9,158.6c0.1,11.6,0.1,23.2,0,34.9C524.8,181.8,524.8,170.2,524.9,158.6z"/>
		<path class="st47" d="M523.6,156.9c0.1,12.2,0.1,24.4,0,36.6C523.5,181.3,523.5,169.1,523.6,156.9z"/>
		<polygon class="st47" points="521.2,156.9 521.3,175.2 521.2,193.5 521.1,175.2 		"/>
		<path class="st47" d="M518.7,182.4c0.1,3.7,0.1,7.3,0,11C518.6,189.8,518.6,186.1,518.7,182.4z"/>
		<path class="st47" d="M525.7,152.8c0.1,12.9,0.1,25.8,0,38.7C525.6,178.6,525.6,165.7,525.7,152.8z"/>
		<polygon class="st47" points="521.9,151.9 522,159.6 521.9,167.4 521.8,159.6 		"/>
		<path class="st46" d="M526.2,147.4c0-3.5-2.5-4.6-3.5-4.6c-2.6,0-4.8,2.1-4.8,4.8c0,0,0,0,0,0v-1.2c0.1-2.7,2.4-4.7,5-4.6
			c2.5,0.1,4.5,2.1,4.6,4.6v47h-1.3V147.4z"/>
		<path class="st45" d="M531.5,194.1v-40.4c0-2.9,2.4-5.3,5.3-5.3c2.9,0,5.3,2.4,5.3,5.3v40.4H531.5z"/>
		<path class="st24" d="M542,194.3v-41.9l0,0c0-2.9-2.4-5.3-5.3-5.3c-2.9,0-5.3,2.4-5.3,5.3l0,0v41.9c0,0.4-0.4,0.8-0.8,0.8
			c-0.4,0-0.8-0.3-0.8-0.8v-42.5c0.3-3.5,3.3-6.2,6.8-6.2c1.7,0,3.4,0.6,4.6,1.8c1.3,1.1,2,2.7,2.2,4.4v42.5c0,0.4-0.3,0.8-0.7,0.8
			c0,0,0,0,0,0C542.4,195.1,542,194.7,542,194.3C542,194.3,542,194.3,542,194.3z"/>
		<path class="st47" d="M533.5,162.6c0.1,7,0.1,13.9,0,20.9C533.4,176.5,533.4,169.6,533.5,162.6z"/>
		<path class="st47" d="M536.8,153.8c0.1,8.1,0.1,16.2,0,24.3C536.7,170.1,536.7,161.9,536.8,153.8z"/>
		<path class="st47" d="M539.2,168.3c0.1,8.6,0.1,17.2,0,25.8C539.1,185.5,539.1,176.9,539.2,168.3z"/>
		<path class="st47" d="M537.8,166.4c0.1,9.2,0.1,18.5,0,27.7C537.7,184.9,537.7,175.7,537.8,166.4z"/>
		<path class="st47" d="M535.1,166.4c0.2,9.2,0.2,18.5,0,27.7C534.9,184.9,534.9,175.7,535.1,166.4z"/>
		<path class="st47" d="M532.3,177c0.1,5.7,0.1,11.4,0,17.1C532.2,188.4,532.2,182.7,532.3,177z"/>
		<path class="st47" d="M540,162c0.1,7.4,0.1,14.8,0,22.2C539.9,176.8,539.9,169.4,540,162z"/>
		<path class="st47" d="M535.8,160.9c0.2,3.9,0.2,7.8,0,11.7C535.7,168.7,535.7,164.8,535.8,160.9z"/>
		<path class="st46" d="M540.6,153.5c0-3.8-2.7-5-3.8-5c-2.9,0-5.2,2.3-5.3,5.2v-1.4c0-2.9,2.4-5.3,5.3-5.3c2.9,0,5.3,2.4,5.3,5.3
			v41.8h-1.5V153.5z"/>
		<path class="st25" d="M478.4,195c3.3,1.5,7,1.5,10.3,0v-35.5c0,0-1.2-0.6-5.1-0.6s-5.1,0.6-5.1,0.6V195z"/>
		<path class="st26" d="M481,166.8c0,1.4,1.1,2.5,2.5,2.5c1.4,0,2.5-1.1,2.5-2.5c0-1.4-1.1-2.5-2.5-2.5c0,0,0,0,0,0
			C482.2,164.3,481,165.4,481,166.8z"/>
		<path class="st26" d="M483.6,160.6c3.9,0,5.1,0.6,5.1,0.6v2.4c0,0-1.2-0.6-5.1-0.6s-5.1,0.6-5.1,0.6v-2.4
			C478.4,161.2,479.7,160.6,483.6,160.6z"/>
		<path class="st26" d="M483.6,192.3c3.9,0,5.1-0.6,5.1-0.6v-2.4c0,0-1.2,0.6-5.1,0.6s-5.1-0.6-5.1-0.6v2.4
			C478.4,191.7,479.7,192.3,483.6,192.3z"/>
		<path class="st26" d="M483.6,194.6c3.9,0,5.1-0.6,5.1-0.6v-1.2c0,0-1.2,0.6-5.1,0.6s-5.1-0.6-5.1-0.6v1.2
			C478.4,194,479.7,194.6,483.6,194.6z"/>
		<path class="st27" d="M435.6,194.8c3.8,1.7,8.2,1.7,12.1,0V153c0,0-1.5-0.7-6-0.7s-6,0.7-6,0.7L435.6,194.8z"/>
		<path class="st28" d="M435.6,158c0.5-0.2,1-0.3,1.5-0.4c0.7-1.1,2.5-1.9,4.6-1.9s3.9,0.8,4.5,1.9c0.5,0.1,1,0.2,1.5,0.4v2.9
			c-0.8-0.3-1.6-0.5-2.4-0.5c-2.3,1.3-5.1,1.3-7.3,0c-0.8,0.1-1.6,0.2-2.4,0.5V158z"/>
		<path class="st28" d="M441.6,191.7c4.6,0,6-0.7,6-0.7v-2.8c0,0-1.5,0.7-6,0.7s-6-0.7-6-0.7v2.8C435.6,191,437,191.7,441.6,191.7z"
			/>
		<path class="st28" d="M441.6,194.3c4.6,0,6-0.7,6-0.7v-1.4c0,0-1.5,0.7-6,0.7s-6-0.7-6-0.7v1.4C435.6,193.6,437,194.3,441.6,194.3
			z"/>
		<path class="st29" d="M468.2,195c3.3,1.5,7,1.5,10.3,0V143c0,0-1.2-0.6-5.1-0.6s-5.1,0.6-5.1,0.6V195z"/>
		<path class="st30" d="M473.3,144c3.9,0,5.1,0.6,5.1,0.6v2.4c0,0-1.2-0.6-5.1-0.6s-5.1,0.6-5.1,0.6v-2.4
			C468.2,144.6,469.4,144,473.3,144z"/>
		<path class="st30" d="M473.3,192.3c3.9,0,5.1-0.6,5.1-0.6v-2.4c0,0-1.2,0.6-5.1,0.6s-5.1-0.6-5.1-0.6v2.4
			C468.2,191.7,469.4,192.3,473.3,192.3z"/>
		<path class="st30" d="M473.3,194.6c3.9,0,5.1-0.6,5.1-0.6v-1.2c0,0-1.2,0.6-5.1,0.6s-5.1-0.6-5.1-0.6v1.2
			C468.2,194,469.4,194.6,473.3,194.6z"/>
		<path class="st31" d="M447.7,195c3.3,1.5,7,1.5,10.3,0v-35.5c0,0-1.2-0.6-5.1-0.6s-5.1,0.6-5.1,0.6V195z"/>
		<path class="st32" d="M452.8,163.2c3.9,0,5.1,0.6,5.1,0.6v2.4c0,0-1.2-0.6-5.1-0.6s-5.1,0.6-5.1,0.6v-2.4
			C447.7,163.8,448.9,163.2,452.8,163.2z"/>
		<path class="st32" d="M452.8,172.4c3.9,0,5.1,0.6,5.1,0.6v11.4c-3.4,0.6-6.9,0.6-10.3,0V173C447.7,173,448.9,172.4,452.8,172.4z"
			/>
		<path class="st32" d="M452.8,161c3.9,0,5.1,0.6,5.1,0.6v1.2c0,0-1.2-0.6-5.1-0.6s-5.1,0.6-5.1,0.6v-1.2
			C447.7,161.6,448.9,161,452.8,161z"/>
		<path class="st33" d="M457.9,195c3.3,1.5,7,1.5,10.3,0v-47.4c0,0-1.2-0.6-5.1-0.6s-5.1,0.6-5.1,0.6V195z"/>
		<path class="st34" d="M463,148.7c3.9,0,5.1,0.6,5.1,0.6v2.4c0,0-1.2-0.6-5.1-0.6s-5.1,0.6-5.1,0.6v-2.4
			C457.9,149.3,459.2,148.7,463,148.7z"/>
		<path class="st35" d="M384.5,156.5c-1.7,3.9-1.7,8.3,0,12.2h42.1c0,0,0.7-1.5,0.7-6.1s-0.7-6.1-0.7-6.1H384.5z"/>
		<path class="st36" d="M418,159.6c-1.7,0-3,1.3-3,3s1.3,3,3,3s3-1.3,3-3S419.7,159.6,418,159.6L418,159.6z"/>
		<path class="st36" d="M425.4,162.6c0,4.6-0.7,6.1-0.7,6.1h-2.9c0,0,0.7-1.5,0.7-6.1s-0.7-6.1-0.7-6.1h2.9
			C424.7,156.5,425.4,158,425.4,162.6z"/>
		<path class="st36" d="M387.7,162.6c0,4.6,0.7,6.1,0.7,6.1h2.9c0,0-0.7-1.5-0.7-6.1s0.7-6.1,0.7-6.1h-2.9
			C388.4,156.5,387.7,158,387.7,162.6z"/>
		<path class="st36" d="M385,162.6c0,4.6,0.7,6.1,0.7,6.1h1.4c0,0-0.7-1.5-0.7-6.1s0.7-6.1,0.7-6.1h-1.4
			C385.8,156.5,385,158,385,162.6z"/>
		<path class="st37" d="M380.8,168.7c-2.1,4.6-2.1,9.8,0,14.3h49.6c0,0,0.8-1.7,0.8-7.2s-0.8-7.2-0.8-7.2L380.8,168.7z"/>
		<path class="st38" d="M424.4,168.7c0.2,0.6,0.4,1.2,0.5,1.8c1.3,0.8,2.2,2.9,2.2,5.4s-0.9,4.6-2.2,5.4c-0.1,0.6-0.2,1.2-0.5,1.8
			H421c0.3-0.9,0.6-1.8,0.6-2.8c-1.6-2.7-1.6-6,0-8.7c-0.1-1-0.3-1.9-0.6-2.8L424.4,168.7z"/>
		<path class="st38" d="M384.6,175.9c0,5.5,0.8,7.2,0.8,7.2h3.4c0,0-0.8-1.7-0.8-7.2s0.8-7.2,0.8-7.2h-3.4
			C385.4,168.7,384.6,170.4,384.6,175.9z"/>
		<path class="st38" d="M381.4,175.9c0,5.5,0.8,7.2,0.8,7.2h1.7c0,0-0.8-1.7-0.8-7.2s0.8-7.2,0.8-7.2h-1.7
			C382.3,168.7,381.4,170.4,381.4,175.9z"/>
		<path class="st31" d="M384.5,183c-1.7,3.9-1.7,8.3,0,12.2h42.1c0,0,0.7-1.5,0.7-6.1s-0.7-6.1-0.7-6.1L384.5,183z"/>
		<path class="st32" d="M422.3,189.1c0,4.6-0.7,6.1-0.7,6.1h-2.9c0,0,0.7-1.5,0.7-6.1s-0.7-6.1-0.7-6.1h2.9
			C421.6,183,422.3,184.5,422.3,189.1z"/>
		<path class="st32" d="M411.3,189.1c0,4.6-0.7,6.1-0.7,6.1H397c0,0-0.5-1.5-0.5-6.1s0.5-6.1,0.5-6.1h13.5
			C410.6,183,411.3,184.5,411.3,189.1z"/>
		<path class="st32" d="M424.9,189.1c0,4.6-0.7,6.1-0.7,6.1h-1.4c0,0,0.7-1.5,0.7-6.1s-0.7-6.1-0.7-6.1h1.4
			C424.2,183,424.9,184.5,424.9,189.1z"/>
		<path class="st35" d="M302.5,194.8c3.9,1.7,8.3,1.7,12.2,0v-42.1c0,0-1.5-0.7-6.1-0.7s-6.1,0.7-6.1,0.7L302.5,194.8z"/>
		<path class="st36" d="M305.6,161.3c0,1.7,1.3,3,3,3s3-1.3,3-3s-1.3-3-3-3l0,0C307,158.3,305.6,159.6,305.6,161.3z"/>
		<path class="st36" d="M308.6,153.9c4.6,0,6.1,0.7,6.1,0.7v2.9c0,0-1.5-0.7-6.1-0.7s-6.1,0.7-6.1,0.7v-2.9
			C302.5,154.6,304,153.9,308.6,153.9z"/>
		<path class="st36" d="M308.6,191.6c4.6,0,6.1-0.7,6.1-0.7V188c0,0-1.5,0.7-6.1,0.7s-6.1-0.7-6.1-0.7v2.9
			C302.5,190.9,304,191.6,308.6,191.6z"/>
		<path class="st36" d="M308.6,194.2c4.6,0,6.1-0.7,6.1-0.7v-1.4c0,0-1.5,0.7-6.1,0.7s-6.1-0.7-6.1-0.7v1.4
			C302.5,193.5,304,194.2,308.6,194.2z"/>
		<path class="st37" d="M314.7,194.6c4.6,2,9.8,2,14.3,0v-49.7c0,0-1.7-0.8-7.2-0.8s-7.2,0.8-7.2,0.8L314.7,194.6z"/>
		<path class="st38" d="M314.7,150.9c0.6-0.2,1.2-0.4,1.8-0.5c0.8-1.3,2.9-2.2,5.4-2.2s4.6,0.9,5.4,2.2c0.6,0.1,1.2,0.2,1.8,0.5v3.4
			c-0.9-0.3-1.8-0.6-2.8-0.6c-2.7,1.6-6,1.6-8.7,0c-1,0.1-1.9,0.3-2.8,0.6L314.7,150.9z"/>
		<path class="st38" d="M321.9,190.8c5.5,0,7.2-0.8,7.2-0.8v-3.4c0,0-1.7,0.8-7.2,0.8s-7.2-0.8-7.2-0.8v3.4
			C314.7,190,316.4,190.8,321.9,190.8z"/>
		<path class="st38" d="M321.9,193.9c5.5,0,7.2-0.8,7.2-0.8v-1.7c0,0-1.7,0.9-7.2,0.9s-7.2-0.9-7.2-0.9v1.7
			C314.7,193.1,316.4,193.9,321.9,193.9z"/>
		<path class="st39" d="M353.4,194.8c3.9,1.7,8.3,1.7,12.2,0v-55.4c0,0-1.5-0.7-6.1-0.7s-6.1,0.7-6.1,0.7L353.4,194.8z"/>
		<path class="st40" d="M359.4,140.7c4.6,0,6.1,0.7,6.1,0.7v2.9c0,0-1.5-0.7-6.1-0.7s-6.1,0.7-6.1,0.7v-2.9
			C353.3,141.4,354.8,140.7,359.4,140.7z"/>
		<path class="st40" d="M359.4,191.6c4.6,0,6.1-0.7,6.1-0.7V188c0,0-1.5,0.7-6.1,0.7s-6.1-0.7-6.1-0.7v2.9
			C353.3,190.9,354.8,191.6,359.4,191.6z"/>
		<path class="st40" d="M359.4,194.2c4.6,0,6.1-0.7,6.1-0.7v-1.4c0,0-1.5,0.7-6.1,0.7s-6.1-0.7-6.1-0.7v1.4
			C353.3,193.5,354.8,194.2,359.4,194.2z"/>
		<path class="st31" d="M329,194.8c3.9,1.7,8.3,1.7,12.2,0v-42.1c0,0-1.5-0.7-6.1-0.7s-6.1,0.7-6.1,0.7L329,194.8z"/>
		<path class="st32" d="M335.1,157c4.6,0,6.1,0.7,6.1,0.7v2.9c0,0-1.5-0.7-6.1-0.7s-6.1,0.7-6.1,0.7v-2.9
			C329,157.8,330.5,157,335.1,157z"/>
		<path class="st32" d="M335.1,168c4.6,0,6.1,0.7,6.1,0.7v13.5c0,0-1.5,0.5-6.1,0.5s-6.1-0.5-6.1-0.5v-13.5
			C329,168.7,330.5,168,335.1,168z"/>
		<path class="st32" d="M335.1,154.4c4.6,0,6.1,0.7,6.1,0.7v1.4c0,0-1.5-0.7-6.1-0.7s-6.1,0.7-6.1,0.7v-1.4
			C329,155.1,330.5,154.4,335.1,154.4z"/>
		<path class="st41" d="M341.2,194.8c3.9,1.7,8.3,1.7,12.2,0V145c0,0-1.5-0.7-6.1-0.7s-6.1,0.7-6.1,0.7V194.8z"/>
		<path class="st42" d="M347.3,146.3c4.6,0,6.1,0.7,6.1,0.7v2.9c0,0-1.5-0.7-6.1-0.7s-6.1,0.7-6.1,0.7V147
			C341.2,147,342.6,146.3,347.3,146.3z"/>
		<path class="st51" d="M278.6,208.3V200c0-2.7,2.2-4.9,4.9-4.9l0,0H562c2.7,0,4.9,2.2,4.9,4.9l0,0v8.3H278.6z"/>
		<path class="st35" d="M544,239.5h-44.1c-3.8,0-6.9-3.1-6.9-6.9s3.1-6.9,6.9-6.9H544c0.4,0,0.8-0.3,0.8-0.8s-0.3-0.8-0.8-0.8h-44.1
			c-4.6,0-8.4,3.8-8.4,8.4s3.8,8.4,8.4,8.4H544c0.4,0,0.7-0.3,0.7-0.7c0,0,0,0,0,0C544.8,239.9,544.5,239.5,544,239.5
			C544,239.5,544,239.5,544,239.5z"/>
		<path class="st45" d="M543.6,225.7h-41.9c-3.8,0.1-6.8,3.3-6.6,7.2c0.1,3.6,3,6.5,6.6,6.6h41.9V225.7z"/>
		<path class="st46" d="M543.6,237.8h-42.9c-3.1,0.2-5.7-2.1-5.9-5.2c0-3.8,3.1-6.9,6.9-6.9l0,0h-1.8c-3.8-0.1-7,2.8-7.2,6.6
			s2.8,7,6.6,7.2c0.2,0,0.4,0,0.5,0h43.7V237.8z"/>
		<polygon class="st47" points="504,228.4 520.6,228.3 537.1,228.4 520.6,228.5 		"/>
		<path class="st47" d="M496.8,232.6c8.4-0.1,16.8-0.1,25.3,0C513.6,232.7,505.2,232.7,496.8,232.6z"/>
		<path class="st47" d="M510.6,236.3c11-0.1,22-0.1,33,0C532.6,236.4,521.6,236.4,510.6,236.3z"/>
		<path class="st47" d="M508.4,234.1c11.8-0.1,23.5-0.1,35.2,0C531.9,234.3,520.1,234.3,508.4,234.1z"/>
		<path class="st47" d="M508.4,230.3c11.8-0.2,23.5-0.2,35.2,0C531.9,230.5,520.1,230.5,508.4,230.3z"/>
		<path class="st47" d="M529.6,227.1c4.7-0.1,9.3-0.1,14,0C538.9,227.2,534.3,227.2,529.6,227.1z"/>
		<path class="st47" d="M503.2,238.3c12.6-0.1,25.3-0.1,37.9,0C528.5,238.4,515.9,238.4,503.2,238.3z"/>
		<path class="st47" d="M502,231.2c4.5-0.2,9.1-0.2,13.6,0C511.1,231.3,506.6,231.3,502,231.2z"/>
		<path class="st45" d="M543,243.7h-49.7c-2.9,0.1-5.1,2.6-5,5.4c0.1,2.7,2.3,4.9,5,5H543V243.7z"/>
		<path class="st41" d="M543.4,254.1H492c-2.9-0.1-5.1-2.6-5-5.4c0.1-2.7,2.3-4.9,5-5h51.4c0.7,0,1.3-0.6,1.3-1.3
			c0-0.7-0.6-1.3-1.3-1.3c0,0,0,0,0,0h-52c-4.3,0.4-7.5,4.3-7.1,8.6c0.4,3.8,3.3,6.8,7.1,7.1h52c0.7,0,1.3-0.6,1.3-1.3
			C544.8,254.7,544.2,254.1,543.4,254.1C543.4,254.1,543.4,254.1,543.4,254.1L543.4,254.1z"/>
		<path class="st47" d="M499.6,245.6c12.6-0.1,25.2-0.1,37.8,0C524.8,245.7,512.2,245.7,499.6,245.6z"/>
		<path class="st47" d="M493.4,248.9c8.9-0.1,17.8-0.1,26.7,0C511.3,249,502.4,249,493.4,248.9z"/>
		<path class="st47" d="M505.2,251.2c12.6-0.1,25.2-0.1,37.8,0C530.4,251.3,517.8,251.3,505.2,251.2z"/>
		<path class="st47" d="M503.3,249.8c13.2-0.1,26.4-0.1,39.7,0C529.8,249.9,516.6,249.9,503.3,249.8z"/>
		<path class="st47" d="M503.3,247.2c13.2-0.1,26.4-0.1,39.7,0C529.8,247.3,516.6,247.3,503.3,247.2z"/>
		<path class="st47" d="M531,244.4c4-0.1,8-0.1,12,0C539,244.5,535,244.5,531,244.4z"/>
		<path class="st47" d="M499,252c14-0.1,28-0.1,41.9,0C526.9,252.1,512.9,252.1,499,252z"/>
		<path class="st47" d="M497.9,247.9c5.6-0.2,11.2-0.2,16.8,0C509.1,248.1,503.5,248.1,497.9,247.9z"/>
		<path class="st46" d="M493.1,252.6c-3.8,0-5-2.7-5-3.8c0-2.9,2.3-5.2,5.2-5.2c0,0,0,0,0,0H492c-2.9,0.1-5.1,2.6-5,5.4
			c0.1,2.7,2.3,4.9,5,5h51v-1.4L493.1,252.6z"/>
		<path class="st45" d="M543.7,258.4H500c-3.2,0.1-5.6,2.8-5.5,5.9c0.1,3,2.5,5.3,5.5,5.5h43.7V258.4z"/>
		<path class="st37" d="M543.9,269.8h-45.4c-3.1-0.1-5.6-2.8-5.5-5.9c0.1-3,2.5-5.3,5.5-5.5h45.4c0.5,0,0.8-0.4,0.8-0.8
			s-0.4-0.8-0.8-0.8c0,0,0,0,0,0h-46c-1.8,0.2-3.5,1-4.8,2.4c-2.8,3-2.6,7.7,0.5,10.5c1.2,1.1,2.7,1.8,4.3,1.9h46
			c0.5,0,0.8-0.4,0.8-0.8S544.3,269.8,543.9,269.8C543.9,269.8,543.9,269.8,543.9,269.8z"/>
		<polygon class="st47" points="509.6,260.5 520.9,260.4 532.2,260.5 520.9,260.6 		"/>
		<path class="st47" d="M500,264.1c8.8-0.1,17.6-0.1,26.4,0C517.6,264.2,508.8,264.2,500,264.1z"/>
		<path class="st47" d="M515.8,266.7c9.3-0.1,18.7-0.1,28,0C534.4,266.8,525.1,266.8,515.8,266.7z"/>
		<path class="st47" d="M513.7,265.2c10-0.1,20-0.1,30,0C533.7,265.3,523.7,265.3,513.7,265.2z"/>
		<path class="st47" d="M513.7,262.3c10-0.2,20-0.2,30,0C533.7,262.4,523.7,262.4,513.7,262.3z"/>
		<path class="st47" d="M525.2,259.3c6.2-0.1,12.4-0.1,18.5,0C537.6,259.4,531.4,259.4,525.2,259.3z"/>
		<path class="st47" d="M508.9,267.6c8-0.1,16-0.1,24.1,0C524.9,267.7,516.9,267.7,508.9,267.6z"/>
		<path class="st47" d="M507.7,263.1c4.2-0.2,8.5-0.2,12.7,0C516.2,263.3,512,263.3,507.7,263.1z"/>
		<path class="st46" d="M499.7,268.2c-4.2,0-5.4-3-5.4-4.1c0-3.1,2.5-5.7,5.7-5.7c0,0,0,0,0,0h-1.5c-3.2,0.1-5.6,2.8-5.5,5.9
			c0.1,3,2.5,5.3,5.5,5.5h45.2v-1.6L499.7,268.2z"/>
		<path class="st35" d="M337,270.7v-41.2l0,0c-0.1-3.6,2.6-6.6,6.2-6.7c3.6-0.1,6.6,2.6,6.7,6.2c0,0.2,0,0.3,0,0.5l0,0v41.2
			c0,0.4,0.4,0.7,0.8,0.6c0.3,0,0.6-0.3,0.6-0.6v-41.2c0.2-4.3-3.2-8-7.6-8.1c-4.3-0.2-8,3.2-8.1,7.6c0,0.2,0,0.4,0,0.6l0,0v41.2
			c0,0.4,0.2,0.7,0.6,0.8c0.4,0,0.7-0.2,0.8-0.6C337,270.8,337,270.8,337,270.7z"/>
		<path class="st45" d="M350,270.4v-39.2c0-3.6-2.9-6.4-6.5-6.4c-3.6,0-6.4,2.9-6.4,6.4v39.2H350z"/>
		<path class="st46" d="M338.7,270.4v-40.1c-0.2-2.9,2-5.3,4.9-5.5c3.6,0,6.4,2.9,6.4,6.5v-1.7c0-3.6-2.9-6.5-6.4-6.5
			c-3.6,0-6.5,2.9-6.5,6.4c0,0,0,0,0,0v40.8H338.7z"/>
		<polygon class="st47" points="347.5,233.3 347.6,248.8 347.5,264.3 347.3,248.8 		"/>
		<path class="st47" d="M343.5,226.6c0.1,7.9,0.1,15.7,0,23.6C343.4,242.3,343.4,234.5,343.5,226.6z"/>
		<path class="st47" d="M340,239.5c0.1,10.3,0.1,20.6,0,30.9C339.9,260.1,339.9,249.8,340,239.5z"/>
		<path class="st47" d="M342.1,237.4c0.1,11,0.1,22,0,32.9C342,259.4,342,248.4,342.1,237.4z"/>
		<path class="st47" d="M345.7,237.4c0.2,11,0.2,22,0,32.9C345.5,259.4,345.5,248.4,345.7,237.4z"/>
		<path class="st47" d="M348.7,257.3c0.1,4.3,0.1,8.7,0,13.1C348.6,266,348.6,261.6,348.7,257.3z"/>
		<path class="st47" d="M338.2,232.6c0.1,11.8,0.1,23.6,0,35.4C338.1,256.2,338.1,244.4,338.2,232.6z"/>
		<path class="st47" d="M344.9,231.5c0.2,4.3,0.2,8.5,0,12.8C344.7,240,344.7,235.8,344.9,231.5z"/>
		<path class="st45" d="M333.2,269.8v-46.4c0-2.7-2.2-4.9-4.9-4.9c-2.7,0-4.9,2.2-4.9,4.9v46.4H333.2z"/>
		<path class="st41" d="M323.5,270.2v-48c0-2.7,2.2-4.9,4.9-4.9c2.7,0,4.9,2.2,4.9,4.9v48c0,0.7,0.5,1.2,1.2,1.2c0,0,0,0,0,0
			c0.7,0,1.2-0.6,1.3-1.2v-48.7c-0.4-4.1-4-7-8.1-6.6c-3.5,0.3-6.3,3.1-6.6,6.6v48.7c0,0.7,0.6,1.2,1.2,1.2
			C322.9,271.4,323.5,270.9,323.5,270.2z"/>
		<path class="st47" d="M331.4,229.2c0.1,11.8,0.1,23.6,0,35.4C331.3,252.8,331.3,241,331.4,229.2z"/>
		<path class="st47" d="M328.3,223.5c0.1,8.3,0.1,16.7,0,25C328.2,240.1,328.2,231.8,328.3,223.5z"/>
		<path class="st47" d="M326.1,234.5c0.1,11.8,0.1,23.5,0,35.3C326.1,258,326.1,246.3,326.1,234.5z"/>
		<path class="st47" d="M327.4,232.7c0.1,12.4,0.1,24.7,0,37.1C327.3,257.4,327.3,245.1,327.4,232.7z"/>
		<polygon class="st47" points="329.9,232.7 330,251.3 329.9,269.8 329.8,251.3 		"/>
		<path class="st47" d="M332.5,258.6c0.1,3.7,0.1,7.5,0,11.2C332.4,266.1,332.4,262.3,332.5,258.6z"/>
		<path class="st47" d="M325.4,228.6c0.1,13.1,0.1,26.1,0,39.2C325.3,254.8,325.3,241.7,325.4,228.6z"/>
		<polygon class="st47" points="329.2,227.6 329.3,235.5 329.2,243.4 329.1,235.5 		"/>
		<path class="st46" d="M324.8,223.2c0-3.5,2.5-4.6,3.5-4.6c2.7,0,4.9,2.2,4.9,4.8c0,0,0,0,0,0v-1.3c0-2.7-2.2-4.9-4.9-4.9
			c-2.7,0-4.9,2.2-4.9,4.9v47.7h1.4V223.2z"/>
		<path class="st45" d="M319.4,270.5v-40.9c-0.1-2.9-2.6-5.2-5.6-5.1c-2.8,0.1-5,2.3-5.1,5.1v40.9L319.4,270.5z"/>
		<path class="st37" d="M308.8,270.6v-42.5l0,0c0.1-2.9,2.6-5.2,5.6-5.1c2.8,0.1,5,2.3,5.1,5.1l0,0v42.5c0,0.4,0.3,0.8,0.8,0.8
			c0,0,0,0,0,0c0.4,0,0.8-0.4,0.8-0.8v-43c-0.3-3.5-3.3-6.3-6.9-6.3c-1.7,0-3.4,0.7-4.7,1.8c-1.3,1.2-2,2.7-2.2,4.5v43
			c0,0.4,0.3,0.8,0.7,0.9c0.4,0,0.8-0.3,0.9-0.7C308.8,270.7,308.8,270.7,308.8,270.6L308.8,270.6z"/>
		<polygon class="st47" points="317.4,238.6 317.5,249.1 317.4,259.7 317.3,249.1 		"/>
		<path class="st47" d="M314.1,229.6c0.1,8.2,0.1,16.4,0,24.7C314,246.1,314,237.9,314.1,229.6z"/>
		<path class="st47" d="M311.7,244.3c0.1,8.7,0.1,17.4,0,26.2C311.6,261.8,311.6,253,311.7,244.3z"/>
		<path class="st47" d="M313.1,242.4c0.1,9.4,0.1,18.7,0,28.1C313,261.1,313,251.7,313.1,242.4z"/>
		<path class="st47" d="M315.8,242.4c0.2,9.4,0.2,18.7,0,28.1C315.6,261.1,315.6,251.7,315.8,242.4z"/>
		<path class="st47" d="M318.6,253.1c0.1,5.8,0.1,11.6,0,17.3C318.5,264.7,318.5,258.9,318.6,253.1z"/>
		<path class="st47" d="M310.8,237.9c0.1,7.5,0.1,15,0,22.5C310.7,252.9,310.7,245.4,310.8,237.9z"/>
		<path class="st47" d="M315,236.8c0.2,4,0.2,8,0,11.9C314.9,244.8,314.9,240.8,315,236.8z"/>
		<path class="st46" d="M310.2,229.3c0-3.9,2.8-5.1,3.9-5.1c2.9,0,5.3,2.4,5.3,5.3v-1.4c-0.1-2.9-2.6-5.2-5.6-5.1
			c-2.8,0.1-5,2.3-5.1,5.1v42.3h1.5L310.2,229.3z"/>
		<path class="st31" d="M376.9,270.8v-35.3l0,0c0.1-3.1,2.7-5.4,5.8-5.3c2.9,0.1,5.2,2.4,5.3,5.3l0,0v35.3c0,0.3,0.3,0.6,0.7,0.5
			c0.3,0,0.5-0.2,0.5-0.5v-35.3c0.1-3.7-2.8-6.8-6.5-7c-3.7-0.1-6.8,2.8-7,6.5c0,0.2,0,0.3,0,0.5l0,0v35.3c0,0.3,0.2,0.6,0.6,0.6
			c0,0,0,0,0,0C376.6,271.4,376.9,271.2,376.9,270.8C376.9,270.8,376.9,270.8,376.9,270.8z"/>
		<path class="st45" d="M387.9,270.5v-33.6c0.1-3.1-2.2-5.6-5.3-5.8c-3.1-0.1-5.6,2.2-5.8,5.3c0,0.2,0,0.3,0,0.5v33.6L387.9,270.5z"
			/>
		<path class="st46" d="M378.2,270.5v-34.4c-0.1-2.5,1.7-4.6,4.2-4.8c3.1,0,5.5,2.5,5.5,5.5v-1.4c0.1-3.1-2.2-5.6-5.3-5.8
			c-3.1-0.1-5.6,2.2-5.8,5.3c0,0.2,0,0.3,0,0.5v35L378.2,270.5z"/>
		<path class="st47" d="M385.8,238.7c0.1,8.8,0.1,17.7,0,26.6C385.7,256.4,385.7,247.6,385.8,238.7z"/>
		<path class="st47" d="M382.4,233c0.1,6.8,0.1,13.5,0,20.3C382.3,246.5,382.3,239.7,382.4,233z"/>
		<path class="st47" d="M379.4,244c0.1,8.8,0.1,17.7,0,26.5C379.4,261.7,379.4,252.8,379.4,244z"/>
		<path class="st47" d="M381.2,242.2c0.1,9.4,0.1,18.9,0,28.3C381.1,261.1,381.1,251.7,381.2,242.2z"/>
		<polygon class="st47" points="384.3,242.2 384.4,256.4 384.3,270.5 384.2,256.4 		"/>
		<path class="st47" d="M386.9,259.3c0.1,3.7,0.1,7.5,0,11.2C386.8,266.8,386.8,263,386.9,259.3z"/>
		<path class="st47" d="M377.9,238.1c0.1,10.1,0.1,20.3,0,30.4C377.8,258.4,377.8,248.3,377.9,238.1z"/>
		<polygon class="st47" points="383.6,237.2 383.7,242.6 383.6,248.1 383.5,242.6 		"/>
		<path class="st45" d="M373.6,270v-39.8c0-2.3-1.9-4.2-4.2-4.2c-2.3,0-4.2,1.9-4.2,4.2V270H373.6z"/>
		<path class="st25" d="M365.2,270.4v-41.2c0-2.3,1.9-4.2,4.2-4.2c2.3,0,4.2,1.9,4.2,4.2v41.2c0,0.6,0.5,1.1,1.1,1.1
			s1.1-0.5,1.1-1.1v-41.7c-0.3-3.5-3.4-6.1-6.9-5.8c-3.1,0.3-5.5,2.7-5.8,5.8v41.7c0.1,0.6,0.6,1,1.2,1
			C364.7,271.3,365.1,270.9,365.2,270.4z"/>
		<path class="st47" d="M372,235.2c0.1,10.1,0.1,20.2,0,30.4C371.9,255.4,371.9,245.3,372,235.2z"/>
		<path class="st47" d="M369.4,230.3c0.1,7.2,0.1,14.3,0,21.5C369.3,244.6,369.3,237.4,369.4,230.3z"/>
		<path class="st47" d="M367.5,239.7c0.1,10.1,0.1,20.2,0,30.3C367.4,259.9,367.4,249.8,367.5,239.7z"/>
		<path class="st47" d="M368.6,238.2c0.1,10.6,0.1,21.2,0,31.8C368.5,259.4,368.5,248.8,368.6,238.2z"/>
		<path class="st47" d="M370.7,238.2c0.1,10.6,0.1,21.2,0,31.8C370.6,259.4,370.6,248.8,370.7,238.2z"/>
		<path class="st47" d="M372.9,260.4c0.1,3.2,0.1,6.4,0,9.6C372.9,266.8,372.9,263.6,372.9,260.4z"/>
		<path class="st47" d="M366.8,234.7c0.1,11.2,0.1,22.4,0,33.6C366.8,257.1,366.8,245.9,366.8,234.7z"/>
		<path class="st47" d="M370.1,233.9c0.1,4.5,0.1,9,0,13.5C370,242.9,370,238.4,370.1,233.9z"/>
		<path class="st46" d="M366.4,230c0-3,2.2-4,3-4c2.3,0,4.2,1.9,4.2,4.1c0,0,0,0,0,0v-1.1c0-2.3-1.9-4.2-4.2-4.2
			c-2.3,0-4.2,1.9-4.2,4.2V270h1.2L366.4,230z"/>
		<path class="st45" d="M361.7,270.6v-35.1c-0.1-2.5-2.3-4.5-4.8-4.4c-2.4,0.1-4.3,2-4.4,4.4v35.1H361.7z"/>
		<path class="st39" d="M352.6,270.7v-36.4l0,0c0.1-2.5,2.3-4.5,4.8-4.4c2.4,0.1,4.2,2,4.4,4.4l0,0v36.4c0,0.4,0.3,0.7,0.7,0.7
			c0,0,0,0,0,0c0.4,0,0.7-0.3,0.7-0.7v-36.9c-0.1-1.5-0.8-2.8-1.9-3.8c-2.4-2.2-6.2-2.1-8.4,0.4c-0.9,1-1.4,2.2-1.5,3.4v36.9
			c0,0.4,0.4,0.6,0.8,0.6C352.3,271.3,352.5,271.1,352.6,270.7L352.6,270.7z"/>
		<path class="st47" d="M360,243.2c0.1,6,0.1,12.1,0,18.2C359.9,255.3,359.9,249.3,360,243.2z"/>
		<path class="st47" d="M357.1,235.6c0.1,7.1,0.1,14.1,0,21.2C357.1,249.7,357.1,242.6,357.1,235.6z"/>
		<path class="st47" d="M355.1,248.2c0.1,7.5,0.1,15,0,22.4C355,263.1,355,255.6,355.1,248.2z"/>
		<path class="st47" d="M356.3,246.5c0.1,8,0.1,16,0,24.1C356.2,262.6,356.2,254.5,356.3,246.5z"/>
		<polygon class="st47" points="358.6,246.5 358.8,258.6 358.6,270.6 358.5,258.6 		"/>
		<path class="st47" d="M361,255.7c0.1,5,0.1,9.9,0,14.9C361,265.7,361,260.7,361,255.7z"/>
		<path class="st47" d="M354.4,242.6c0.1,6.4,0.1,12.9,0,19.3C354.3,255.5,354.3,249.1,354.4,242.6z"/>
		<polygon class="st47" points="358,241.7 358.1,246.8 358,251.9 357.9,246.8 		"/>
		<path class="st46" d="M353.8,235.3c0-3.3,2.4-4.3,3.3-4.3c2.5,0,4.6,2,4.6,4.5l0,0v-1.2c-0.1-2.5-2.3-4.5-4.8-4.4
			c-2.4,0.1-4.3,2-4.4,4.4v36.3h1.3V235.3z"/>
		<path class="st25" d="M460.6,247.5c1.9,0.9,4.1,0.9,6,0v-20.8c-2-0.5-4-0.5-6,0V247.5z"/>
		<path class="st26" d="M462.1,230.9c0,0.8,0.7,1.5,1.5,1.5s1.5-0.7,1.5-1.5c0-0.8-0.7-1.5-1.5-1.5h0
			C462.8,229.4,462.1,230.1,462.1,230.9C462.1,230.9,462.1,230.9,462.1,230.9z"/>
		<path class="st26" d="M463.6,227.3c1-0.1,2,0,3,0.3v1.4c-2-0.5-4-0.5-6,0v-1.4C461.6,227.4,462.6,227.2,463.6,227.3z"/>
		<path class="st26" d="M463.6,245.9c1,0.1,2,0,3-0.3v-1.4c-2,0.5-4,0.5-6,0v1.4C461.6,245.9,462.6,246,463.6,245.9z"/>
		<path class="st26" d="M463.6,247.2c1,0.1,2,0,3-0.3v-0.7c-2,0.5-4,0.5-6,0v0.7C461.6,247.2,462.6,247.3,463.6,247.2z"/>
		<path class="st27" d="M435.5,247.4c2.2,1,4.8,1,7.1,0v-24.5c-1.1-0.4-2.3-0.5-3.5-0.4c-1.2-0.1-2.4,0-3.5,0.4V247.4z"/>
		<path class="st28" d="M435.5,225.8c0.3-0.1,0.6-0.2,0.9-0.2c1.5-1.5,3.8-1.5,5.3,0c0.3,0,0.6,0.1,0.9,0.2v1.7
			c-0.4-0.2-0.9-0.3-1.4-0.3c-1.3,0.8-3,0.8-4.3,0c-0.5,0-0.9,0.1-1.4,0.3V225.8z"/>
		<path class="st28" d="M439,245.5c1.2,0.1,2.4-0.1,3.5-0.4v-1.7c-1.1,0.4-2.3,0.5-3.5,0.5c-1.2,0.1-2.4-0.1-3.5-0.4v1.7
			C436.6,245.5,437.8,245.6,439,245.5z"/>
		<path class="st28" d="M439,247.1c1.2,0.1,2.4-0.1,3.5-0.4v-0.8c-1.1,0.4-2.3,0.5-3.5,0.4c-1.2,0.1-2.4,0-3.5-0.4v0.8
			C436.6,247,437.8,247.2,439,247.1z"/>
		<path class="st29" d="M454.6,247.5c0.9,0.4,2,0.6,3,0.7c1,0,2.1-0.2,3-0.7V217c-1-0.3-2-0.4-3-0.3c-1-0.1-2,0-3,0.3V247.5z"/>
		<path class="st30" d="M457.6,217.6c1-0.1,2,0,3,0.4v1.4c-1-0.3-2-0.4-3-0.3c-1-0.1-2,0-3,0.3V218
			C455.5,217.7,456.6,217.5,457.6,217.6z"/>
		<path class="st30" d="M457.6,245.9c1,0.1,2,0,3-0.3v-1.4c-1,0.3-2,0.4-3,0.4c-1,0.1-2,0-3-0.4v1.4
			C455.5,245.9,456.6,246,457.6,245.9z"/>
		<path class="st30" d="M457.6,247.2c1,0.1,2,0,3-0.3v-0.7c-1,0.3-2,0.4-3,0.4c-1,0.1-2,0-3-0.4v0.7
			C455.6,247.2,456.6,247.3,457.6,247.2z"/>
		<path class="st31" d="M442.6,247.5c1.9,0.9,4.1,0.9,6,0v-20.8c-2-0.5-4-0.5-6,0V247.5z"/>
		<path class="st32" d="M445.6,228.9c1-0.1,2,0,3,0.3v1.4c-2-0.5-4-0.5-6,0v-1.5C443.5,228.9,444.6,228.8,445.6,228.9z"/>
		<path class="st32" d="M445.6,234.3c1-0.1,2,0,3,0.4v6.7c-2,0.3-4,0.3-6,0v-6.7C443.5,234.3,444.6,234.2,445.6,234.3z"/>
		<path class="st32" d="M445.6,227.6c1-0.1,2,0,3,0.3v0.7c-2-0.5-4-0.5-6,0v-0.7C443.5,227.6,444.6,227.5,445.6,227.6z"/>
		<path class="st33" d="M448.6,247.5c0.9,0.4,2,0.6,3,0.7c1,0,2.1-0.2,3-0.7v-27.7c-1-0.3-2-0.4-3-0.4c-1-0.1-2,0-3,0.4V247.5z"/>
		<path class="st34" d="M451.6,220.4c1-0.1,2,0,3,0.3v1.4c-1-0.3-2-0.4-3-0.3c-1-0.1-2,0-3,0.3v-1.4
			C449.5,220.4,450.6,220.3,451.6,220.4z"/>
		<path class="st39" d="M418.4,259.3c-1.7,3.9-1.7,8.3,0,12.2h61.8c0,0,0.7-1.5,0.7-6.1s-0.7-6.1-0.7-6.1L418.4,259.3z"/>
		<path class="st40" d="M478.9,265.3c0,4.6-0.7,6.1-0.7,6.1h-2.9c0,0,0.7-1.5,0.7-6.1s-0.7-6.1-0.7-6.1h2.9
			C478.2,259.3,478.9,260.7,478.9,265.3z"/>
		<path class="st40" d="M421.6,265.3c0,4.6,0.7,6.1,0.7,6.1h2.9c0,0-0.7-1.5-0.7-6.1s0.7-6.1,0.7-6.1h-2.9
			C422.3,259.3,421.6,260.7,421.6,265.3z"/>
		<path class="st40" d="M419,265.3c0,4.6,0.7,6.1,0.7,6.1h1.4c0,0-0.7-1.5-0.7-6.1s0.7-6.1,0.7-6.1h-1.4
			C419.7,259.3,419,260.7,419,265.3z"/>
		<path class="st41" d="M421.2,247.1c-1.7,3.9-1.7,8.3,0,12.2h56.2c0,0,0.7-1.5,0.7-6.1s-0.7-6.1-0.7-6.1L421.2,247.1z"/>
		<path class="st42" d="M476.2,253.2c0,4.6-0.7,6.1-0.7,6.1h-2.9c0,0,0.7-1.5,0.7-6.1s-0.7-6.1-0.7-6.1h2.9
			C475.4,247.1,476.2,248.6,476.2,253.2z"/>
		<path class="st51" d="M278.6,284.7v-8.3c0-2.7,2.2-4.9,4.9-4.9l0,0H562c2.7,0,4.9,2.2,4.9,4.9l0,0v8.3H278.6z"/>
		<path class="st51" d="M278.6,131.9v-8.3c0-2.7,2.2-4.9,4.9-4.9l0,0H562c2.7,0,4.9,2.2,4.9,4.9l0,0v8.3H278.6z"/>
		<path class="st51" d="M278.6,208.3V200c0-2.7,2.2-4.9,4.9-4.9l0,0H562c2.7,0,4.9,2.2,4.9,4.9l0,0v8.3H278.6z"/>
		<path class="st51" d="M278.6,284.7v-8.3c0-2.7,2.2-4.9,4.9-4.9l0,0H562c2.7,0,4.9,2.2,4.9,4.9l0,0v8.3H278.6z"/>
		<path class="st52" d="M579.3,169.5c-22.1,5-44,62.6-44,62.6l5.6,12.3c0,0,8.3,2.4,14.6-3.2s23.9-28.6,23.9-28.6L579.3,169.5z"/>
		<path class="st53" d="M615.2,481.4V478c0-3.9-3.6-10.9-3.6-13.5s-10.1,2.1-10.1,2.1c-0.3,2.8-1.5,5.5-3.5,7.5
			c-1.8,2-2.7,4.6-2.5,7.2H615.2z"/>
		<path class="st53" d="M546.4,481.4l1.7-0.8l0.8,0.8h6.7c0.7-1.9,2.9-9.1,0.9-14.1c-2.4-5.8-9.7-4.3-9.7-4.3s-5,6.8-7.8,8.1
			s-13.8,5.6-15.1,8.5c-0.4,0.8,0.3,1.4,0.1,1.8H546.4z"/>
		<path class="st54" d="M568.7,265c-3.8,54.3-14.1,125.5-25.3,200.5c0,0,2.2,3.5,14.7,1.7l38.3-159.1c0.2-0.4,0.6-0.7,1-0.7
			c0.6,0,1.1,0.4,1.1,1c0.4,12,4.3,48.7,2.2,159.2c4.3,2.1,9.3,2.1,13.5,0c0,0,24.7-163.5,19-194.8L568.7,265z"/>
		<path class="st55" d="M634.2,283.6c0,0-10.5,10.9-41.2,6.1c-17.4-2.7-25.3-11.2-25.3-11.2s-5.6-94.3,0.6-102.2
			c4.5-5.8,13.3-8.3,24.8-8.9c4.3-0.2,9-0.2,14.1,0c3.6,0.2,7.1,0.7,10.5,1.7c12.9,3.6,21.9,11.9,23.3,18.5
			C642.6,195.9,634.2,283.6,634.2,283.6z"/>
		<path class="st56" d="M593.6,162.3c0,0,2.6,4.6,1,11.7c0,0,9.6,5.9,16.5-1.5c0,0-3-16.6-1.3-20.4c0-1.1-0.3-2.2-0.9-3.1
			C608.9,148.9,603.2,160,593.6,162.3z"/>
		<path class="st57" d="M540.7,207.1c0,0,4.6-3.9,10.4,4.6c0,0-1.9,17.5-5.9,19.3C541.2,232.8,539.8,212.1,540.7,207.1z"/>
		<path class="st58" d="M535.4,167.6l1.6-1.6c0,0,3.5,0.3,6.9,8.1c3.4,7.8,6.8,15.9,6.8,15.9l-6.1-2.6L535.4,167.6z"/>
		<path class="st58" d="M542.6,173.1c0,0,5.9-6,19.6-5.1l12.6,23.8l-21.2,2.2L542.6,173.1z"/>
		<polygon class="st59" points="532.8,165.6 542.6,173.1 564.7,168.2 578.4,193.5 555,198.5 543.4,188.2 		"/>
		<polygon class="st60" points="542.6,173.1 555,198.5 578.4,193.5 564.7,168.2 		"/>
		<polygon class="st56" points="544.3,197.6 539.7,212.6 546.7,219 550.4,200.9 		"/>
		<path class="st56" d="M545.1,188.3c0,0-2,8.9-0.9,11.7c0.8,2,6.4,6,8.5-1.2C553.8,194.7,545.1,188.3,545.1,188.3z"/>
		<path class="st61" d="M551.4,191.5l-1.4,1.7c0,0,3.8-0.8,4.4-0.5s2.8,0.9,2.8,0.9s0,1.7-1.6,1.4c-1.6-0.3-3.9,0.8-3.9,0.8
			s2.5,0,3,0.6c0.7,0.7,1.5,1.3,2.2,1.9c0,0,0,1.1-1.4,0.6c-0.1-0.1-0.3-0.1-0.4-0.1c-0.5-0.3-1.1-0.6-1.4-0.5
			c-0.5,0.2-2.5,0.4-3.3-0.2s-0.1-1.5-0.1-1.5c-0.7,0.3-1.5,0.1-2-0.4c-0.5-0.6-0.5-1.5-0.1-2.1c0,0-1.7,0.1-2-1
			c0-0.8,0.3-1.5,0.8-2.1c-0.7,0-1.4-0.3-1.8-0.9c-0.3-0.5-0.4-1.2-0.3-1.8c0.6-0.5,1.2-1,1.9-1.3c1.6-0.5,6.2-0.1,6.2-0.1
			s0.5,2-1.1,1.8c-1.5-0.3-3,0.3-3.9,1.6l3.2-1.1l4.1,0.2c0,0,0.1,1.9-0.8,2C553.7,191.5,551.4,191.5,551.4,191.5z"/>
		<path class="st52" d="M551.1,211.7c0,0-6.1,6.8-10.4-4.6c0,0-9.4,28-5.7,33.5s10.9,5.2,14.1-1.2S551.1,211.7,551.1,211.7z"/>
		<path class="st52" d="M637.4,181.3c0,0-12.9,5.2-9.5,30.3c0.9,6.8,18.2,30.5,18.2,30.5l-25.7,52.1c0,0,1.8,8.8,8.8,12.1
			c0,0,34.6-50.5,36.1-57.9C666.8,241,645.3,186.3,637.4,181.3z"/>
		<path class="st61" d="M613,144.4c3.2,20.6-18.7,26.5-25,19.6c-2-2.2-4.2-6.4-5.8-11.2c-0.4-1.1-0.7-2.2-1-3.3
			c-2.1-7.5-2.4-15.3,1.5-18C596.6,122.4,609.8,123.8,613,144.4z"/>
		<path class="st62" d="M576.2,132.8c0,0,0.9-10.8,16.8-12.6c1.8-0.2,3.6-0.2,5.4,0c8.9,0.3,15.4,3.3,17.2,16.9
			c2.4,17.9-4.1,19.9-4.1,19.9c2.6-11.4-2.9-12-2.9-12c-2-5-7.4-15.9-7.4-15.9s-10.4,0.6-14.3,7.1v-2.8c0,0-4.1,2.6-5.1,5.3v-2.5
			c0,0-2.7,2.8-2.9,5.5c0,0-2.3-5.6-0.9-10.4L576.2,132.8z"/>
		<path class="st61" d="M608.6,144.9c0,0,2.4-4.6,6-3s0.2,10-3.2,10.5S608.6,144.9,608.6,144.9z"/>
		<path class="st63" d="M358.9,255.8c-0.8,1.4-0.5,3.2,0.8,4.3c2.2,1.9,3.4,4.8,2.6,6.7s-6.3,4.5-8.1,3.8s-5.1-3.7-4.6-4.7
			s-1.4-9.4,3.4-12S358.9,255.8,358.9,255.8z"/>
		<path class="st64" d="M350,172.6c0,0,15.8,4.7,26.5,23.7s17.7,33,14.5,39s-27.2,25.3-30.9,24.9s-9.4-3.6-9.1-9.3
			c0,0,17.6-19.2,15-22.7c-1.1-1.5-17.9-17.5-21.2-11.5C339.3,226.4,350,172.6,350,172.6z"/>
		<path class="st64" d="M314.9,167.6c0,0-31.4,29.6-32.9,40.9s14.9,29,14.9,29L314.9,167.6z"/>
		<path class="st53" d="M328.3,478.9c0,0,0.7,10,2.6,14.3h39.2c-0.7-1.4-2.2-3.3-5.8-3.8c-6.1-1-16.4-5-20.1-12.5
			C340.3,468.9,328.3,478.9,328.3,478.9z"/>
		<path class="st53" d="M281.5,478.9c0,0,0.7,10,2.6,14.3h39.2c-0.7-1.4-2.2-3.3-5.8-3.8c-6.1-1-16.4-5-20.1-12.5
			C293.5,468.9,281.5,478.9,281.5,478.9z"/>
		<path class="st65" d="M351.6,307.4c0,0-5.5,32.5-26,90.3s-23.3,82.8-23.3,82.8l-22-0.6c0,0-0.2-63.1,9.3-92.2s2-104.7,2-104.7
			L351.6,307.4z"/>
		<path class="st54" d="M362.3,284.8c-0.1,36.6-2.9,73.1-8.4,109.3c-9.2,60.2-6.1,85.8-6.1,85.8l-22,0.7c0,0-13.1-60.2-9.4-90.4
			s-18-103.4-18-103.4L362.3,284.8z"/>
		<path class="st63" d="M319.8,170.1l11.7,7.1l16.9-2.9c-0.2-1.3-1.3-6.5-2.4-11.3l-0.2-0.8l-1.6-7.5l-15.8-6.5l-5.9-2.4
			c0,0.1,0.5,4.5,0.5,5.1C323.8,157.5,322.7,164.1,319.8,170.1z"/>
		<path class="st27" d="M290.1,290.9c3.4,14.3,59.9,16,74.5,3c1.7-1.5,1.7-8.4,1.1-17.7c-1.2-18.2-5.2-45.5-5.3-59.5
			c-0.1-6.7-0.9-13.4-2.4-19.9c-1.7-8.1-4.1-16.1-7.2-23.8c0,0-27.6-8.3-32.8-6.9C293.2,172.9,286.8,276.6,290.1,290.9z"/>
		<path class="st66" d="M324.3,151.1c3.5,5.4,16.4,10.1,21.8,11.9l-0.2-0.8l-1.6-7.5l-15.8-6.5C325,148.2,322.8,148.9,324.3,151.1z"
			/>
		<path class="st63" d="M350.2,153.8c0,0-25.4,7.4-30.1-7.4s-11.1-23.7,4.9-29s21-0.6,23.9,4S356.7,151.5,350.2,153.8z"/>
		<path class="st67" d="M347.8,119.9c0,0-1.6,17.1-5.5,16.4s-7.3-1.3-6.7,3.9s5.9,11.1-5.9,12s-28.8-27.3-25.5-32.6
			C313.5,104.3,361.3,101.2,347.8,119.9z"/>
		<path class="st64" d="M344.1,166.5c-0.3-0.1-20.4-5.6-22.5-4.9s-3.5,4.6-3.5,4.6l32.8,6.9C350.8,173,348.3,168.1,344.1,166.5z"/>
	</g>
</g>
</svg>
