<svg id="Layer_2" data-name="Layer 2" xmlns="http://www.w3.org/2000/svg" xmlns:xlink="http://www.w3.org/1999/xlink" viewBox="0 0 838.6 408.58"><defs><style>.cls-1{fill:none;}.cls-2{clip-path:url(#clip-path);}.cls-3{fill:#7b68ad;}.cls-4{fill:#b99ac8;opacity:0.4;}.cls-5{clip-path:url(#clip-path-2);}.cls-6{fill:#ec9385;}.cls-7{fill:#c41f7e;}.cls-8{fill:#3fbca6;}.cls-9{fill:#902472;}.cls-10{fill:#11404e;}.cls-11{fill:url(#linear-gradient);}.cls-12{fill:url(#linear-gradient-2);}.cls-13{fill:url(#linear-gradient-3);}.cls-14{fill:#742051;}.cls-15{fill:#0f5769;}.cls-16{fill:#0d7996;}.cls-17{clip-path:url(#clip-path-4);}.cls-18{fill:#f7e5d3;}.cls-19{fill:#e9cbb1;}.cls-20{fill:#f4d9c0;}.cls-21{fill:#dec2ac;}.cls-22{fill:#d0b29e;}.cls-23{fill:#e9ceb9;}.cls-24,.cls-39{fill:#2b2b2b;}.cls-25{fill:#4d4c4d;}.cls-26{fill:#1d1e29;}.cls-27{fill:#252359;}.cls-28{fill:url(#linear-gradient-4);}.cls-29{fill:#f2c2da;}.cls-30{fill:#383838;}.cls-31{fill:#2f3066;}.cls-32{fill:#2a2e5e;}.cls-33{fill:#fdba12;}.cls-34{fill:#fff;}.cls-35{clip-path:url(#clip-path-5);}.cls-36{fill:#cb9d2c;}.cls-37{opacity:0.63;}.cls-38{fill:#a81e22;}.cls-39{opacity:0.8;}.cls-40{fill:#c6e1dc;opacity:0.85;}.cls-41{fill:#d4e0ed;}.cls-42{fill:#e4e4e4;}.cls-43{fill:#232121;}.cls-44{fill:#888;}</style><clipPath id="clip-path" transform="translate(-168.16 -396.08)"><path class="cls-1" d="M378.55,536l33,221.48s-57.22,21.87-58.81,21.36-63.14,10.9-63.14,10.9H238.49l-51.71-36.62-19-96.64.42-18.72L183.6,595.1l4.45-104.55,66.14,7Z"/></clipPath><clipPath id="clip-path-2" transform="translate(-168.16 -396.08)"><polygon class="cls-1" points="915.06 487.88 854.97 722.41 898.79 767.35 999.17 739 1032.72 657.21 1026.3 581.82 915.06 487.88"/></clipPath><linearGradient id="linear-gradient" x1="349.18" y1="661.79" x2="342.42" y2="835.34" gradientTransform="translate(-424.51 393.3) rotate(-46.63)" gradientUnits="userSpaceOnUse"><stop offset="0" stop-color="#f58d64"/><stop offset="0.09" stop-color="#f58a69"/><stop offset="1" stop-color="#f07997"/></linearGradient><linearGradient id="linear-gradient-2" x1="232.95" y1="745.83" x2="352.02" y2="853.88" gradientTransform="translate(-424.51 393.3) rotate(-46.63)" gradientUnits="userSpaceOnUse"><stop offset="0" stop-color="#c75a80"/><stop offset="1" stop-color="#b31e47"/></linearGradient><linearGradient id="linear-gradient-3" x1="341.77" y1="769.9" x2="426.18" y2="769.9" gradientTransform="translate(-424.51 393.3) rotate(-46.63)" gradientUnits="userSpaceOnUse"><stop offset="0" stop-color="#d99ec6"/><stop offset="1" stop-color="#f8ac8f"/></linearGradient><clipPath id="clip-path-4" transform="translate(-168.16 -396.08)"><path class="cls-1" d="M376.32,517.57,409.8,745.9c.7,32.42,35,58.41,77.05,58.41H769.74c36.46,0,67.94-19.7,75.42-47.2l83.23-320.59c6.67-24.5-22.57-45.78-53.91-39.24L426.8,465.84C396.6,472.14,375.8,493.45,376.32,517.57Z"/></clipPath><linearGradient id="linear-gradient-4" x1="451.69" y1="616.95" x2="494.24" y2="616.95" gradientTransform="matrix(1, 0, 0, 1, 0, 0)" xlink:href="#linear-gradient"/><clipPath id="clip-path-5" transform="translate(-168.16 -396.08)"><path class="cls-1" d="M867.68,665.25S849,770.39,828.33,783.5,790,798.6,703.62,796.17,643,767.64,643,767.64l12.85-38.15,72.85-48.58Z"/></clipPath></defs><title>tourist calling car</title><g class="cls-2"><path class="cls-3" d="M208.34,651.49a217.82,217.82,0,0,1,30.56.7,287.76,287.76,0,0,1,30.15,4.26,302.17,302.17,0,0,1,29.48,7.33A291.17,291.17,0,0,1,327,674.17a275.3,275.3,0,0,1,52.53,29.53A283,283,0,0,1,424,744l-3.37,2.88a278.55,278.55,0,0,0-43.26-40.42,272.91,272.91,0,0,0-51.49-30,293.73,293.73,0,0,0-28.05-10.74A298.6,298.6,0,0,0,268.69,658a283.19,283.19,0,0,0-29.93-4.71,217.07,217.07,0,0,0-30.39-1.16Z" transform="translate(-168.16 -396.08)"/><path class="cls-3" d="M168.16,649.62c3.86,5.41,11.58,9.32,20.77,9.78s17.49-2.64,22.21-7.62c-3.86-5.42-11.58-9.32-20.77-9.78S172.88,644.63,168.16,649.62Z" transform="translate(-168.16 -396.08)"/><path class="cls-3" d="M209,618.19c-2,6.47-.51,14.95,4.61,22.33s12.55,11.8,19.34,12.22c2-6.47.5-15-4.62-22.33S215.78,618.61,209,618.19Z" transform="translate(-168.16 -396.08)"/><path class="cls-3" d="M240.76,523c6.82-.13,14.61,3.64,20.35,10.56s8,15.22,6.51,21.82c-6.82.13-14.62-3.64-20.36-10.56S239.3,529.55,240.76,523Z" transform="translate(-168.16 -396.08)"/><path class="cls-3" d="M286.63,531.08c3.29,4,4.63,10.61,3.05,17.57s-5.68,12.51-10.45,15c-3.29-4-4.62-10.62-3-17.57S281.86,533.56,286.63,531.08Z" transform="translate(-168.16 -396.08)"/><path class="cls-3" d="M279.41,564.81c-2.39,4.76-7.92,8.93-14.94,10.68s-13.77.62-18-2.51c2.39-4.76,7.92-8.93,15-10.68S275.23,561.68,279.41,564.81Z" transform="translate(-168.16 -396.08)"/><path class="cls-3" d="M294.75,578.07c-2.39,4.76-7.92,8.93-14.95,10.68s-13.76.62-17.94-2.51c2.39-4.76,7.92-8.93,14.95-10.68S290.57,574.94,294.75,578.07Z" transform="translate(-168.16 -396.08)"/><path class="cls-3" d="M313.27,594.92c-2.39,4.76-7.91,8.94-14.94,10.69s-13.77.61-17.95-2.51c2.39-4.76,7.92-8.94,14.95-10.68S309.09,591.8,313.27,594.92Z" transform="translate(-168.16 -396.08)"/><path class="cls-3" d="M328.27,610.45c-2.39,4.76-7.92,8.94-14.95,10.68s-13.76.62-17.94-2.5c2.39-4.76,7.92-8.94,14.94-10.69S324.09,607.33,328.27,610.45Z" transform="translate(-168.16 -396.08)"/><path class="cls-3" d="M324.37,607.83c5.32.07,11.57-2.92,16.35-8.37s6.87-11.94,6-17.09c-5.32-.06-11.58,2.93-16.36,8.37S323.51,602.69,324.37,607.83Z" transform="translate(-168.16 -396.08)"/><path class="cls-3" d="M302.46,544.9c3.29,4,4.63,10.61,3.05,17.57s-5.68,12.51-10.45,15c-3.29-4-4.62-10.61-3-17.57S297.69,547.38,302.46,544.9Z" transform="translate(-168.16 -396.08)"/><path class="cls-3" d="M320.39,561.65c3.29,4,4.63,10.61,3.05,17.57s-5.68,12.51-10.45,15c-3.29-4-4.63-10.61-3.05-17.57S315.62,564.13,320.39,561.65Z" transform="translate(-168.16 -396.08)"/><path class="cls-3" d="M242.44,615c-3.67,5.77-4.53,14.41-1.63,22.93s8.79,14.75,15.17,17c3.67-5.77,4.52-14.41,1.63-22.93S248.81,617.19,242.44,615Z" transform="translate(-168.16 -396.08)"/><path class="cls-3" d="M269.28,619.87c-3.67,5.77-4.52,14.41-1.63,22.93s8.8,14.75,15.17,17c3.67-5.77,4.53-14.41,1.64-22.93S275.66,622.07,269.28,619.87Z" transform="translate(-168.16 -396.08)"/><path class="cls-3" d="M204.64,685.24c6.82,0,14.75-4,20.73-11.12s8.49-15.44,7.26-22c-6.82.06-14.75,4-20.73,11.12S203.41,678.67,204.64,685.24Z" transform="translate(-168.16 -396.08)"/><path class="cls-3" d="M228.17,688.19c6.82-.05,14.75-4,20.73-11.11s8.49-15.45,7.26-22c-6.82,0-14.75,4-20.73,11.11S226.94,681.63,228.17,688.19Z" transform="translate(-168.16 -396.08)"/><path class="cls-3" d="M254.54,693.45c6.81-.05,14.74-4,20.72-11.11s8.49-15.45,7.26-22c-6.81,0-14.74,4-20.72,11.11S253.31,686.89,254.54,693.45Z" transform="translate(-168.16 -396.08)"/><path class="cls-3" d="M279.91,692.18c5.55,0,12-3.28,16.86-9s6.9-12.56,5.9-17.9c-5.54,0-12,3.28-16.86,9S278.91,686.84,279.91,692.18Z" transform="translate(-168.16 -396.08)"/><path class="cls-3" d="M417.89,739.79A361.7,361.7,0,0,0,390,686.12c-5.32-8.57-11-16.87-17-25s-12.18-16.05-18.59-23.82a539.34,539.34,0,0,0-41.27-44.12q-10.92-10.44-22.43-20.28C283.05,566.34,275.23,560,267,554l-.79,1.06c8,6,15.78,12.47,23.34,19.09s14.92,13.46,22.09,20.5a535.2,535.2,0,0,1,40.5,44.44c6.29,7.8,12.43,15.72,18.18,23.9s11.36,16.48,16.51,25a357.58,357.58,0,0,1,26.93,53.45Z" transform="translate(-168.16 -396.08)"/><path class="cls-3" d="M408.16,551.76c-2.63,16.7-4.39,33.5-5.53,50.3a473.52,473.52,0,0,0-.87,50.38c.71,16.73,2.45,33.44,6.53,49.49A112.62,112.62,0,0,0,416.81,725c3.76,7.21,8.64,13.86,15,18.71L429,747.16c-6.88-5.5-11.91-12.74-15.68-20.36a115.59,115.59,0,0,1-8.3-24c-3.82-16.47-5.21-33.37-5.58-50.22A474.72,474.72,0,0,1,401.36,602c1.49-16.82,3.6-33.61,6.57-50.28Z" transform="translate(-168.16 -396.08)"/><path class="cls-3" d="M408.24,531.17a13.15,13.15,0,0,0-4.92,10.48c0,4.43,1.86,8.26,4.72,10.27A13.16,13.16,0,0,0,413,541.45,12.32,12.32,0,0,0,408.24,531.17Z" transform="translate(-168.16 -396.08)"/><path class="cls-3" d="M389.61,551.91c.18,3.11,2.27,6.68,5.8,9.33s7.6,3.7,10.72,3.07c-.18-3.11-2.26-6.68-5.79-9.33S392.73,551.28,389.61,551.91Z" transform="translate(-168.16 -396.08)"/><path class="cls-3" d="M404.58,578.23c3.12.45,7.19-.83,10.73-3.69s5.63-6.55,5.82-9.67c-3.13-.44-7.2.84-10.74,3.7S404.76,575.11,404.58,578.23Z" transform="translate(-168.16 -396.08)"/><path class="cls-3" d="M402.36,595.28c3.12.45,7.2-.84,10.73-3.69s5.64-6.55,5.82-9.67c-3.12-.45-7.19.84-10.73,3.69S402.55,592.16,402.36,595.28Z" transform="translate(-168.16 -396.08)"/><path class="cls-3" d="M401.68,608.2c3.12.45,7.19-.84,10.73-3.69s5.63-6.55,5.82-9.67c-3.12-.45-7.2.84-10.73,3.69S401.86,605.08,401.68,608.2Z" transform="translate(-168.16 -396.08)"/><path class="cls-3" d="M400.89,622.48c3.12.45,7.19-.83,10.73-3.69s5.63-6.55,5.82-9.67c-3.12-.44-7.19.84-10.73,3.7S401.08,619.36,400.89,622.48Z" transform="translate(-168.16 -396.08)"/><path class="cls-3" d="M387.6,566.61c.18,3.11,2.26,6.67,5.79,9.32s7.61,3.7,10.73,3.07c-.18-3.11-2.27-6.68-5.8-9.33S390.72,566,387.6,566.61Z" transform="translate(-168.16 -396.08)"/><path class="cls-3" d="M386.11,581.37c.18,3.11,2.27,6.68,5.8,9.33s7.6,3.7,10.72,3.07c-.18-3.11-2.26-6.68-5.79-9.33S389.23,580.74,386.11,581.37Z" transform="translate(-168.16 -396.08)"/><path class="cls-3" d="M385,596c.18,3.11,2.27,6.68,5.8,9.33s7.6,3.69,10.73,3.06c-.18-3.1-2.27-6.67-5.8-9.32S388.17,595.37,385,596Z" transform="translate(-168.16 -396.08)"/><path class="cls-3" d="M384.08,610.28c.18,3.11,2.26,6.68,5.8,9.33s7.6,3.69,10.72,3.07c-.18-3.11-2.26-6.68-5.8-9.33S387.2,609.65,384.08,610.28Z" transform="translate(-168.16 -396.08)"/></g><path class="cls-4" d="M898.1,792.7c0,11.61-132.93,11.61-296.9,11.61s-296.9,0-296.9-11.61,132.93-11.61,296.9-11.61S898.1,781.09,898.1,792.7Z" transform="translate(-168.16 -396.08)"/><g class="cls-5"><path class="cls-6" d="M858.8,649.47c17.16-5.73,24.77-4.29,27.49-3.22-3.54,2.17-9.28,5.81-14.59,9.65-16.35,11.88-26,21.73-31.19,27.81l4.2,4.43A150.56,150.56,0,0,1,864.37,668l3.31-2.75a235.69,235.69,0,0,1,20.5-15c-.63,8-12.84,21.64-15.47,30.95-3,10.78,11.9,18.83,11.9,18.83-2.81-4.86,4.18-35.28,10.27-39s10.74,4.63,3.87,11.56-14.54,27.12-6.81,31.08S916.85,699,916.85,699s-7.13-18.26-8.45-25.77,4-8.07,5.71-14.16-1.07-7.08,3.24-9.73,2.08,24.85,1.82,31,5.32,20.35,5.32,20.35l28-14.91s-4.23-11.14-11.54-14.85-17.07-23.12-12.61-24.12,5,8.33,12.58,17.24S964,674.65,964,674.65l13.68-18.86s-18.28-9.29-20.09-12.43-10.31-1.8-15.76-6,1.42-7.65,12.19-4,11.7,14.31,19.16,17.46,9.45-.38,9.45-.38l6.87-12.16-4.36-3.71c-8.32-1.85-29.6-17-20.45-17.24s13.91,10.81,17.28,12.8a51.8,51.8,0,0,0,9.82,4.43c3.46.77,5.22-16.76,5.22-16.76s-18-4.25-20.12-8,20.18,6,20.18,6c.66-2.34,9.65-20.25,9.65-20.25s-7.2,1.13-12.19-1.22a13.58,13.58,0,0,1-6.61-6.2c-3.8.39-6.77,12.67-9.45,16.06s-7.57-.19-2.28-5,7.64-14,7.64-14l-9.42-7.57S969,586,965,588.51s-6.73,17.29-10.15,19.39-6.21-4.12-.62-10.84,17-20.11,17-20.11,1.49-.91-4.06-2.15-24.42-10.16-24.42-10.16-9.45,17.8-8.06,28.56.72,16.59-6.15,13.06,9.82-42.6,9.82-42.6L910.91,565a70.11,70.11,0,0,0-4.82,25.81c.29,13.75,11.3,15.7,5.94,19s-6.87-7-12.32-16.43-1.75-26-1.75-26l-35.45,13.25s4.65,15.72,16.52,25.08,20.71,12.83,12.72,15-18.07-8.07-22.82-16.28-17.56-14.86-17.56-14.86l-16.45,26.95s.62,3.87,7.33,5.36a158.55,158.55,0,0,0,28.65,3.89c12.39.52,13.54,7.75,8.79,10.67s-17.09-10-24.36-8.66-23.19-1.43-23.19-1.43S836,657.08,858.8,649.47Zm107.05,5.67,6.48,1.45c2.54.56-1.22,3.46-5.62,2.48S965.85,655.14,965.85,655.14Zm-44.27-19.92s8.15-1.24,10.17,2.26-2.78,5.09-8.6,5.79S921,635.58,921.58,635.22Zm32.65-55.58c-2.81-4.86,4.33-2.27,4.33-2.27S957,584.49,954.23,579.64ZM936,614c-.45,4.62-4.71,4.92-8.13,2.65s1.12-6.58,1.12-6.58S936.48,609.41,936,614Zm-22.12-.45s5.3,7.77,4.54,10.47-5.68.1-7.63-6.06S913.92,613.59,913.92,613.59Z" transform="translate(-168.16 -396.08)"/><path class="cls-7" d="M960.63,698.34c.06-3.49,10.91,13.16,10.91,13.16,1.36-1.3,14.4-9.43,14.4-9.43s-5.19-2.47-7.54-6.32a11.83,11.83,0,0,1-1.88-7.19c-2.66-1.44-9.51,5.57-12.61,6.67s-4.91-3.54.48-4.42S975,684.74,975,684.74l-3.19-9.38s-6.9,3.24-10.53,3.11-11.3,8.73-14.39,8.62-2.45-5.6,3.9-7.65,19.18-6,19.18-6,1.34.05-1.82-3.29-12-17.9-12-17.9-13.3,7.85-16.67,15.79-6.12,11.6-9.24,6.12,23.41-24.56,23.41-24.56L935,638.15a52.59,52.59,0,0,0-13.44,15.37c-5.27,9.49,1.2,15.77-3.64,15.6s-1.74-7.86-1.58-16.73,9.2-18.48,9.2-18.48L896.9,627s-3.18,12.78.9,24.49,8.55,18,2.4,15.94-8.68-13.61-8.54-21.34-5.66-18-5.66-18L864.45,639s-1.12,2.91,2.7,6.95a131.73,131.73,0,0,0,17.31,15.54c8,5.93,5.84,11.36,1.55,11.21s-7.26-14.51-12.59-16.85-14.71-11.41-14.71-11.41S849,667,867.08,672.12c13.58,3.83,18,8.24,19.38,10.19-3.2-.12-8.42-.23-13.45,0-24.72,1.14-36.08,6.52-37.62,6.92-13.55,8.2-30.68,22.25-34.8,25l7.52,6.15C827,699.78,836.84,694.49,837.49,694c.37-.13,10-4.65,25.88-6.75l3.28-.38a169.85,169.85,0,0,1,19.47-1c-3.61,5.18-17.06,8.94-22.5,14.09-6.28,5.95.35,18.15.35,18.15.08-4.57,16.78-22.1,22.29-21.91s5.22,8-2.06,9.61-20.36,11.89-16.84,18.07,18.25,8,18.25,8,2.57-15.63,4.68-21.34,5.85-3.68,9.4-7.05,2.11-5.3,6-5.16-8.51,17.84-11.14,21.91S890,736.51,890,736.51l24.4,2.49s1.65-9.48-1.69-15.3-2-23.4,1.29-22.07,0,7.92,1.43,17.38,11,17.6,11,17.6L942.87,730s-8.34-14.55-8.29-17.5-6.07-5.86-8-11.17,4-4.56,9.62,2.76,2,15,5.68,20.5,6.37,4,6.37,4l9.36-5.17-1.39-4.49c-4.75-5-12.72-24.91-6.61-20.93s4.86,13.61,6.28,16.49a45.23,45.23,0,0,0,4.71,7.42c2,2.09,10.1-9,10.1-9S960.56,701.83,960.63,698.34Z" transform="translate(-168.16 -396.08)"/><path class="cls-8" d="M916,640.58s-8.16-8.78-16-10.52-19.21-6.29-19.16-13.36,5.29-1.21,15.82,5.76c10.62,6.81,24.08,8.06,24.05,8.17a190.18,190.18,0,0,1,6.46-30.17c-.1-.1-14.22,4.81-23.41,2.49-9.22-2.59-19.09-.73-16.87-6.12s5.79,3,18.4.32a109.61,109.61,0,0,0,23.31-7.74q.18-11.61,1.42-23.55s-9.88,4.33-19.77,9-20,9.47-22.08,7.07c-4.2-4.81,1.63-7.31,12.45-8.5,10.6-1.38,28.47-11.45,28.63-11.32s-8.07-15.59-8.94-20.36-2-3.32-2-3.32S902.82,550.64,896,557.3c-6.92,6.48-13.46,5.94-11.45,2.31,2-3.8,17.86-9.83,20.73-13.7,2.78-4.11,12.49-10.3,12.53-10.25-2.49-2.45-5-4.88-7.58-7.26,0,0-10.75,3.81-16.31,9.83s-9.4,2.63-5.53-.76,18-8.84,18.93-12.25a10.15,10.15,0,0,1-6.54-4.75c-2.3-4-.09-10.87,0-10.91-.18-.25-22.48,12.79-25.07,14.46,0,.07,9.25,15.17,7,16.44h0a1.16,1.16,0,0,1-.93,0h0c-4-1.34-8.52-15.62-8.44-15.7,0-.24-20.69,8.17-19.61,11.25a28.18,28.18,0,0,0,5.4,7.09c2.46,2.13,14.83,2.45,14.92,10.75.38,8-17.46-5.17-20.09-11.77q-2.21-1.2-4.44-2.35-6.81,5.87-13.27,12.09s-3.75,3.64.63,8.68,15.94.8,21,8.82c1.76,2.78,3.42,7.1,2.57,10.2h0c-1.21,4.67-6,2.66-8.43-1.53-2-3.38-2.63-7.26-5.08-7.37-3.51-.15-16-11.53-16-11.52q-9.48,11.22-17.78,23.13c-.07.09,5.3,12.15,15.89,13.36,8.9,1.09,16.83-1.5,19,.21h0a1.69,1.69,0,0,1,.62,1.42c.06,3.66-18.25,5.57-25,3h0a7.31,7.31,0,0,1-1.4-.67c-5.45-4-17.6-.28-17.6-.19a280,280,0,0,0-5,33.39c.23-.22,14.6-5.79,20-9.63,5.29-4.7,30.43-20.86,29.07-15.63s-3.7,3-8.79,8.07c-4.38,4.37-3.62,8.6-10.39,11.72-7.08,3-25.6,9.94-25.61,10.17-.21.07-.51,19.29,6.24,21.87s19.82-17.17,23.19-25c4.25-10.67,14.25-9.09,10.79-2.1l0,0c-3.41,7-23.41,27.88-28,29.81.05,0,12.79,4.88,19.9-3.49,5.83-7.18,12.95-22.94,19.57-27.35-3.7,13.88-6.92,20.25-6.75,20.7-5.9,16.36-11.94,21.15-12.25,21.56-.5,1-8,9.81-29.91,32.66q3.23,3.58,6.52,7.08c8.57-13.34,16.87-22.76,28-37.32,7.32-14,14.15-33.82,18-45.74,1.19.71,5.49,5,7.22,22.4,1.32,9.8,8.42,11.75,14.89,12A51.87,51.87,0,0,0,894,663.11s-7.84-10.32-9-16.17-15.54-10.52-14.55-15.21c1.12-4.85,7.61-6.48,11.45,2.89a91.18,91.18,0,0,0,12,20c3.39,4.37,6.49,3.77,6.49,3.78A186.33,186.33,0,0,1,916,640.58Zm-87.11-69.94c-1.77-3.32.82-8.29,1.8-6.32.72,1.44,1.69,3.36,2.51,4.95C833.23,569.27,830.69,574,828.93,570.64Zm14.41,20.1c-.62-5.12,0-9.93,3.87-9.73s4.1,7.59,4.14,7.57C851.09,589.17,844,595.82,843.34,590.74Zm36.09,9.59c-6.08.42-9.48-2.63-7-4.26s10.61.26,10.66.31S885.49,600,879.43,600.33Zm4.9-17.71s-3.64,5.13-6.31,3-3-5.9,1.65-7.78S884.31,582.64,884.33,582.62Zm32.61-32.89s2.35,5.9-2.6,4.15S916.92,549.7,916.94,549.73Z" transform="translate(-168.16 -396.08)"/></g><g class="cls-2"><path class="cls-9" d="M355.78,685s-28.06-15.47-47.46-7.19-2.65,24.75,18.93,27.62,59-7.55,59-7.55Z" transform="translate(-168.16 -396.08)"/><path class="cls-10" d="M387.25,698.85a1.5,1.5,0,0,0,.37-.73,1.35,1.35,0,0,0-1.11-1.59L319.68,686.3a1.45,1.45,0,0,0-1.63,1.17,1.33,1.33,0,0,0,1.11,1.58L386,699.29A1.45,1.45,0,0,0,387.25,698.85Z" transform="translate(-168.16 -396.08)"/><path class="cls-9" d="M439.71,652.63s13.8,2.81,14,19-31.3,37.61-31.3,37.61-10-15-4.28-31.31S428.85,648.7,439.71,652.63Z" transform="translate(-168.16 -396.08)"/><path class="cls-11" d="M367.6,623.78c-6.42-9.41-15.57-14.43-25.1-12.39-6.71-19.55-23.16-31.28-36.44-20.9-13.44,10.5-20.68,32.66,1.73,46.58A71.51,71.51,0,0,0,314.9,641c-3.7,12.24-.93,25.22,14.11,33.86l1,.55c1.31,10.49,7.46,20.64,20.69,28.52,34.15,20.33,55,8.16,55,8.16S416.09,693,407.26,662C400.58,638.54,384.49,622.58,367.6,623.78Z" transform="translate(-168.16 -396.08)"/><path class="cls-12" d="M415.59,726.19s-29.45-21.08-34.94-20.82c-5.7.26-2.42,5-2.42,5s-22.36-16.56-30.42-13.52S343,708.76,343,708.76s-19.78-22.5-37.7-6.91c-8.6,7.49-.9,18.29-.9,18.29s-23.62-1.6-21.91,19.4c1.43,17.58,22.7,12.94,22.7,12.94s-3.26,15.91,12.51,16.9,25-13.71,25-13.71.2,13.5,9.5,10,21.23-22.21,21.23-22.21-4.2,11.79,4.86,8.38S415.59,726.19,415.59,726.19Z" transform="translate(-168.16 -396.08)"/><path class="cls-10" d="M326.1,622.07a1.4,1.4,0,0,0-.13,2L429.05,738a1.38,1.38,0,0,0,2,.06l.07-.08a1.38,1.38,0,0,0,.05-1.89L328.06,622.13A1.38,1.38,0,0,0,326.1,622.07Z" transform="translate(-168.16 -396.08)"/><path class="cls-10" d="M438.09,683.82l-6.9,3.75c1.29-2.89,2.48-5.42,3.31-7.11a1.37,1.37,0,0,0-.62-1.85,1.43,1.43,0,0,0-1.87.69c-.45.92-11.08,22.67-11,30.05.09,7.65,11.71,18,12.21,18.43a1.39,1.39,0,0,0,1.93-.12l0,0a1.38,1.38,0,0,0-.09-2c-3.12-2.76-11.24-11.08-11.3-16.43,0-3.34,2.74-10.81,5.62-17.58l9.94-5.39a1.44,1.44,0,0,0,.37-.28,1.41,1.41,0,0,0,.24-1.61A1.36,1.36,0,0,0,438.09,683.82Z" transform="translate(-168.16 -396.08)"/><path class="cls-10" d="M415.91,724.83c-16.32-3.35-45.88-.43-69.4,2.91l-18.34-17.89a1.39,1.39,0,0,0-2,.06,1.41,1.41,0,0,0,0,2L343,728.25c-17,2.52-30.12,5.1-31.38,5.35a1.45,1.45,0,0,0-1.15,1.64,1.33,1.33,0,0,0,1.59,1.09c.26-.05,9.39-1.85,22.37-3.92l-15.17,16.06a1.4,1.4,0,0,0,0,2,1.38,1.38,0,0,0,2-.09l17.59-18.62c9.05-1.39,19.52-2.82,30-3.89l-9.47,14.36a1.37,1.37,0,0,0,.37,1.92,1.39,1.39,0,0,0,1.77-.24,1.08,1.08,0,0,0,.16-.2l10.68-16.18c16.46-1.54,32.59-2.06,42.92.06a1.44,1.44,0,0,0,1.32-.43,1.46,1.46,0,0,0,.35-.66A1.33,1.33,0,0,0,415.91,724.83Z" transform="translate(-168.16 -396.08)"/><path class="cls-13" d="M412.28,708.72s-32.57-21.2-28.73-25.27a7,7,0,0,1,8.05-2s-18.17-12.63-18.27-21.16,3.81-10.67,3.81-10.67-24.82-6.58-16.71-28.77c3.89-10.65,13.28-10.9,13.28-10.9s-10.17-21.13,10.22-27.26c17.07-5.13,20.51,16.13,20.51,16.13s13.09-1.92,19.81,12.22-3,21.14-3,21.14,11.48,1.11,11.59,10.95S420,662.07,420,662.07s6.19-3.64,6.3,5.95S412.28,708.72,412.28,708.72Z" transform="translate(-168.16 -396.08)"/><path class="cls-10" d="M408.76,626.25l-8.33,16.9c-1.7-16.16-2.61-29-2.63-29.29a1.33,1.33,0,0,0-1.48-1.24,1.45,1.45,0,0,0-1.29,1.53c.11,1.58,1.42,20.26,3.9,40.85l-12-13.57a1.39,1.39,0,0,0-2-.08,1.41,1.41,0,0,0-.15,2L399.55,660c2.7,21.09,6.58,42.89,11.61,49.6,10.17,13.56,21.82,27.83,21.94,28a1.38,1.38,0,0,0,1.95.15.71.71,0,0,0,.13-.12,1.4,1.4,0,0,0,.09-1.84c-.11-.14-11.73-14.37-21.87-27.88-5.57-7.43-9.79-35.93-12.42-59.62l10.26-20.82a1.35,1.35,0,0,0-.62-1.85A1.43,1.43,0,0,0,408.76,626.25Z" transform="translate(-168.16 -396.08)"/><rect class="cls-14" x="416.2" y="720.81" width="46.15" height="41.59" transform="translate(-569.64 155.63) rotate(-46.63)"/><rect class="cls-15" x="386.91" y="719.89" width="67.47" height="3.4" transform="translate(-560.93 135.81) rotate(-46.63)"/><rect class="cls-16" x="394.98" y="721.6" width="59.19" height="7.4" transform="translate(-562.39 139.82) rotate(-46.63)"/></g><g class="cls-17"><path class="cls-18" d="M376.32,517.57,409.8,745.9c.7,32.42,35,58.41,77.05,58.41H769.74c36.46,0,67.94-19.7,75.42-47.2l83.23-320.59c6.67-24.5-22.57-45.78-53.91-39.24L426.8,465.84C396.6,472.14,375.8,493.45,376.32,517.57Z" transform="translate(-168.16 -396.08)"/><rect class="cls-19" x="322.97" y="747.45" width="589.35" height="57.2" transform="translate(1067.13 1156.03) rotate(180)"/><rect class="cls-19" x="780.02" y="677.51" width="40.2" height="39.87" transform="translate(1432.08 998.82) rotate(180)"/><rect class="cls-19" x="532.9" y="654.21" width="40.2" height="56.66" transform="translate(937.85 969.01) rotate(180)"/><rect class="cls-19" x="416.47" y="673.18" width="42.87" height="37.7" transform="translate(707.65 987.98) rotate(180)"/><rect class="cls-19" x="688.99" y="663.66" width="40.2" height="39.87" transform="translate(1250.03 971.12) rotate(180)"/><rect class="cls-19" x="612.94" y="685.24" width="40.2" height="39.88" transform="translate(1097.91 1014.28) rotate(180)"/><rect class="cls-19" x="339.4" y="701.05" width="572.92" height="52.32" transform="translate(1083.56 1058.35) rotate(180)"/><rect class="cls-19" x="820.22" y="661.18" width="92.43" height="39.87" transform="translate(1564.71 966.15) rotate(180)"/><rect class="cls-20" x="643" y="623.1" width="61.23" height="130.28" transform="translate(1179.07 980.39) rotate(180)"/><rect class="cls-19" x="683.76" y="632.43" width="12.17" height="18.47" transform="translate(1211.54 887.24) rotate(180)"/><rect class="cls-19" x="653.13" y="632.43" width="12.17" height="18.47" transform="translate(1150.28 887.24) rotate(180)"/><rect class="cls-19" x="683.76" y="660.58" width="12.17" height="18.47" transform="translate(1211.54 943.55) rotate(180)"/><rect class="cls-19" x="653.13" y="660.58" width="12.17" height="18.47" transform="translate(1150.28 943.55) rotate(180)"/><rect class="cls-19" x="683.76" y="688.73" width="12.17" height="18.47" transform="translate(1211.54 999.85) rotate(180)"/><rect class="cls-19" x="653.13" y="688.73" width="12.17" height="18.47" transform="translate(1150.28 999.85) rotate(180)"/><rect class="cls-20" x="557.37" y="638.5" width="61.23" height="114.88" transform="translate(1007.82 995.79) rotate(180)"/><rect class="cls-19" x="598.14" y="660.58" width="12.17" height="18.47" transform="translate(1040.29 943.55) rotate(180)"/><rect class="cls-19" x="567.51" y="660.58" width="12.17" height="18.47" transform="translate(979.03 943.55) rotate(180)"/><rect class="cls-19" x="598.14" y="688.73" width="12.17" height="18.47" transform="translate(1040.29 999.85) rotate(180)"/><rect class="cls-19" x="567.51" y="688.73" width="12.17" height="18.47" transform="translate(979.03 999.85) rotate(180)"/><rect class="cls-20" x="727.3" y="592.99" width="73.86" height="160.39" transform="translate(1360.3 950.28) rotate(180)"/><rect class="cls-19" x="784.13" y="614.47" width="5.56" height="63.23" transform="translate(1405.65 896.09) rotate(180)"/><rect class="cls-19" x="769.25" y="614.47" width="5.56" height="63.23" transform="translate(1375.89 896.09) rotate(180)"/><rect class="cls-19" x="754.37" y="614.47" width="5.56" height="63.23" transform="translate(1346.13 896.09) rotate(180)"/><rect class="cls-19" x="739.49" y="614.47" width="5.56" height="63.23" transform="translate(1316.38 896.09) rotate(180)"/><rect class="cls-20" x="459.04" y="592.99" width="73.86" height="160.39" transform="translate(823.79 950.28) rotate(180)"/><rect class="cls-19" x="515.87" y="614.47" width="5.56" height="63.23" transform="translate(869.13 896.09) rotate(180)"/><rect class="cls-19" x="500.99" y="614.47" width="5.56" height="63.23" transform="translate(839.37 896.09) rotate(180)"/><rect class="cls-19" x="486.11" y="614.47" width="5.56" height="63.23" transform="translate(809.62 896.09) rotate(180)"/><rect class="cls-19" x="471.23" y="614.47" width="5.56" height="63.23" transform="translate(779.86 896.09) rotate(180)"/><polygon class="cls-21" points="758.2 357.97 758.2 281.66 752.92 281.66 752.92 220.1 728.99 220.1 728.99 241.94 727.43 241.94 727.43 244.46 725.75 244.46 725.75 247.25 723.12 247.25 717.59 252.28 717.59 259.42 714.05 259.42 714.05 209.68 692.68 209.68 692.68 263.98 677.75 264.08 677.75 250.81 671.08 250.81 671.08 248.33 670.42 248.33 670.42 223.72 651.87 223.72 651.87 223.36 651.29 223.36 651.29 215.37 650.16 214.14 630.78 214.14 629.67 215.37 629.67 228.67 629.09 228.67 629.09 244.04 629.67 244.04 629.67 258.22 627.89 256.89 620.6 251.8 618.61 253.23 618.61 252.15 617.72 252.84 617.72 253.84 614.29 256.21 610.87 253.84 610.87 252.84 609.99 252.16 609.99 253.23 607.99 251.8 600.73 256.89 598.92 258.18 598.92 230.32 597.82 229.1 578.43 229.1 577.33 230.32 577.33 238.32 576.75 238.32 576.75 238.68 558.17 238.68 558.17 248.33 557.52 248.33 557.52 250.81 550.84 250.81 550.84 264.68 542.77 259.87 535.91 263.96 535.91 227.85 514.54 227.85 514.54 259.42 511.01 259.42 511.01 252.28 505.47 247.25 502.85 247.25 502.85 244.46 501.16 244.46 501.16 241.94 499.63 241.94 499.63 234.77 489.2 234.77 489.2 253.11 471.56 253.11 471.56 281.21 455.51 281.21 455.51 274.92 449.1 274.92 449.1 281.21 444.75 281.21 444.75 269.7 432.86 269.7 432.86 288.46 420.27 288.46 420.27 247.45 406.96 247.45 406.96 281.4 395.39 281.4 395.39 267.91 388.41 267.91 388.41 234.32 366.49 234.32 366.49 281.4 355.77 281.4 355.77 262.81 340.46 282.08 340.46 295.96 328.04 295.96 328.04 259.44 309.05 259.44 309.05 240.09 295.32 240.09 295.32 260.17 287.94 260.17 287.94 214.56 268.71 214.56 268.71 257.98 250.26 257.98 250.26 276.97 241.28 276.97 241.28 290.12 227.12 290.12 227.12 249.22 209.76 249.22 209.76 266.73 201.62 266.73 201.62 201.74 186.4 201.74 186.4 221.44 178.29 229.55 178.29 255.32 164.91 255.32 164.91 266.73 142.25 266.73 142.25 214.56 124.41 214.56 124.41 244.83 106.74 244.83 106.74 224.96 95.04 224.96 95.04 190.05 73.13 190.05 73.13 266.73 61.22 266.73 61.22 224.65 37.34 224.65 37.34 283.54 16.16 283.54 16.16 357.97 758.2 357.97"/><path class="cls-22" d="M916.94,678.59l-1.1.74v16.88l-1.81-.78-7.26-3.08-2,.86v-.65l-.88.42v.6L900.47,695,897,693.58V693l-.88-.42v.65l-2-.86-7.29,3.08-1.78.81v-8.6h.58v-9.31h-.58v-8.07l-1.1-.74H864.6l-1.13.75v4.84h-.58v.22H844.34v14.91h-.65v1.5H837v8l-14.93-.06V657.4H800.71V697h-3.53v-4.33l-5.54-3H789v-1.7h-1.69v-1.52h-1.55V673.13H761.84v37.31h-8.32V698.71l.4-.25c-.23-.14-.47-.28-.71-.4a6.86,6.86,0,0,0-.81-.41,19.11,19.11,0,0,0-6.53-1.63h-.4c-.5,0-.94,0-1.41,0a19.21,19.21,0,0,0-9.82,2.4h.22l0,.72v11.33l-4.05,2.1-.8-18.53H726v-4.52h-1.68v-.91h-1.56v-.39H709.6v.39H708v.91h-1.68v14.63H692v-.37h-.87v.37H687l-3,2.1V676H668.3v23.87H653.53l-.86.5v11.4a32,32,0,0,0-23.83,0V694.25l-.85-.5H613l-.87.5v3.27c-14.83.14-12.19.14-14.83.14v10.07h-.51v1h-5.17v5.43l-11.57,0V685.57H563.44v26.69H560.7v-2.92l-4.28-2.05h-2v-1.15h-1.3v-1h-1.21v-8.94H533.32v25.18h-6.45v-7.92l.31-.16c-.18-.1-.37-.19-.56-.28s-.41-.2-.62-.28a16.8,16.8,0,0,0-5.06-1.09h-.31c-.39,0-.73,0-1.09,0a16.6,16.6,0,0,0-7.62,1.62h.17l0,.49v7.64L509,722.76l-.62-12.51h-2.81v-3h-1.3v-.62H503v-.26h-10.2v.26H491.6v.62h-1.3v9.87H479.21v-.24h-.66v.24h-3.22L473,718.49V698.11H462.19V679h-9.31l-1.09.64v14.54l-30.41,0V671.83l-1.09-.63H401.11l-1.11.64V676h-.58v.18H381.08V689h-.65v1.29h-6.6v6.93l-14.77-.06V660.76H337.93v34.06h-3.5V691.1L329,688.47h-2.6V687H324.7V685.7h-1.54V674.3H299.49v32.13h-8.23v-10.1l.4-.22c-.24-.12-.47-.24-.71-.34s-.54-.26-.8-.36a21.36,21.36,0,0,0-6.46-1.4h-.4c-.49,0-.92,0-1.39,0a21.08,21.08,0,0,0-9.71,2.07h.21l0,.62v9.75l-4,1.81-.79-16H264v-3.9h-1.66v-.78h-1.54v-.34h-13v.34h-1.56v.78H244.6V701H230.45v-.32h-.85V701h-4.11l-3,1.81v-26H207v77.28H668.3v-.45H926.35v-75Z" transform="translate(-168.16 -396.08)"/><polygon class="cls-23" points="601.22 222.64 601.22 213.59 582.09 213.59 582.09 222.64 574.49 237.84 574.49 357.97 608.82 357.97 608.82 237.84 601.22 222.64"/><polygon class="cls-20" points="590.76 222.64 571.63 222.64 564.03 237.84 564.03 357.97 598.36 357.97 598.36 237.84 590.76 222.64"/><rect class="cls-20" x="571.63" y="213.59" width="19.13" height="9.05"/><rect class="cls-22" x="567.23" y="242.82" width="3.51" height="5.07"/><rect class="cls-22" x="573.34" y="242.82" width="3.51" height="5.07"/><rect class="cls-22" x="579.44" y="242.82" width="3.51" height="5.07"/><rect class="cls-22" x="585.55" y="242.82" width="3.51" height="5.07"/><rect class="cls-22" x="591.66" y="242.82" width="3.51" height="5.07"/><rect class="cls-22" x="567.23" y="251.14" width="3.51" height="5.07"/><rect class="cls-22" x="573.34" y="251.14" width="3.51" height="5.07"/><rect class="cls-22" x="579.44" y="251.14" width="3.51" height="5.07"/><rect class="cls-22" x="585.55" y="251.14" width="3.51" height="5.07"/><rect class="cls-22" x="591.66" y="251.14" width="3.51" height="5.07"/><rect class="cls-22" x="567.23" y="259.46" width="3.51" height="5.07"/><rect class="cls-22" x="573.34" y="259.46" width="3.51" height="5.07"/><rect class="cls-22" x="579.44" y="259.46" width="3.51" height="5.07"/><rect class="cls-22" x="585.55" y="259.46" width="3.51" height="5.07"/><rect class="cls-22" x="591.66" y="259.46" width="3.51" height="5.07"/><rect class="cls-22" x="567.23" y="267.79" width="3.51" height="5.07"/><rect class="cls-22" x="573.34" y="267.79" width="3.51" height="5.07"/><rect class="cls-22" x="579.44" y="267.79" width="3.51" height="5.07"/><rect class="cls-22" x="585.55" y="267.79" width="3.51" height="5.07"/><rect class="cls-22" x="591.66" y="267.79" width="3.51" height="5.07"/><rect class="cls-22" x="567.23" y="276.11" width="3.51" height="5.07"/><rect class="cls-22" x="573.34" y="276.11" width="3.51" height="5.07"/><rect class="cls-22" x="579.44" y="276.11" width="3.51" height="5.07"/><rect class="cls-22" x="585.55" y="276.11" width="3.51" height="5.07"/><rect class="cls-22" x="591.66" y="276.11" width="3.51" height="5.07"/><rect class="cls-22" x="567.23" y="284.44" width="3.51" height="5.07"/><rect class="cls-22" x="573.34" y="284.44" width="3.51" height="5.07"/><rect class="cls-22" x="579.44" y="284.44" width="3.51" height="5.07"/><rect class="cls-22" x="585.55" y="284.44" width="3.51" height="5.07"/><rect class="cls-22" x="591.66" y="284.44" width="3.51" height="5.07"/><rect class="cls-22" x="567.23" y="292.76" width="3.51" height="5.07"/><rect class="cls-22" x="573.34" y="292.76" width="3.51" height="5.07"/><rect class="cls-22" x="579.44" y="292.76" width="3.51" height="5.07"/><rect class="cls-22" x="585.55" y="292.76" width="3.51" height="5.07"/><rect class="cls-22" x="591.66" y="292.76" width="3.51" height="5.07"/><rect class="cls-22" x="567.23" y="301.09" width="3.51" height="5.07"/><rect class="cls-22" x="573.34" y="301.09" width="3.51" height="5.07"/><rect class="cls-22" x="579.44" y="301.09" width="3.51" height="5.07"/><rect class="cls-22" x="585.55" y="301.09" width="3.51" height="5.07"/><rect class="cls-22" x="591.66" y="301.09" width="3.51" height="5.07"/><rect class="cls-22" x="567.23" y="309.09" width="3.51" height="5.07"/><rect class="cls-22" x="573.34" y="309.09" width="3.51" height="5.07"/><rect class="cls-22" x="579.44" y="309.09" width="3.51" height="5.07"/><rect class="cls-22" x="585.55" y="309.09" width="3.51" height="5.07"/><rect class="cls-22" x="591.66" y="309.09" width="3.51" height="5.07"/><rect class="cls-22" x="567.23" y="317.42" width="3.51" height="5.07"/><rect class="cls-22" x="573.34" y="317.42" width="3.51" height="5.07"/><rect class="cls-22" x="579.44" y="317.42" width="3.51" height="5.07"/><rect class="cls-22" x="585.55" y="317.42" width="3.51" height="5.07"/><rect class="cls-22" x="591.66" y="317.42" width="3.51" height="5.07"/><rect class="cls-22" x="567.23" y="325.74" width="3.51" height="5.07"/><rect class="cls-22" x="573.34" y="325.74" width="3.51" height="5.07"/><rect class="cls-22" x="579.44" y="325.74" width="3.51" height="5.07"/><rect class="cls-22" x="585.55" y="325.74" width="3.51" height="5.07"/><rect class="cls-22" x="591.66" y="325.74" width="3.51" height="5.07"/><rect class="cls-22" x="567.23" y="334.07" width="3.51" height="5.07"/><rect class="cls-22" x="573.34" y="334.07" width="3.51" height="5.07"/><rect class="cls-22" x="579.44" y="334.07" width="3.51" height="5.07"/><rect class="cls-22" x="585.55" y="334.07" width="3.51" height="5.07"/><rect class="cls-22" x="591.66" y="334.07" width="3.51" height="5.07"/><rect class="cls-22" x="567.23" y="342.39" width="3.51" height="5.07"/><rect class="cls-22" x="573.34" y="342.39" width="3.51" height="5.07"/><rect class="cls-22" x="579.44" y="342.39" width="3.51" height="5.07"/><rect class="cls-22" x="585.55" y="342.39" width="3.51" height="5.07"/><rect class="cls-22" x="591.66" y="342.39" width="3.51" height="5.07"/><polygon class="cls-23" points="426.98 357.97 426.98 261.21 419.38 246.01 419.38 236.96 400.25 236.96 400.25 246.01 392.65 261.21 392.65 357.97 426.98 357.97"/><polygon class="cls-20" points="416.52 357.97 416.52 261.21 408.92 246.01 389.79 246.01 382.19 261.21 382.19 357.97 416.52 357.97"/><rect class="cls-20" x="389.79" y="236.96" width="19.13" height="9.05"/><rect class="cls-22" x="385.39" y="266.19" width="3.51" height="5.07"/><rect class="cls-22" x="391.5" y="266.19" width="3.51" height="5.07"/><rect class="cls-22" x="397.6" y="266.19" width="3.51" height="5.07"/><rect class="cls-22" x="403.71" y="266.19" width="3.51" height="5.07"/><rect class="cls-22" x="409.82" y="266.19" width="3.51" height="5.07"/><rect class="cls-22" x="385.39" y="274.51" width="3.51" height="5.07"/><rect class="cls-22" x="391.5" y="274.51" width="3.51" height="5.07"/><rect class="cls-22" x="397.6" y="274.51" width="3.51" height="5.07"/><rect class="cls-22" x="403.71" y="274.51" width="3.51" height="5.07"/><rect class="cls-22" x="409.82" y="274.51" width="3.51" height="5.07"/><rect class="cls-22" x="385.39" y="282.84" width="3.51" height="5.07"/><rect class="cls-22" x="391.5" y="282.84" width="3.51" height="5.07"/><rect class="cls-22" x="397.6" y="282.84" width="3.51" height="5.07"/><rect class="cls-22" x="403.71" y="282.84" width="3.51" height="5.07"/><rect class="cls-22" x="409.82" y="282.84" width="3.51" height="5.07"/><rect class="cls-22" x="385.39" y="291.16" width="3.51" height="5.07"/><rect class="cls-22" x="391.5" y="291.16" width="3.51" height="5.07"/><rect class="cls-22" x="397.6" y="291.16" width="3.51" height="5.07"/><rect class="cls-22" x="403.71" y="291.16" width="3.51" height="5.07"/><rect class="cls-22" x="409.82" y="291.16" width="3.51" height="5.07"/><rect class="cls-22" x="385.39" y="299.48" width="3.51" height="5.07"/><rect class="cls-22" x="391.5" y="299.48" width="3.51" height="5.07"/><rect class="cls-22" x="397.6" y="299.48" width="3.51" height="5.07"/><rect class="cls-22" x="403.71" y="299.48" width="3.51" height="5.07"/><rect class="cls-22" x="409.82" y="299.48" width="3.51" height="5.07"/><rect class="cls-22" x="385.39" y="307.81" width="3.51" height="5.07"/><rect class="cls-22" x="391.5" y="307.81" width="3.51" height="5.07"/><rect class="cls-22" x="397.6" y="307.81" width="3.51" height="5.07"/><rect class="cls-22" x="403.71" y="307.81" width="3.51" height="5.07"/><rect class="cls-22" x="409.82" y="307.81" width="3.51" height="5.07"/><rect class="cls-22" x="385.39" y="316.13" width="3.51" height="5.07"/><rect class="cls-22" x="391.5" y="316.13" width="3.51" height="5.07"/><rect class="cls-22" x="397.6" y="316.13" width="3.51" height="5.07"/><rect class="cls-22" x="403.71" y="316.13" width="3.51" height="5.07"/><rect class="cls-22" x="409.82" y="316.13" width="3.51" height="5.07"/><rect class="cls-22" x="385.39" y="324.46" width="3.51" height="5.07"/><rect class="cls-22" x="391.5" y="324.46" width="3.51" height="5.07"/><rect class="cls-22" x="397.6" y="324.46" width="3.51" height="5.07"/><rect class="cls-22" x="403.71" y="324.46" width="3.51" height="5.07"/><rect class="cls-22" x="409.82" y="324.46" width="3.51" height="5.07"/><rect class="cls-22" x="385.39" y="332.46" width="3.51" height="5.07"/><rect class="cls-22" x="391.5" y="332.46" width="3.51" height="5.07"/><rect class="cls-22" x="397.6" y="332.46" width="3.51" height="5.07"/><rect class="cls-22" x="403.71" y="332.46" width="3.51" height="5.07"/><rect class="cls-22" x="409.82" y="332.46" width="3.51" height="5.07"/><rect class="cls-22" x="385.39" y="340.79" width="3.51" height="5.07"/><rect class="cls-22" x="391.5" y="340.79" width="3.51" height="5.07"/><rect class="cls-22" x="397.6" y="340.79" width="3.51" height="5.07"/><rect class="cls-22" x="403.71" y="340.79" width="3.51" height="5.07"/><rect class="cls-22" x="409.82" y="340.79" width="3.51" height="5.07"/><rect class="cls-22" x="385.39" y="349.11" width="3.51" height="5.07"/><rect class="cls-22" x="391.5" y="349.11" width="3.51" height="5.07"/><rect class="cls-22" x="397.6" y="349.11" width="3.51" height="5.07"/><rect class="cls-22" x="403.71" y="349.11" width="3.51" height="5.07"/><rect class="cls-22" x="409.82" y="349.11" width="3.51" height="5.07"/><polygon class="cls-20" points="259.84 357.97 289.57 357.97 289.57 302.18 259.84 286.59 259.84 357.97"/><rect class="cls-22" x="263.34" y="304.95" width="22.72" height="2.71"/><rect class="cls-22" x="263.34" y="310.56" width="22.72" height="2.71"/><rect class="cls-22" x="263.34" y="316.18" width="22.72" height="2.71"/><rect class="cls-22" x="263.34" y="321.79" width="22.72" height="2.71"/><rect class="cls-22" x="263.34" y="327.41" width="22.72" height="2.71"/><rect class="cls-22" x="263.34" y="333.03" width="22.72" height="2.71"/><rect class="cls-22" x="263.34" y="338.64" width="22.72" height="2.71"/><rect class="cls-22" x="263.34" y="344.26" width="22.72" height="2.71"/><rect class="cls-22" x="263.34" y="349.88" width="22.72" height="2.71"/><rect class="cls-23" x="248.32" y="286.59" width="11.51" height="71.38"/><polygon class="cls-20" points="517.67 357.97 487.94 357.97 487.94 302.18 517.67 286.59 517.67 357.97"/><rect class="cls-22" x="491.44" y="304.95" width="22.72" height="2.71"/><rect class="cls-22" x="491.44" y="310.56" width="22.72" height="2.71"/><rect class="cls-22" x="491.44" y="316.18" width="22.72" height="2.71"/><rect class="cls-22" x="491.44" y="321.79" width="22.72" height="2.71"/><rect class="cls-22" x="491.44" y="327.41" width="22.72" height="2.71"/><rect class="cls-22" x="491.44" y="333.03" width="22.72" height="2.71"/><rect class="cls-22" x="491.44" y="338.64" width="22.72" height="2.71"/><rect class="cls-22" x="491.44" y="344.26" width="22.72" height="2.71"/><rect class="cls-22" x="491.44" y="349.88" width="22.72" height="2.71"/><rect class="cls-23" x="517.67" y="286.59" width="11.51" height="71.38"/><polygon class="cls-20" points="470.3 357.97 440.57 357.97 440.57 269.79 470.3 254.21 470.3 357.97"/><rect class="cls-22" x="444.07" y="302.14" width="22.72" height="2.71"/><rect class="cls-22" x="444.07" y="307.75" width="22.72" height="2.71"/><rect class="cls-22" x="444.07" y="313.37" width="22.72" height="2.71"/><rect class="cls-22" x="444.07" y="318.99" width="22.72" height="2.71"/><rect class="cls-22" x="444.07" y="324.6" width="22.72" height="2.71"/><rect class="cls-22" x="444.07" y="330.22" width="22.72" height="2.71"/><rect class="cls-22" x="444.07" y="274.06" width="22.72" height="2.71"/><rect class="cls-22" x="444.07" y="279.67" width="22.72" height="2.71"/><rect class="cls-22" x="444.07" y="285.29" width="22.72" height="2.71"/><rect class="cls-22" x="444.07" y="290.9" width="22.72" height="2.71"/><rect class="cls-22" x="444.07" y="296.52" width="22.72" height="2.71"/><rect class="cls-22" x="444.07" y="335.84" width="22.72" height="2.71"/><rect class="cls-22" x="444.07" y="341.45" width="22.72" height="2.71"/><rect class="cls-22" x="444.07" y="347.07" width="22.72" height="2.71"/><rect class="cls-23" x="470.3" y="254.2" width="11.51" height="103.77"/><polygon class="cls-20" points="163.32 357.97 133.59 357.97 133.59 269.79 163.32 254.21 163.32 357.97"/><rect class="cls-22" x="137.1" y="302.14" width="22.72" height="2.71"/><rect class="cls-22" x="137.1" y="307.75" width="22.72" height="2.71"/><rect class="cls-22" x="137.1" y="313.37" width="22.72" height="2.71"/><rect class="cls-22" x="137.1" y="318.99" width="22.72" height="2.71"/><rect class="cls-22" x="137.1" y="324.6" width="22.72" height="2.71"/><rect class="cls-22" x="137.1" y="330.22" width="22.72" height="2.71"/><rect class="cls-22" x="137.1" y="274.06" width="22.72" height="2.71"/><rect class="cls-22" x="137.1" y="279.67" width="22.72" height="2.71"/><rect class="cls-22" x="137.1" y="285.29" width="22.72" height="2.71"/><rect class="cls-22" x="137.1" y="290.9" width="22.72" height="2.71"/><rect class="cls-22" x="137.1" y="296.52" width="22.72" height="2.71"/><rect class="cls-22" x="137.1" y="335.84" width="22.72" height="2.71"/><rect class="cls-22" x="137.1" y="341.45" width="22.72" height="2.71"/><rect class="cls-22" x="137.1" y="347.07" width="22.72" height="2.71"/><rect class="cls-23" x="163.32" y="254.2" width="11.51" height="103.77"/><polygon class="cls-20" points="738.53 357.97 708.86 357.97 708.86 278.07 738.53 262.08 738.53 357.97"/><rect class="cls-22" x="712.39" y="301.76" width="4.35" height="4.87"/><rect class="cls-22" x="718.48" y="301.76" width="4.35" height="4.87"/><rect class="cls-22" x="724.57" y="301.76" width="4.35" height="4.87"/><rect class="cls-22" x="730.66" y="301.76" width="4.35" height="4.87"/><rect class="cls-22" x="712.39" y="308.45" width="4.35" height="4.87"/><rect class="cls-22" x="718.48" y="308.45" width="4.35" height="4.87"/><rect class="cls-22" x="724.57" y="308.45" width="4.35" height="4.87"/><rect class="cls-22" x="730.66" y="308.45" width="4.35" height="4.87"/><rect class="cls-22" x="712.39" y="315.14" width="4.35" height="4.87"/><rect class="cls-22" x="718.48" y="315.14" width="4.35" height="4.87"/><rect class="cls-22" x="724.57" y="315.14" width="4.35" height="4.87"/><rect class="cls-22" x="730.66" y="315.14" width="4.35" height="4.87"/><rect class="cls-22" x="712.39" y="321.83" width="4.35" height="4.87"/><rect class="cls-22" x="718.48" y="321.83" width="4.35" height="4.87"/><rect class="cls-22" x="724.57" y="321.83" width="4.35" height="4.87"/><rect class="cls-22" x="730.66" y="321.83" width="4.35" height="4.87"/><rect class="cls-22" x="712.39" y="328.52" width="4.35" height="4.87"/><rect class="cls-22" x="718.48" y="328.52" width="4.35" height="4.87"/><rect class="cls-22" x="724.57" y="328.52" width="4.35" height="4.87"/><rect class="cls-22" x="730.66" y="328.52" width="4.35" height="4.87"/><rect class="cls-22" x="712.39" y="335.21" width="4.35" height="4.87"/><rect class="cls-22" x="718.48" y="335.21" width="4.35" height="4.87"/><rect class="cls-22" x="724.57" y="335.21" width="4.35" height="4.87"/><rect class="cls-22" x="730.66" y="335.21" width="4.35" height="4.87"/><rect class="cls-22" x="712.39" y="341.9" width="4.35" height="4.87"/><rect class="cls-22" x="718.48" y="341.9" width="4.35" height="4.87"/><rect class="cls-22" x="724.57" y="341.9" width="4.35" height="4.87"/><rect class="cls-22" x="730.66" y="341.9" width="4.35" height="4.87"/><rect class="cls-22" x="712.39" y="348.58" width="4.35" height="4.87"/><rect class="cls-22" x="718.48" y="348.58" width="4.35" height="4.87"/><rect class="cls-22" x="724.57" y="348.58" width="4.35" height="4.87"/><rect class="cls-22" x="730.66" y="348.58" width="4.35" height="4.87"/><rect class="cls-22" x="712.39" y="281.7" width="4.35" height="4.87"/><rect class="cls-22" x="718.48" y="281.7" width="4.35" height="4.87"/><rect class="cls-22" x="724.57" y="281.7" width="4.35" height="4.87"/><rect class="cls-22" x="730.66" y="281.7" width="4.35" height="4.87"/><rect class="cls-22" x="712.39" y="288.39" width="4.35" height="4.87"/><rect class="cls-22" x="718.48" y="288.39" width="4.35" height="4.87"/><rect class="cls-22" x="724.57" y="288.39" width="4.35" height="4.87"/><rect class="cls-22" x="730.66" y="288.39" width="4.35" height="4.87"/><rect class="cls-22" x="712.39" y="295.07" width="4.35" height="4.87"/><rect class="cls-22" x="718.48" y="295.07" width="4.35" height="4.87"/><rect class="cls-22" x="724.57" y="295.07" width="4.35" height="4.87"/><rect class="cls-22" x="730.66" y="295.07" width="4.35" height="4.87"/><rect class="cls-23" x="738.53" y="262.08" width="10.2" height="95.9"/><polygon class="cls-20" points="225.09 357.97 183.72 357.97 183.72 246.54 225.09 224.24 225.09 357.97"/><rect class="cls-22" x="188.64" y="279.58" width="6.06" height="6.79"/><rect class="cls-22" x="197.13" y="279.58" width="6.06" height="6.79"/><rect class="cls-22" x="205.62" y="279.58" width="6.06" height="6.79"/><rect class="cls-22" x="214.11" y="279.58" width="6.06" height="6.79"/><rect class="cls-22" x="188.64" y="288.91" width="6.06" height="6.79"/><rect class="cls-22" x="197.13" y="288.91" width="6.06" height="6.79"/><rect class="cls-22" x="205.62" y="288.91" width="6.06" height="6.79"/><rect class="cls-22" x="214.11" y="288.91" width="6.06" height="6.79"/><rect class="cls-22" x="188.64" y="298.24" width="6.06" height="6.79"/><rect class="cls-22" x="197.13" y="298.24" width="6.06" height="6.79"/><rect class="cls-22" x="205.62" y="298.24" width="6.06" height="6.79"/><rect class="cls-22" x="214.11" y="298.24" width="6.06" height="6.79"/><rect class="cls-22" x="188.64" y="307.57" width="6.06" height="6.79"/><rect class="cls-22" x="197.13" y="307.57" width="6.06" height="6.79"/><rect class="cls-22" x="205.62" y="307.57" width="6.06" height="6.79"/><rect class="cls-22" x="214.11" y="307.57" width="6.06" height="6.79"/><rect class="cls-22" x="188.64" y="316.9" width="6.06" height="6.79"/><rect class="cls-22" x="197.13" y="316.9" width="6.06" height="6.79"/><rect class="cls-22" x="205.62" y="316.9" width="6.06" height="6.79"/><rect class="cls-22" x="214.11" y="316.9" width="6.06" height="6.79"/><rect class="cls-22" x="188.64" y="326.22" width="6.06" height="6.79"/><rect class="cls-22" x="197.13" y="326.22" width="6.06" height="6.79"/><rect class="cls-22" x="205.62" y="326.22" width="6.06" height="6.79"/><rect class="cls-22" x="214.11" y="326.22" width="6.06" height="6.79"/><rect class="cls-22" x="188.64" y="335.55" width="6.06" height="6.79"/><rect class="cls-22" x="197.13" y="335.55" width="6.06" height="6.79"/><rect class="cls-22" x="205.62" y="335.55" width="6.06" height="6.79"/><rect class="cls-22" x="214.11" y="335.55" width="6.06" height="6.79"/><rect class="cls-22" x="188.64" y="344.88" width="6.06" height="6.79"/><rect class="cls-22" x="197.13" y="344.88" width="6.06" height="6.79"/><rect class="cls-22" x="205.62" y="344.88" width="6.06" height="6.79"/><rect class="cls-22" x="214.11" y="344.88" width="6.06" height="6.79"/><rect class="cls-22" x="188.64" y="251.6" width="6.06" height="6.79"/><rect class="cls-22" x="197.13" y="251.6" width="6.06" height="6.79"/><rect class="cls-22" x="205.62" y="251.6" width="6.06" height="6.79"/><rect class="cls-22" x="214.11" y="251.6" width="6.06" height="6.79"/><rect class="cls-22" x="188.64" y="260.93" width="6.06" height="6.79"/><rect class="cls-22" x="197.13" y="260.93" width="6.06" height="6.79"/><rect class="cls-22" x="205.62" y="260.93" width="6.06" height="6.79"/><rect class="cls-22" x="214.11" y="260.93" width="6.06" height="6.79"/><rect class="cls-22" x="188.64" y="270.26" width="6.06" height="6.79"/><rect class="cls-22" x="197.13" y="270.26" width="6.06" height="6.79"/><rect class="cls-22" x="205.62" y="270.26" width="6.06" height="6.79"/><rect class="cls-22" x="214.11" y="270.26" width="6.06" height="6.79"/><rect class="cls-23" x="225.09" y="224.24" width="14.22" height="133.73"/><rect class="cls-23" x="622.94" y="269.61" width="18.84" height="88.36"/><rect class="cls-20" x="641.79" y="269.61" width="40.46" height="88.36"/><rect class="cls-22" x="629.61" y="276.05" width="3.68" height="4.24"/><rect class="cls-22" x="629.61" y="290.11" width="3.68" height="4.24"/><rect class="cls-22" x="629.61" y="304.17" width="3.68" height="4.23"/><rect class="cls-22" x="644.3" y="275.56" width="6" height="5.64"/><rect class="cls-22" x="651.93" y="275.56" width="6" height="5.64"/><rect class="cls-22" x="659.56" y="275.56" width="6" height="5.64"/><rect class="cls-22" x="667.19" y="275.56" width="6" height="5.64"/><rect class="cls-22" x="674.81" y="275.56" width="6" height="5.64"/><rect class="cls-22" x="644.3" y="289.41" width="6" height="5.64"/><rect class="cls-22" x="651.93" y="289.41" width="6" height="5.64"/><rect class="cls-22" x="659.56" y="289.41" width="6" height="5.64"/><rect class="cls-22" x="667.19" y="289.41" width="6" height="5.64"/><rect class="cls-22" x="674.81" y="289.41" width="6" height="5.64"/><rect class="cls-22" x="644.3" y="303.26" width="6" height="5.64"/><rect class="cls-22" x="651.93" y="303.26" width="6" height="5.64"/><rect class="cls-22" x="659.56" y="303.26" width="6" height="5.64"/><rect class="cls-22" x="667.19" y="303.26" width="6" height="5.64"/><rect class="cls-22" x="674.81" y="303.26" width="6" height="5.64"/><rect class="cls-22" x="629.61" y="319.5" width="3.68" height="4.24"/><rect class="cls-22" x="629.61" y="333.56" width="3.68" height="4.24"/><rect class="cls-22" x="629.61" y="347.61" width="3.68" height="4.23"/><rect class="cls-22" x="644.3" y="319.01" width="6" height="5.64"/><rect class="cls-22" x="651.93" y="319.01" width="6" height="5.64"/><rect class="cls-22" x="659.56" y="319.01" width="6" height="5.64"/><rect class="cls-22" x="667.19" y="319.01" width="6" height="5.64"/><rect class="cls-22" x="674.81" y="319.01" width="6" height="5.64"/><rect class="cls-22" x="644.3" y="332.86" width="6" height="5.64"/><rect class="cls-22" x="651.93" y="332.86" width="6" height="5.64"/><rect class="cls-22" x="659.56" y="332.86" width="6" height="5.64"/><rect class="cls-22" x="667.19" y="332.86" width="6" height="5.64"/><rect class="cls-22" x="674.81" y="332.86" width="6" height="5.64"/><rect class="cls-22" x="644.3" y="346.7" width="6" height="5.64"/><rect class="cls-22" x="651.93" y="346.7" width="6" height="5.64"/><rect class="cls-22" x="659.56" y="346.7" width="6" height="5.64"/><rect class="cls-22" x="667.19" y="346.7" width="6" height="5.64"/><rect class="cls-22" x="674.81" y="346.7" width="6" height="5.64"/><rect class="cls-23" x="58.07" y="269.61" width="18.84" height="88.36"/><rect class="cls-20" x="76.92" y="269.61" width="40.46" height="88.36"/><rect class="cls-22" x="64.74" y="276.05" width="3.68" height="4.24"/><rect class="cls-22" x="64.74" y="290.11" width="3.68" height="4.24"/><rect class="cls-22" x="64.74" y="304.17" width="3.68" height="4.23"/><rect class="cls-22" x="79.43" y="275.56" width="6" height="5.64"/><rect class="cls-22" x="87.06" y="275.56" width="6" height="5.64"/><rect class="cls-22" x="94.68" y="275.56" width="6" height="5.64"/><rect class="cls-22" x="102.31" y="275.56" width="6" height="5.64"/><rect class="cls-22" x="109.94" y="275.56" width="6" height="5.64"/><rect class="cls-22" x="79.43" y="289.41" width="6" height="5.64"/><rect class="cls-22" x="87.06" y="289.41" width="6" height="5.64"/><rect class="cls-22" x="94.68" y="289.41" width="6" height="5.64"/><rect class="cls-22" x="102.31" y="289.41" width="6" height="5.64"/><rect class="cls-22" x="109.94" y="289.41" width="6" height="5.64"/><rect class="cls-22" x="79.43" y="303.26" width="6" height="5.64"/><rect class="cls-22" x="87.06" y="303.26" width="6" height="5.64"/><rect class="cls-22" x="94.68" y="303.26" width="6" height="5.64"/><rect class="cls-22" x="102.31" y="303.26" width="6" height="5.64"/><rect class="cls-22" x="109.94" y="303.26" width="6" height="5.64"/><rect class="cls-22" x="64.74" y="319.5" width="3.68" height="4.24"/><rect class="cls-22" x="64.74" y="333.56" width="3.68" height="4.24"/><rect class="cls-22" x="64.74" y="347.61" width="3.68" height="4.23"/><rect class="cls-22" x="79.43" y="319.01" width="6" height="5.64"/><rect class="cls-22" x="87.06" y="319.01" width="6" height="5.64"/><rect class="cls-22" x="94.68" y="319.01" width="6" height="5.64"/><rect class="cls-22" x="102.31" y="319.01" width="6" height="5.64"/><rect class="cls-22" x="109.94" y="319.01" width="6" height="5.64"/><rect class="cls-22" x="79.43" y="332.86" width="6" height="5.64"/><rect class="cls-22" x="87.06" y="332.86" width="6" height="5.64"/><rect class="cls-22" x="94.68" y="332.86" width="6" height="5.64"/><rect class="cls-22" x="102.31" y="332.86" width="6" height="5.64"/><rect class="cls-22" x="109.94" y="332.86" width="6" height="5.64"/><rect class="cls-22" x="79.43" y="346.7" width="6" height="5.64"/><rect class="cls-22" x="87.06" y="346.7" width="6" height="5.64"/><rect class="cls-22" x="94.68" y="346.7" width="6" height="5.64"/><rect class="cls-22" x="102.31" y="346.7" width="6" height="5.64"/><rect class="cls-22" x="109.94" y="346.7" width="6" height="5.64"/><ellipse class="cls-18" cx="558.54" cy="347.55" rx="7.86" ry="5.43"/><path class="cls-18" d="M732.24,737a5.69,5.69,0,1,1-5.68-5.43A5.56,5.56,0,0,1,732.24,737Z" transform="translate(-168.16 -396.08)"/><path class="cls-18" d="M733.05,740.65l-5.89,2.89-.2-5.24,3.19-2.87-3.22,2.14-.24-6-.14,3.84-2.49-1.48,2.46,2.2-.16,4.09-4.68-2.36,4.63,3.78-.16,3.95-6.08-3.07s4.79,3.58,6,4.49l-.27,7.08h1.73l-.35-9.09Z" transform="translate(-168.16 -396.08)"/><polygon class="cls-18" points="616 341.64 608.82 353.95 623.17 353.95 616 341.64"/><polygon class="cls-18" points="616 336.56 609.45 347.79 622.54 347.79 616 336.56"/><polygon class="cls-18" points="616 332.55 610.63 341.76 621.36 341.76 616 332.55"/><polygon class="cls-18" points="616 335.45 615.13 357.97 616.86 357.97 616 335.45"/><path class="cls-18" d="M714.65,736.28a6.48,6.48,0,1,1-6.47-6.82A6.65,6.65,0,0,1,714.65,736.28Z" transform="translate(-168.16 -396.08)"/><path class="cls-18" d="M713.59,736.23l-5,1.65-.24-6.35-.14,3.6c-.81-.47-3.15-1.87-3.15-1.87l3.11,2.82-.13,3.45-5.22-2.65,5.18,3.6-.52,13.57h1.73l-.58-15.24Z" transform="translate(-168.16 -396.08)"/><ellipse class="cls-18" cx="360.71" cy="347.55" rx="7.86" ry="5.43"/><path class="cls-18" d="M534.42,737a5.69,5.69,0,1,1-5.69-5.43A5.57,5.57,0,0,1,534.42,737Z" transform="translate(-168.16 -396.08)"/><path class="cls-18" d="M535.22,740.65l-5.89,2.89-.2-5.24,3.2-2.87-3.23,2.14-.23-6-.15,3.84-2.49-1.48,2.46,2.2-.16,4.09-4.68-2.36,4.63,3.78-.15,3.95-6.09-3.07s4.79,3.58,6,4.49l-.27,7.08h1.74l-.36-9.09Z" transform="translate(-168.16 -396.08)"/><polygon class="cls-18" points="320.43 341.64 313.25 353.95 327.6 353.95 320.43 341.64"/><polygon class="cls-18" points="320.43 336.56 313.89 347.79 326.97 347.79 320.43 336.56"/><polygon class="cls-18" points="320.43 332.55 315.07 341.76 325.79 341.76 320.43 332.55"/><polygon class="cls-18" points="320.43 335.45 319.56 357.97 321.3 357.97 320.43 335.45"/><path class="cls-18" d="M548.47,736.28a6.48,6.48,0,1,1-6.47-6.82A6.65,6.65,0,0,1,548.47,736.28Z" transform="translate(-168.16 -396.08)"/><path class="cls-18" d="M547.41,736.23l-5,1.65-.24-6.35-.14,3.6-3.15-1.87,3.11,2.82-.13,3.45-5.22-2.65,5.18,3.6-.52,13.57H543l-.58-15.24Z" transform="translate(-168.16 -396.08)"/><path class="cls-18" d="M466.73,743.63c0,2.5-2.9,4.53-6.47,4.53s-6.48-2-6.48-4.53,2.9-4.53,6.48-4.53S466.73,741.13,466.73,743.63Z" transform="translate(-168.16 -396.08)"/><path class="cls-18" d="M468,738.9c0,3.13-3.47,5.66-7.74,5.66s-7.74-2.53-7.74-5.66,3.46-5.66,7.74-5.66S468,735.78,468,738.9Z" transform="translate(-168.16 -396.08)"/><path class="cls-18" d="M464.76,733.74c0,1.82-2,3.29-4.5,3.29s-4.51-1.47-4.51-3.29,2-3.3,4.51-3.3S464.76,731.92,464.76,733.74Z" transform="translate(-168.16 -396.08)"/><path class="cls-18" d="M454.9,741.2l4.75,2.34.2-5.24-3.19-2.87,3.22,2.14.23-6,.15,3.84,2.49-1.48-2.46,2.2.16,4.09,4.68-2.36-4.63,3.78.15,3.95,4.86-2.45s-3.56,2.95-4.8,3.87l.27,7.08h-1.73l.35-9.09C458.48,744.13,454.9,741.2,454.9,741.2Z" transform="translate(-168.16 -396.08)"/><polygon class="cls-18" points="82.86 341.64 75.69 353.95 90.04 353.95 82.86 341.64"/><polygon class="cls-18" points="82.86 336.56 76.32 347.79 89.41 347.79 82.86 336.56"/><polygon class="cls-18" points="82.86 332.55 77.5 341.76 88.23 341.76 82.86 332.55"/><polygon class="cls-18" points="82.86 335.45 82 357.97 83.73 357.97 82.86 335.45"/><path class="cls-18" d="M229.17,743.63c0,2.5-2.9,4.53-6.48,4.53s-6.47-2-6.47-4.53,2.9-4.53,6.47-4.53S229.17,741.13,229.17,743.63Z" transform="translate(-168.16 -396.08)"/><path class="cls-18" d="M230.43,738.9c0,3.13-3.46,5.66-7.74,5.66S215,742,215,738.9s3.47-5.66,7.74-5.66S230.43,735.78,230.43,738.9Z" transform="translate(-168.16 -396.08)"/><path class="cls-18" d="M227.19,733.74c0,1.82-2,3.29-4.5,3.29s-4.5-1.47-4.5-3.29,2-3.3,4.5-3.3S227.19,731.92,227.19,733.74Z" transform="translate(-168.16 -396.08)"/><path class="cls-18" d="M217.33,741.2l4.76,2.34.2-5.24-3.2-2.87,3.23,2.14.23-6,.15,3.84,2.49-1.48-2.46,2.2.15,4.09,4.69-2.36-4.63,3.78.15,3.95L228,743.1s-3.57,2.95-4.8,3.87l.27,7.08h-1.74L222,745C220.91,744.13,217.33,741.2,217.33,741.2Z" transform="translate(-168.16 -396.08)"/><path class="cls-18" d="M608.58,743.63c0,2.5-2.9,4.53-6.47,4.53s-6.48-2-6.48-4.53,2.9-4.53,6.48-4.53S608.58,741.13,608.58,743.63Z" transform="translate(-168.16 -396.08)"/><path class="cls-18" d="M609.84,738.9c0,3.13-3.46,5.66-7.73,5.66s-7.74-2.53-7.74-5.66,3.46-5.66,7.74-5.66S609.84,735.78,609.84,738.9Z" transform="translate(-168.16 -396.08)"/><path class="cls-18" d="M606.61,733.74c0,1.82-2,3.29-4.5,3.29s-4.51-1.47-4.51-3.29,2-3.3,4.51-3.3S606.61,731.92,606.61,733.74Z" transform="translate(-168.16 -396.08)"/><path class="cls-18" d="M596.75,741.2l4.75,2.34.2-5.24-3.19-2.87,3.22,2.14.23-6,.15,3.84,2.49-1.48-2.46,2.2.16,4.09,4.68-2.36-4.63,3.78.15,3.95,4.86-2.45s-3.56,3-4.8,3.87l.27,7.08H601.1l.35-9.09C600.33,744.13,596.75,741.2,596.75,741.2Z" transform="translate(-168.16 -396.08)"/><path class="cls-18" d="M630,743.63c0,2.5-2.9,4.53-6.47,4.53s-6.48-2-6.48-4.53,2.9-4.53,6.48-4.53S630,741.13,630,743.63Z" transform="translate(-168.16 -396.08)"/><path class="cls-18" d="M631.29,738.9c0,3.13-3.46,5.66-7.73,5.66s-7.74-2.53-7.74-5.66,3.46-5.66,7.74-5.66S631.29,735.78,631.29,738.9Z" transform="translate(-168.16 -396.08)"/><path class="cls-18" d="M628.06,733.74c0,1.82-2,3.29-4.5,3.29s-4.51-1.47-4.51-3.29,2-3.3,4.51-3.3S628.06,731.92,628.06,733.74Z" transform="translate(-168.16 -396.08)"/><path class="cls-18" d="M618.2,741.2l4.75,2.34.2-5.24L620,735.43l3.22,2.14.23-6,.15,3.84,2.49-1.48-2.46,2.2.16,4.09,4.68-2.36-4.63,3.78.15,3.95,4.86-2.45s-3.56,3-4.8,3.87l.27,7.08h-1.73l.35-9.09C621.78,744.13,618.2,741.2,618.2,741.2Z" transform="translate(-168.16 -396.08)"/><path class="cls-18" d="M651.48,743.63c0,2.5-2.9,4.53-6.48,4.53s-6.47-2-6.47-4.53,2.9-4.53,6.47-4.53S651.48,741.13,651.48,743.63Z" transform="translate(-168.16 -396.08)"/><path class="cls-18" d="M652.74,738.9c0,3.13-3.46,5.66-7.74,5.66s-7.73-2.53-7.73-5.66,3.46-5.66,7.73-5.66S652.74,735.78,652.74,738.9Z" transform="translate(-168.16 -396.08)"/><path class="cls-18" d="M649.51,733.74c0,1.82-2,3.29-4.51,3.29s-4.5-1.47-4.5-3.29,2-3.3,4.5-3.3S649.51,731.92,649.51,733.74Z" transform="translate(-168.16 -396.08)"/><path class="cls-18" d="M639.65,741.2l4.75,2.34.2-5.24-3.19-2.87,3.22,2.14.23-6,.15,3.84,2.49-1.48-2.46,2.2.16,4.09,4.68-2.36-4.63,3.78.15,3.95,4.86-2.45s-3.56,3-4.8,3.87l.27,7.08H644l.35-9.09C643.23,744.13,639.65,741.2,639.65,741.2Z" transform="translate(-168.16 -396.08)"/><path class="cls-18" d="M672.93,743.63c0,2.5-2.9,4.53-6.48,4.53s-6.47-2-6.47-4.53,2.9-4.53,6.47-4.53S672.93,741.13,672.93,743.63Z" transform="translate(-168.16 -396.08)"/><path class="cls-18" d="M674.19,738.9c0,3.13-3.46,5.66-7.74,5.66s-7.73-2.53-7.73-5.66,3.46-5.66,7.73-5.66S674.19,735.78,674.19,738.9Z" transform="translate(-168.16 -396.08)"/><path class="cls-18" d="M671,733.74c0,1.82-2,3.29-4.51,3.29s-4.5-1.47-4.5-3.29,2-3.3,4.5-3.3S671,731.92,671,733.74Z" transform="translate(-168.16 -396.08)"/><path class="cls-18" d="M661.1,741.2l4.75,2.34.2-5.24-3.19-2.87,3.22,2.14.23-6,.15,3.84,2.49-1.48-2.46,2.2.16,4.09,4.68-2.36-4.63,3.78.15,3.95,4.86-2.45s-3.56,3-4.8,3.87l.27,7.08h-1.73l.35-9.09C664.67,744.13,661.1,741.2,661.1,741.2Z" transform="translate(-168.16 -396.08)"/><path class="cls-18" d="M694.38,743.63c0,2.5-2.9,4.53-6.48,4.53s-6.47-2-6.47-4.53,2.9-4.53,6.47-4.53S694.38,741.13,694.38,743.63Z" transform="translate(-168.16 -396.08)"/><path class="cls-18" d="M695.64,738.9c0,3.13-3.46,5.66-7.74,5.66s-7.74-2.53-7.74-5.66,3.47-5.66,7.74-5.66S695.64,735.78,695.64,738.9Z" transform="translate(-168.16 -396.08)"/><path class="cls-18" d="M692.41,733.74c0,1.82-2,3.29-4.51,3.29s-4.5-1.47-4.5-3.29,2-3.3,4.5-3.3S692.41,731.92,692.41,733.74Z" transform="translate(-168.16 -396.08)"/><path class="cls-18" d="M682.55,741.2l4.75,2.34.2-5.24-3.2-2.87,3.23,2.14.23-6,.15,3.84,2.49-1.48-2.46,2.2.16,4.09,4.68-2.36-4.63,3.78.15,3.95,4.86-2.45s-3.56,3-4.8,3.87l.27,7.08h-1.74l.36-9.09C686.12,744.13,682.55,741.2,682.55,741.2Z" transform="translate(-168.16 -396.08)"/><path class="cls-18" d="M482.54,726a5.08,5.08,0,1,1-5.05-4.57A4.82,4.82,0,0,1,482.54,726Z" transform="translate(-168.16 -396.08)"/><path class="cls-18" d="M486.15,732.25c0,3.44-3.88,6.23-8.65,6.23s-8.66-2.79-8.66-6.23,3.88-6.22,8.66-6.22S486.15,728.81,486.15,732.25Z" transform="translate(-168.16 -396.08)"/><path class="cls-18" d="M470.33,730.43l6.68,2.19.32-8.41.19,4.77,4.17-2.48-4.12,3.73.17,4.57,6.92-3.5-6.87,4.76.69,18h-2.3l.78-20.2Z" transform="translate(-168.16 -396.08)"/><path class="cls-18" d="M300.28,726a5.08,5.08,0,1,1-5-4.57A4.82,4.82,0,0,1,300.28,726Z" transform="translate(-168.16 -396.08)"/><path class="cls-18" d="M303.89,732.25c0,3.44-3.87,6.23-8.65,6.23s-8.65-2.79-8.65-6.23,3.87-6.22,8.65-6.22S303.89,728.81,303.89,732.25Z" transform="translate(-168.16 -396.08)"/><path class="cls-18" d="M288.08,730.43l6.67,2.19.33-8.41.18,4.77,4.18-2.48-4.13,3.73.17,4.57,6.92-3.5-6.87,4.76.7,18h-2.3l.77-20.2Z" transform="translate(-168.16 -396.08)"/></g><path class="cls-24" d="M448.36,684.22h29.76s7-1.63,7.59,7.54.74,75.85.74,75.85,0,4.52-8.82,4.8l-.88,0H433.6c-1.31,0-7.42-.22-8.09-4.69-.26-1.76-.11-12,.2-24.54,0-1.2.07-2.42.1-3.66.18-6.78.4-14,.6-20.83,0-.94.07-1.87.09-2.8.46-14.44.88-26.24.88-26.24.17-5.57,6.84-5.45,6.84-5.45h14.14Z" transform="translate(-168.16 -396.08)"/><path class="cls-25" d="M430.74,760.68a3.74,3.74,0,0,0,3.65,4h42.29a3.76,3.76,0,0,0,3.65-4l-.74-19H431.32Z" transform="translate(-168.16 -396.08)"/><path class="cls-25" d="M431.49,737.64l-.1,4.39h48.12l-.13-4.43c-.08-2.76-1.69-4.92-3.65-4.92H435.14C433.17,732.68,431.56,734.87,431.49,737.64Z" transform="translate(-168.16 -396.08)"/><path class="cls-26" d="M433.6,772.43c0,.23-.21,4.43,2.24,4.15s2.24-4.15,2.24-4.15H433.6Z" transform="translate(-168.16 -396.08)"/><path class="cls-27" d="M446.59,679.1a.77.77,0,0,0-.08.41,28.53,28.53,0,0,0,.41,4.71h1.44c-.14-.84-.27-1.68-.41-2.51a.6.6,0,0,1,0-.42.52.52,0,0,1,.32-.16c5.83-1.3,11.88-.74,17.78.09a.42.42,0,0,1,.32.15.47.47,0,0,1,0,.33,18,18,0,0,1-.67,2.52h1.08c.36-1.3.64-2.61.87-3.94a1.83,1.83,0,0,0,0-.66,1.28,1.28,0,0,0-.46-.6,4.83,4.83,0,0,0-1.84-.69,47.15,47.15,0,0,0-15.09-.26,11.44,11.44,0,0,0-3.45.82A.61.61,0,0,0,446.59,679.1Z" transform="translate(-168.16 -396.08)"/><path class="cls-26" d="M473.14,772.43s-.27,4.44,2.24,4.15,2.25-4.15,2.25-4.15v0l-.88,0Z" transform="translate(-168.16 -396.08)"/><path class="cls-28" d="M452.33,623.85a18.84,18.84,0,0,0,5.29-2,9.93,9.93,0,0,0,3.74-4.31c1.07-2.32,1.33-5.2,3.2-6.91a8.46,8.46,0,0,1,3.19-1.62,43.81,43.81,0,0,1,12.06-2.1,3.8,3.8,0,0,1,1.64.22,2.78,2.78,0,0,1,1.06.93h0l.26.35A20.67,20.67,0,0,1,486,621.18a38,38,0,0,1-3.4,12.9l0,.24c.62.08,1.23.19,1.83.31l1.94.41,1.86.42.09-.41c.32.06.71-.23,1-.52A21.37,21.37,0,0,0,494,617.35c-.07-.39-.14-.76-.23-1.14a22.81,22.81,0,0,0-4.64-9.4,23.1,23.1,0,0,0-12-7.74A21.57,21.57,0,0,0,463,600.35a15.34,15.34,0,0,0-4.3,2.83,20.37,20.37,0,0,0-3.31,4.53,29.48,29.48,0,0,0-3.23,7.86A16,16,0,0,0,452.33,623.85Z" transform="translate(-168.16 -396.08)"/><path class="cls-9" d="M461.51,651.37h0c2.66,0,2.08-5.17,2-8.14-.05-2.68-.06-7.81-2.44-7.81-.32.1-.65.18-1,.26a18.64,18.64,0,0,0-4.32,1.17c-2.86,1.46-4.15,4.9-5.19,8-.42,1.25-.83,2.51-1.25,3.76q-6.87,20.75-13.76,41.49l0,.06A13.4,13.4,0,0,0,430.3,693a1.34,1.34,0,0,0-.42.53.93.93,0,0,0,.42,1,2.25,2.25,0,0,0,1.11.3,24.25,24.25,0,0,0,10.27-1.28,1.71,1.71,0,0,0,.8-.47,2,2,0,0,0,.28-1.51c-.13-1.45-.24-2.9-.37-4.35l-.14-.07A346.55,346.55,0,0,1,461.51,651.37Z" transform="translate(-168.16 -396.08)"/><path class="cls-29" d="M442.48,687.65a15.08,15.08,0,0,1-3.31.38c-1.5,0-2.45-.12-3.45.88,0,.11-.07,1.12-.11,1.22l0,.06A13.4,13.4,0,0,0,430.3,693a1.34,1.34,0,0,0-.42.53.93.93,0,0,0,.42,1,2.25,2.25,0,0,0,1.11.3,24.25,24.25,0,0,0,10.27-1.28,1.71,1.71,0,0,0,.8-.47,2,2,0,0,0,.28-1.51C442.66,690.48,442.57,688.75,442.48,687.65Z" transform="translate(-168.16 -396.08)"/><path class="cls-30" d="M444.15,647.21a11.69,11.69,0,0,0,5.23,1.43c.41-1.25.82-2.51,1.24-3.76,1-3.14,2.33-6.58,5.19-8a19,19,0,0,1,4.31-1.16c.33-.07.66-.16,1-.26a16.16,16.16,0,0,0,3.08-1.28,14.84,14.84,0,0,0,1.58-1h0a5.8,5.8,0,0,0,2.59-2.82A16.2,16.2,0,0,0,469.5,626a2.11,2.11,0,0,0,0-1,2.43,2.43,0,0,0-.55-.76,8.67,8.67,0,0,1-2.45-6.2,27,27,0,0,0,14.82-7,14.37,14.37,0,0,1,2.1,6.12c0,.31.06.62.07.93a9.07,9.07,0,0,1-.48,3.63,8.31,8.31,0,0,1-5,4.56c.28,2.76.7,5.5,1.21,8.22a7.31,7.31,0,0,1,2-.24l.65,0,.63.06,0-.24a38,38,0,0,0,3.4-12.9,20.67,20.67,0,0,0-3.18-12.77l-.27-.35a2.78,2.78,0,0,0-1.06-.93,3.8,3.8,0,0,0-1.64-.22,43.81,43.81,0,0,0-12.06,2.1,8.46,8.46,0,0,0-3.19,1.62c-1.87,1.71-2.13,4.59-3.2,6.91a9.93,9.93,0,0,1-3.74,4.31,18.84,18.84,0,0,1-5.29,2c-2.6.7-5.18,1.37-7,3.36a7.57,7.57,0,0,0-1.9,5.42,13.8,13.8,0,0,1,.2,3.56c-.34,1.7-1.81,2.92-2.36,4.56C440.49,643.18,442,645.91,444.15,647.21Z" transform="translate(-168.16 -396.08)"/><path class="cls-31" d="M477.86,750.1a36.68,36.68,0,0,0,3.37,2q6.15-10.41,12.85-20.44,3.85,9.52,8.4,18.71h0a30.8,30.8,0,0,0,9.89-4.27c.77-.51,1.53-1.05,2.26-1.63l-.08-.11a304.84,304.84,0,0,0-29.46-72.39c0,.27,0,.52,0,.79a94.32,94.32,0,0,1-22-.47,3.55,3.55,0,0,1-.47-.06c-2.26,2.51-4.43,5.25-5.21,8.58a17.38,17.38,0,0,0,.37,8.07c1.71,6.84,5.62,12.9,10.3,18a91.22,91.22,0,0,0,10.56,9.58c1.55,1.25,3.12,2.45,4.68,3.67q-2.46,3.6-4.77,7.31Q473.79,735,469.69,743a10.37,10.37,0,0,0,1.06,1.24l.34.36A41.57,41.57,0,0,0,477.86,750.1Z" transform="translate(-168.16 -396.08)"/><path class="cls-9" d="M474.86,775.19a12,12,0,0,0-.25-1.22c-.27-1.07-.55-2.14-.81-3.22a59.24,59.24,0,0,1-13-10.46c-.12.21-.25.44-.36.66a1.7,1.7,0,0,0-.31,1,1.77,1.77,0,0,0,.47.92q6.53,8.21,13.48,16C475,778,475.08,776.57,474.86,775.19Z" transform="translate(-168.16 -396.08)"/><path class="cls-29" d="M464.18,634.13h0a43.85,43.85,0,0,0,5.63,11.94c1.78,2.64,4.29,5.3,7.39,5.21,3.29-.09,5.83-3.43,6.32-6.84s-.55-6.82-1.63-10.07v-.12a7.49,7.49,0,0,0-2.63.21c0-.12,0-.24-.07-.36-.48-2.6-.87-5.22-1.14-7.86a6.76,6.76,0,0,0,.69-.29,8,8,0,0,0,4.27-4.27,9.07,9.07,0,0,0,.48-3.63,14.47,14.47,0,0,0-2.17-7,27,27,0,0,1-14.82,7,8.67,8.67,0,0,0,2.45,6.2,2.43,2.43,0,0,1,.55.76,2.11,2.11,0,0,1,0,1c-.09.56-.19,1.12-.3,1.67a11.69,11.69,0,0,1-.84,2.69,5.8,5.8,0,0,1-2.59,2.82h0A14.84,14.84,0,0,1,464.18,634.13Z" transform="translate(-168.16 -396.08)"/><path class="cls-9" d="M485.42,673.47c3.09.55.81-5.85,1.05-6.26-.24.41-.29-.94-.34-1.28-.19-1.34,0-2.42-.15-3.76a1.58,1.58,0,0,1,0-.84c.15-.34.37-1.11.37-1.11a16.59,16.59,0,0,1,1-2.17c.89-1.6,1.84-3.61,1.5-5.42,0-.17,1.39-.33,1.36-.5a70,70,0,0,0-5.9-17.49c-.6-.13-1.21-.24-1.83-.32q-.31,0-.63-.06v.12c1.08,3.26,0,2.74-2.86,5.58l-1.83.67c-3.1.08-8.49,1.81-10.27-.83-2.45-3.65-1.48-1.4-2.75-5.66h0a16.84,16.84,0,0,1-3.08,1.28,18.75,18.75,0,0,1,1.49,7.81c.06,3,.16,7.23-1.07,8.14h0a70.12,70.12,0,0,0,0,13.59c0,.2.24,6.83.39,7a10,10,0,0,0,1.68.89c.57.1,2.11.25,2.68.33h2.38a76.53,76.53,0,0,0,11.82,1.26C483,674,485.39,673.47,485.42,673.47Z" transform="translate(-168.16 -396.08)"/><path class="cls-29" d="M470.79,759c2.29-3,4.64-6,7.07-8.88a41.57,41.57,0,0,1-6.77-5.52l-.34-.36a167.61,167.61,0,0,0-10,16.07,59.24,59.24,0,0,0,13,10.46q-1.49-5.87-2.95-11.73Z" transform="translate(-168.16 -396.08)"/><path class="cls-9" d="M496.08,623.49q6.23,8.93,12.69,17.69l-.17.19c-6.75-2.18-13.53-4.31-20.43-5.91-1.27-.29-3.25-.57-4.52-.82,2.18,5.61,3.59,11.86,6,17.49a118.79,118.79,0,0,0,25.76-3.71c1.17-.3,2.47-.74,3-1.88a4.37,4.37,0,0,0-.48-3.53c-2.4-5.11-6-9.47-9.58-13.77a35.51,35.51,0,0,0-5.6-5.82,2.24,2.24,0,0,1-.68-.69,2.36,2.36,0,0,1-.18-.92,6.26,6.26,0,0,0-1.32-3.81,7.08,7.08,0,0,0-3.55-1.71,4.73,4.73,0,0,0-3.21-.08h0c.09.37.17.75.23,1.13a21,21,0,0,1,.14,5.81,2.84,2.84,0,0,0,.47.15A7,7,0,0,0,496.08,623.49Z" transform="translate(-168.16 -396.08)"/><path class="cls-29" d="M494.1,623.16a2.84,2.84,0,0,0,.47.15,7,7,0,0,0,1.51.18l.4.57a3.78,3.78,0,0,1,1.39-.3c1.86-.06,2.76-.16,4.07-1.26a4,4,0,0,1-.09-.69,6.26,6.26,0,0,0-1.32-3.81,7.08,7.08,0,0,0-3.55-1.71,4.73,4.73,0,0,0-3.21-.08h0c.09.37.17.75.23,1.13A21,21,0,0,1,494.1,623.16Z" transform="translate(-168.16 -396.08)"/><path class="cls-29" d="M518.24,761.17l0-.14a134.22,134.22,0,0,1-5.82-15,30.8,30.8,0,0,1-9.89,4.27q5.25,10.92,10.51,21.82a73.31,73.31,0,0,0,18.87-12.22v-.06A83.33,83.33,0,0,0,518.24,761.17Z" transform="translate(-168.16 -396.08)"/><path class="cls-9" d="M513,772.16c.46,1,.93,1.91,1.38,2.87a1.36,1.36,0,0,0,.55.69c.4.19.85-.08,1.21-.33l6.73-4.68c4.32-3,8.79-6.17,11.46-10.83h-2.46v.06A73.31,73.31,0,0,1,513,772.16Z" transform="translate(-168.16 -396.08)"/><path class="cls-32" d="M480.6,682.13l4.7-2.41c.4-.2.74.42.34.62l-4.31,2.21,8.82,20c1.48,3.35,3,6.7,4.43,10.06a29,29,0,0,1,2.76,9.52,12.15,12.15,0,0,1-2.66,8.92c-.3.34-.79-.16-.49-.5a11.23,11.23,0,0,0,2.49-7.87,26.31,26.31,0,0,0-2.56-9.41c-2.82-6.55-5.75-13-8.62-19.56l-4.82-10.94A.35.35,0,0,1,480.6,682.13Z" transform="translate(-168.16 -396.08)"/><path class="cls-33" d="M488.72,569.94c0-7.84-8.55-13.68-16.83-8.69a8,8,0,0,0-2.17,2.1,11.1,11.1,0,0,0-.92,11.36h0l.08.15.12.22,7.86,14.21a1.53,1.53,0,0,0,2.67,0l7.87-14.24.09-.16,0-.08h0A10.51,10.51,0,0,0,488.72,569.94Z" transform="translate(-168.16 -396.08)"/><path class="cls-34" d="M482.45,569.82a4.27,4.27,0,1,1-4.27-4.26A4.27,4.27,0,0,1,482.45,569.82Z" transform="translate(-168.16 -396.08)"/><g class="cls-35"><path class="cls-36" d="M686.51,766.09c.68,3.39,2.9,11,5.68,12.86.82.56,25.83-.32,34.94-.33-.27-1.19-.42-7.48-.42-8.75,0-9.12,7.38-15.5,16.49-15.5s16.5,6.38,16.5,15.5c0,1.22,0,7-.25,8.12,24.14-.16,88.69-1.26,111.42-1.17-.17-1-.26-6-.26-7,0-9.12,7.38-15.5,16.49-15.5s8.44,6.38,8.44,15.5c0,.87-.07,5.77-.21,6.61,2.74,0,31.3-2,31.3-2s8.18-7.41,7.06-15.8c-.67-5-2.84-10-3.45-12.47-2.86-11.32-11.68-13.08-11.68-13.08-6.55-4-17.4-5.8-21.68-8.58-16.14-9.58-21.78-10.48-23.2-11.09-7.06-3-57.49-10.59-91.13,1.09l-26.7,14.21s-48.57,9.91-61.76,21.6a18.33,18.33,0,0,0-5.9,11.15C688,762.86,686.35,764.67,686.51,766.09Z" transform="translate(-168.16 -396.08)"/><path class="cls-37" d="M800.45,744.65a.93.93,0,0,0,.93.94h7.52a.94.94,0,0,0,.94-.94h0a.94.94,0,0,0-.94-.94h-7.52a.93.93,0,0,0-.93.94Z" transform="translate(-168.16 -396.08)"/><path class="cls-37" d="M847.51,744.65a.94.94,0,0,0,.94.94H856a1,1,0,0,0,.95-.94h0a1,1,0,0,0-.95-.94h-7.51a.94.94,0,0,0-.94.94Z" transform="translate(-168.16 -396.08)"/><path class="cls-38" d="M927.89,741.47c-1.21-.6-7.65-1.34-7.65,1.7,0,1.34,10.42,4.88,10.42,4.88S929.9,742.48,927.89,741.47Z" transform="translate(-168.16 -396.08)"/><path class="cls-39" d="M866.46,767.37c-1.82-9.33,14.54-21.47,19.79-24.1s5.13-12.91,4.58-14.22c-2.36-5.54-22.61-14.7-26.06-15.8-2.72-.87-26.7-2.81-36.51-2.32-.53,2.24-2.63,18.29-3.93,28.11s-3.76,30.52-3.76,30.52Zm-1.52-.58-43.7,2.6s2.74-21.34,4-30.7,3.34-24.89,3.72-26.78c9.31-.47,33.26,1.18,35.84,2,3.27,1.05,21.85,9.58,24.3,15.36.52,1.24.56,11.16-4.41,13.66S863.22,757.88,864.94,766.79Z" transform="translate(-168.16 -396.08)"/><path class="cls-24" d="M907.7,730.06c5.61,2.16,18.32,7.9,11.94,6.39s-55.29.67-71.49,3.7-71.65.5-83.92,1-56.53,2-62.91,7.56c-5.16,1.51-8.09,3-2.7-1.51s39.09-11.6,64.13-12.61,57.65.5,82.69-1.51C867.6,731.3,903.78,728.55,907.7,730.06Z" transform="translate(-168.16 -396.08)"/><path class="cls-40" d="M771.82,734.24c-4.6.71,16.64-14.2,26.73-16.93s25.21-2.73,25.21-2.73l-2.35,18.2S775.35,733.69,771.82,734.24Z" transform="translate(-168.16 -396.08)"/><path class="cls-41" d="M796.91,716.12c-11.28,3-35,19.73-29.89,18.93,4-.61,55.46-1.62,55.46-1.62l2.63-20.37S808.19,713.06,796.91,716.12Zm24.33,16.5s-46,.91-49.59,1.45c-4.6.72,16.64-14.2,26.73-16.93s25.21-2.73,25.21-2.73Z" transform="translate(-168.16 -396.08)"/><path class="cls-24" d="M692.06,778.83c-2.77-1.89-5-9.48-5.67-12.86-.16-1.43,1.46-3.23,1.68-4.62A18.35,18.35,0,0,1,694,750.19c2.69-2.39,6.86-4.7,11.78-6.86,6,4.3-2.12,12.83-2.12,12.83-7.57,5.54-5.55,12.6-3,17.14a47.89,47.89,0,0,1,2.54,5.64C697.13,779,692.41,779.06,692.06,778.83Z" transform="translate(-168.16 -396.08)"/><path class="cls-42" d="M697.53,750.74c5.51-3.67,10.75-5.55,16.47-5.38,4.43.13,8.31,0,2.86,3.36-12.44,7.56-14.38,9-20.72,7.85C691.46,755.69,697.53,750.74,697.53,750.74Z" transform="translate(-168.16 -396.08)"/><path class="cls-40" d="M832.16,733.17l1.68-18.57s21.72-.49,31.1,3.09c8.57,3.28,20.85,9.1,14.29,11.29s-6.73,1.46-18.32,2.55C851.64,732.41,832.16,733.17,832.16,733.17Z" transform="translate(-168.16 -396.08)"/><path class="cls-41" d="M830.28,733.42s21.49-.84,31.7-1.8c12.79-1.21,13-.41,20.21-2.82s-6.31-8.83-15.76-12.45c-10.34-4-34.3-3.41-34.3-3.41Zm30.29-2.22c-9.26.87-28.74,1.64-28.74,1.64l1.68-18.58s21.71-.49,31.1,3.1c8.57,3.28,20.84,9.1,14.28,11.29S872.17,730.1,860.57,731.2Z" transform="translate(-168.16 -396.08)"/><path class="cls-24" d="M870.15,765.36c-2,.8-83.36,3.38-112.45,4.87-7.46.39-2.23,1.79-2.23,1.79l114.68-.95Z" transform="translate(-168.16 -396.08)"/><path class="cls-43" d="M760.73,771.39a19.67,19.67,0,1,0-19.67,19.66A19.67,19.67,0,0,0,760.73,771.39Z" transform="translate(-168.16 -396.08)"/><path class="cls-44" d="M754.4,771.39a13.35,13.35,0,0,1-13.34,13.33h0a13.33,13.33,0,0,1-13.33-13.33h0a13.33,13.33,0,0,1,13.33-13.34h0a13.35,13.35,0,0,1,13.34,13.34Zm-2,0h0a11.36,11.36,0,0,0-11.34-11.34h0a11.35,11.35,0,0,0-11.33,11.34h0a11.35,11.35,0,0,0,11.33,11.33h0a11.36,11.36,0,0,0,11.34-11.33Z" transform="translate(-168.16 -396.08)"/><path class="cls-44" d="M729.56,775.42a12.68,12.68,0,0,0,1.22,2.51c3.62-3.22,6.93-5,7.84-4.1s-.88,4.21-4.09,7.83a12.06,12.06,0,0,0,3.88,1.62c.29-4.84,1.37-8.44,2.65-8.44s2.35,3.6,2.65,8.44a14.26,14.26,0,0,0,1.38-.39,12.42,12.42,0,0,0,2.51-1.22c-3.22-3.63-5-6.94-4.1-7.84s4.21.88,7.84,4.1A12.47,12.47,0,0,0,753,774c-4.84-.28-8.44-1.36-8.44-2.64s3.6-2.36,8.44-2.65a12.1,12.1,0,0,0-.4-1.39,11.8,11.8,0,0,0-1.21-2.5c-3.63,3.21-6.93,5-7.84,4.09s.88-4.2,4.09-7.83a12.29,12.29,0,0,0-3.88-1.62c-.3,4.85-1.37,8.44-2.65,8.44s-2.36-3.59-2.65-8.44a14.34,14.34,0,0,0-1.38.4,12.16,12.16,0,0,0-2.51,1.22c3.22,3.62,5,6.93,4.1,7.83s-4.22-.88-7.84-4.09a12.42,12.42,0,0,0-1.61,3.89c4.84.29,8.43,1.36,8.43,2.65s-3.59,2.36-8.43,2.64A11.5,11.5,0,0,0,729.56,775.42Z" transform="translate(-168.16 -396.08)"/><path class="cls-24" d="M903.77,764.85l28.91-1.26-1.51,3.78s-28.3,2.51-26.48,1.39C906.33,767.75,903.77,764.85,903.77,764.85Z" transform="translate(-168.16 -396.08)"/><path class="cls-39" d="M765.6,771.91l55-.67,7.94-60.36s-27.52,1.58-33.23,3.21-29.49,16.4-31.09,17.74a24.47,24.47,0,0,0-6,9.33C757,744.82,765.6,771.91,765.6,771.91Zm-6.18-30.71a23.51,23.51,0,0,1,5.78-9c1.52-1.29,24.44-15.6,29.91-17.18s32-3.15,32-3.15l-7.61,58.34-53.28.17S758.25,744.75,759.42,741.2Z" transform="translate(-168.16 -396.08)"/><path class="cls-43" d="M907,771.39a19.67,19.67,0,1,0-19.67,19.66A19.66,19.66,0,0,0,907,771.39Z" transform="translate(-168.16 -396.08)"/><path class="cls-44" d="M900.64,771.39a13.35,13.35,0,0,1-13.35,13.33h0A13.32,13.32,0,0,1,874,771.39h0a13.33,13.33,0,0,1,13.32-13.34h0a13.35,13.35,0,0,1,13.35,13.34Zm-2,0h0a11.36,11.36,0,0,0-11.34-11.34h0A11.34,11.34,0,0,0,876,771.39h0a11.34,11.34,0,0,0,11.32,11.33h0a11.35,11.35,0,0,0,11.34-11.33Z" transform="translate(-168.16 -396.08)"/><path class="cls-44" d="M875.8,775.42a13.22,13.22,0,0,0,1.21,2.51c3.64-3.22,6.94-5,7.84-4.1s-.88,4.21-4.09,7.83a12.21,12.21,0,0,0,3.89,1.62c.29-4.84,1.37-8.44,2.64-8.44s2.36,3.6,2.65,8.44a13.67,13.67,0,0,0,1.39-.39,12.42,12.42,0,0,0,2.51-1.22c-3.22-3.63-5-6.94-4.1-7.84s4.21.88,7.83,4.1a12.26,12.26,0,0,0,1.62-3.9c-4.85-.28-8.44-1.36-8.44-2.64s3.59-2.36,8.44-2.65c-.11-.46-.24-.93-.4-1.39a11.83,11.83,0,0,0-1.22-2.5c-3.62,3.21-6.93,5-7.83,4.09s.88-4.2,4.09-7.83a12.44,12.44,0,0,0-3.89-1.62c-.29,4.85-1.36,8.44-2.65,8.44s-2.35-3.59-2.64-8.44a14.34,14.34,0,0,0-1.38.4,11.92,11.92,0,0,0-2.51,1.22c3.21,3.62,5,6.93,4.09,7.83s-4.2-.88-7.83-4.09a12.44,12.44,0,0,0-1.62,3.89c4.85.29,8.44,1.36,8.44,2.65s-3.59,2.36-8.43,2.64A11.5,11.5,0,0,0,875.8,775.42Z" transform="translate(-168.16 -396.08)"/></g></svg>